<svg width="222" height="236" viewBox="0 0 222 236" fill="none" xmlns="http://www.w3.org/2000/svg">
<path d="M72.0001 63C97.875 66.0087 117.5 41.5 133.5 1C135.167 13.8333 142 37 156 57C171.288 78.8402 203.5 73 216.5 73C205 80.5 179.5 100 179.5 118C179.5 145 201 167.5 210.5 176C202.5 174.5 169.5 164 154 174C138.48 184.013 137.5 215 133.5 232.5C130.5 223 127.7 203.2 106.5 190C85.3001 176.8 50.5001 198.833 34.5001 206.5C40.5001 197.667 53.5001 168.5 50.0001 153C46.5001 137.5 15.5001 133.5 2.00012 126C14.5001 125.5 42.8001 121.3 50.0001 100.5C57.2001 79.7 34.0001 58 24.5001 44.5C37.0001 50 50.5001 60.5 72.0001 63Z" fill="#FFECA8"/>
<path d="M137.424 8.73923C138.538 13.4478 140.308 19.6019 141.881 24.1982C142.372 25.6377 141.986 24.9672 142.325 25.9578C143.002 27.912 143.767 29.6592 144.503 31.5627C144.746 32.1907 144.225 31.5004 144.486 32.1583C145.928 35.7707 147.546 39.0655 149.339 42.569C151.733 47.2416 154.398 51.7519 157.356 56.051C165.038 67.6247 179.718 71.8578 193.792 72.2396C200.262 72.5362 208.142 72.092 214.979 71.7491C215.78 71.7201 215.301 71.5474 215.454 71.5287C215.914 71.4764 216.246 71.4523 216.5 71.4449L221.728 71.4327L217.35 74.3026C216.473 74.9159 216.521 74.5788 215.496 75.2193C210.367 78.4445 204.995 82.5716 200.681 86.4929C198.857 88.1663 200.945 86.774 198.964 88.3009C198.828 88.4077 199.156 87.839 198.644 88.283C197.473 89.2883 195.409 91.3569 194.575 92.2075C192.96 93.8422 192.703 94.1242 191.268 95.7503C189.315 97.979 187.072 100.708 185.437 103.414C185.089 103.994 185.726 103.34 185.197 104.272C184.656 105.187 183.328 107.682 182.932 108.531C182.51 109.383 182.528 108.952 182.428 109.092C181.553 110.25 181.061 113.506 181.038 113.912C180.781 115.3 180.65 116.673 180.659 118C180.71 123.964 181.541 129.44 183.354 135.066C185.051 140.33 187.706 145.669 190.408 150.199C193.635 155.596 196.754 159.972 200.756 164.618C201.177 165.103 200.862 164.379 201.379 164.97C204.504 168.528 207.845 171.934 211.316 175.088L214.585 178.001L210.275 177.202C206.603 176.422 203.131 175.427 199.583 174.555C198.766 174.351 199.873 174.392 199.055 174.175C194.07 172.81 186.08 170.991 182.93 171.573C179.49 171.104 175.3 170.783 172.208 170.634C170.207 170.548 172.144 170.268 169.691 170.452C169.139 170.502 169.866 170.661 169.042 170.724C165.59 170.994 161.795 171.535 158.668 172.811C158.033 173.073 158.276 173.174 158.109 173.273C157.12 173.854 155.578 174.459 154.615 174.953C154.213 175.154 153.904 175.321 153.76 175.413C150.035 177.894 148.081 180.79 146.031 184.488C145.565 185.365 146.321 184.437 145.886 185.287C143.667 189.683 142.076 194.615 140.772 199.338C140.484 200.39 140.53 199.368 140.383 199.869C139.748 202.088 140.013 202.671 139.474 204.815C139.363 205.268 139.247 204.976 139.211 205.055C138.648 206.301 138.846 207.523 138.792 207.86C138.114 212.142 137.241 214.816 136.628 218.978C136.556 219.474 136.953 218.391 136.736 219.787C136.072 224.025 135.392 228.378 134.391 232.704L133.649 235.981L132.629 232.775C131.12 227.644 129.982 222.542 128.243 217.808C127.747 216.453 128.272 217.352 128.259 217.261C128.018 215.771 127.238 215.055 127.035 214.633C125.455 211.311 124.027 208.123 122.214 206.323C118.112 199.959 112.48 194.699 106.056 190.713C99.3719 186.498 91.023 186.032 83.1802 187.072C82.985 187.098 83.3007 186.835 82.9104 186.888C78.2045 187.628 79.1688 187.822 76.2315 188.974C75.5031 189.264 73.0559 189.495 72.8432 189.532C72.062 189.642 72.7382 189.102 72.4817 189.157C70.3544 189.639 71.0148 190.491 68.2864 191.473C68.2005 191.503 68.4935 191.193 68.2581 191.259C67.5259 191.465 66.8487 191.801 66.1329 192.008C64.4974 192.487 63.7353 192.245 61.4528 193.532C61.1683 193.699 61.8487 194.026 59.4652 195.05C58.503 195.451 54.3636 197.397 53.1842 197.943C52.0153 198.472 52.7236 197.916 52.6377 197.949C49.4086 199.263 50.5622 198.582 48.8276 199.039C47.1032 199.501 47.9459 200.058 47.3521 200.47C46.7545 200.883 44.3993 201.868 43.8158 202.092C43.2349 202.313 43.8626 201.852 43.3577 202.068C39.946 203.543 42.1308 203.196 41.098 203.889C38.9023 205.365 36.8104 205.861 34.6244 206.759L33.6648 207.222L34.2622 206.338C34.3856 206.179 34.5103 206.009 34.6356 205.826C35.0416 205.228 34.6072 205.633 34.9221 205.109C36.1755 202.974 37.087 201.725 38.2093 199.128C38.3914 198.713 39.0693 196.462 39.9399 195.254C40.0662 195.079 39.9612 195.695 40.4428 194.736C41.1591 193.32 42.3314 190.702 42.9203 189.092C43.3554 187.906 42.5689 189.152 43.2358 187.703C43.5272 187.063 43.1965 188.333 43.7313 187.123C44.2753 185.911 45.423 182.742 45.8198 181.518C46.223 180.3 45.8069 180.902 45.8272 180.799C45.9582 180.181 46.6002 177.813 46.6573 177.603C49.0219 169.359 51.1564 161.19 49.6054 153.089C49.1495 151.005 48.115 149.063 46.7127 147.398C46.1779 146.774 46.3678 147.332 46.2845 147.239C44.3313 145.266 46.2637 146.452 44.9614 144.936C44.8758 145.457 44.1017 144.569 42.4503 143.426C41.6565 142.888 41.9844 143.33 41.9037 143.293C40.5891 142.686 39.9207 141.917 39.7282 141.72C39.0483 141.024 37.9832 140.775 37.494 140.333C36.9914 139.888 38.4432 140.358 36.7046 139.473C36.1533 139.372 37.2461 140.368 35.9141 139.78C30.8968 137.486 21.1795 133.899 16.9419 132.44C12.7247 130.973 11.3485 130.514 8.92789 129.537C4.5766 127.695 6.07702 128.63 3.32897 127.508C2.12091 126.979 1.78336 126.648 1.74771 126.454L0.127457 125.559L1.97935 125.481C2.06486 125.579 2.02248 125.702 1.99248 125.809L1.31126 125.838L1.90727 126.167C1.96619 126.113 2.01482 126.062 2.00011 126C2.0136 126.014 2.03259 126.025 2.05867 126.034C2.45949 126.177 2.9249 125.991 3.43571 126.049C3.94637 126.106 2.85212 126.281 4.05393 126.24C5.26879 126.211 8.52191 125.6 8.93448 125.369C9.77578 124.904 8.27259 124.749 11.4233 124.438C11.6058 124.419 11.045 124.699 11.7438 124.614C17.2507 123.93 22.8981 122.564 28.1138 120.655C28.8301 120.391 28.2756 120.844 28.6942 120.691C33.0265 118.995 31.3537 119.294 33.4211 117.808C33.1547 118.529 34.6176 118.278 37.6065 116.343C39.3731 115.144 38.9286 115.147 39.9145 114.188C40.2108 113.903 41.4612 113.064 41.586 112.793C41.9855 111.909 40.767 112.632 43.3662 110.208C43.4783 110.099 43.284 110.6 43.6613 110.21C46.0137 107.608 46.0006 107.037 47.7572 103.751C48.2201 102.82 48.7866 101.616 49.2926 100.255C50.2214 97.837 50.7616 94.9213 50.8012 92.7571C51.4429 92.8523 51.2217 89.5783 50.567 88.368C50.2779 86.1925 49.6535 83.8954 49.0078 81.868C48.7829 81.168 49.1081 81.5646 49.0954 81.4709C48.8954 80.0255 48.1313 79.2757 47.934 78.8509C45.732 74.1739 43.7689 70.3959 40.7256 66.4709C40.6155 66.3324 40.1134 66.3363 39.6004 65.081C39.5669 64.9986 40.6746 66.2213 39.3314 64.314C37.9928 62.4071 35.4861 58.7655 33.3038 56.3588C32.7747 55.7693 31.262 54.4329 30.4724 53.027C30.3661 52.8371 30.6073 52.9441 30.4657 52.661C30.0089 51.7513 29.3389 51.5982 28.8924 50.4588C28.4524 49.3148 27.1355 47.2767 25.0237 44.7756C24.9932 44.7387 24.8209 44.6266 24.5909 44.4361L24.4554 44.6016C24.8015 44.6551 25.2786 44.7639 25.7805 44.9993C27.2738 45.6948 29.3264 46.8072 30.8485 47.603C31.5772 47.9831 31.2085 47.5537 31.3368 47.6165C36.2905 50.0884 39.6139 52.2012 44.925 54.8333C45.8946 55.3191 48.8457 56.3526 50.7067 57.3408C52.7635 58.4059 50.137 58.5759 55.2785 60.1507C57.3794 60.7551 60.305 60.3239 63.895 61.8285C66.6335 62.3778 69.308 62.8345 71.9805 63.1691C76.4796 63.7341 81.0685 63.5269 85.5707 62.1092C85.8985 62.0093 86.8056 61.3584 87.5464 61.1014C88.6498 60.7216 89.3016 60.6377 90.0813 60.317C93.3287 58.9628 96.0137 57.1555 98.729 55.1554C99.7477 54.3887 99.5049 54.8086 100.712 53.8424C101.888 52.877 102.515 52.0289 104.088 50.6768C105.27 49.6518 106.719 48.8469 108.154 47.3226C107.861 46.9427 108.828 45.909 110.341 43.8402C110.625 43.4484 110.173 43.7506 110.301 43.5601C110.816 42.7841 111.46 42.174 111.926 41.4039C112.038 41.2196 111.916 41.1156 112 40.9593C112.712 39.6286 114.424 37.8043 114.713 37.4829C115.842 36.2455 116.067 35.5174 116.83 34.5016C117.587 33.485 116.673 35.1442 117.511 33.9266C119.23 31.4292 121.163 28.0329 122.633 25.3008C123.212 24.225 122.63 24.8593 122.709 24.703C123.858 22.4395 125.208 20.2439 125.452 18.7748C127.2 17.6795 126.041 17.3554 127.763 14.1619C127.898 13.9098 128.523 13.7956 128.133 14.8244C127.75 15.8376 126.875 17.3166 126.321 18.7234C126.194 19.0559 125.699 21.1513 125.597 21.412C124.807 23.4837 123.95 23.4272 123.863 23.5061C122.849 24.4688 122.097 26.949 121.8 27.5469C120.457 30.2994 119.021 32.4863 117.755 34.7027C116.909 36.1679 117.25 36.5683 116.5 37.6636C113.974 41.2668 112.491 42.0808 110.347 45.6729C109.864 46.438 110.905 46.132 108.435 48.2602C108.285 48.3945 106.375 49.8751 105.579 51.0024C105.479 51.1458 105.599 51.2548 105.443 51.4274C104.391 52.5728 103.567 53.1613 102.328 54.3055C101.103 55.4345 99.5508 56.7647 97.9248 57.8037C96.9514 58.4351 95.5148 58.9621 95.006 59.1688C93.5518 59.7789 92.2138 60.8333 91.2195 60.9987C90.2296 61.1517 91.7958 60.0553 89.4172 60.8831C89.4896 61.3074 89.4489 61.7884 89.4591 62.2382C84.165 64.3082 78.436 64.9693 72.8023 64.4578C72.0986 64.3925 72.7979 64.6904 72.0379 64.6193C71.9632 64.6118 71.8888 64.6041 71.8145 64.5961C68.786 64.2648 66.1618 63.6638 63.0595 63.016C60.6019 62.5017 57.8776 61.9813 55.3605 61.1985C53.9823 60.2473 50.2897 59.0463 47.7275 57.8601C46.8352 57.4522 46.9414 57.357 46.3221 57.0319C43.989 55.7889 44.9345 56.6873 44.2508 56.4422C41.3207 55.3488 41.5169 54.3697 38.2792 52.7125C38.1074 52.6258 35.7942 51.9799 35.4898 51.8519C33.5835 51.069 35.2745 51.5346 34.1586 50.8946C32.1244 49.73 30.7566 48.8478 28.2544 47.7458C27.5269 47.4263 25.6865 46.8711 24.3991 46.0259C24.2294 45.9144 24.3997 45.8049 24.2563 45.7301C24.1728 45.6871 24.0917 45.6462 24.0129 45.6073L25.4894 43.8038C26.9468 46.0426 27.4518 45.8283 28.5767 47.0096C29.7447 48.2253 31.1162 50.5188 31.3608 50.992C32.0214 52.2513 30.6053 50.2392 30.5302 50.1868C29.7237 49.6913 30.9598 51.1487 31.8676 52.3175C31.5886 52.8035 32.9074 54.3925 32.8007 53.5182C32.7857 53.4183 32.0304 52.5577 31.8676 52.3175C33.0668 52.9916 34.5485 54.718 35.7235 56.9809C36.2646 58.0383 35.3925 57.3217 37.6364 60.0801C38.6494 61.3424 38.5573 60.6231 39.493 61.7138C41.6292 64.2046 43.7796 67.9116 45.5462 70.8042C46.1891 71.8572 45.7497 70.7202 46.1933 71.4405C47.3609 73.3555 48.1569 75.1866 49.1597 77.2187C49.2504 77.4041 49.2329 76.8585 49.5238 77.5055C51.6745 82.4171 52.9407 87.1266 52.8715 92.8893C52.8613 94.9955 52.4407 98.3944 51.5112 101.023C51.227 101.865 50.9283 102.615 50.6439 103.25C48.6782 107.894 44.3776 112.412 41.1322 115.003C39.0115 116.713 39.5838 116.489 38.7039 117.28C36.9864 118.827 33.1998 120.255 32.6889 120.388C32.6783 120.402 34.7276 119.301 33.5752 119.772C32.8352 119.901 32.7127 120.374 32.6889 120.388C32.3681 120.541 28.096 122.322 27.2303 122.627C26.7697 122.817 27.0976 122.905 26.8554 123C21.0689 125.241 14.971 126.577 8.76346 127.212C8.65266 127.221 8.79336 126.985 8.53407 127.008C5.94773 127.227 4.04097 127.477 2.06774 127.69L2.82174 124.521C3.45771 124.816 4.1605 125.116 4.88149 125.41C7.49924 126.47 9.61751 127.307 11.0876 128.255C13.1496 128.968 16.0828 130.143 17.7778 130.822C19.4781 131.504 19.8486 131.18 20.0052 131.224C24.8385 132.59 27.5355 133.737 32.399 135.765C34.7211 136.715 39.2792 138.807 41.6596 140.309C43.5429 141.465 44.5726 142.338 46.1747 143.68C46.3887 143.864 46.306 143.532 46.3745 143.585C48.2443 145.06 47.0853 144.613 47.3695 145.009C48.3168 146.532 48.9748 147.359 50.4173 150.05C50.6448 150.494 51.4063 151.48 51.8626 152.579C52.0418 152.987 52.1851 153.399 52.2582 153.763C52.5531 155.39 52.2435 154.812 52.4464 156.495C52.4581 156.64 52.6162 156.594 52.6513 157.654C52.7787 162.512 51.8787 167.588 50.7888 172.303C50.6365 172.95 51.0627 172.176 50.843 173.111C49.8076 177.486 48.2923 182.156 46.666 186.187C46.2655 187.174 46.3472 186.491 46.2204 186.69C45.4447 187.92 45.0893 189.943 44.9693 190.253C42.4103 196.821 39.8943 201.706 36.1508 207.621L33.6378 204.7C34.3763 204.338 35.2089 203.911 35.997 203.49C36.4076 203.277 39.1076 201.375 40.6334 201.022C40.7217 201.005 42.2492 200.664 43.26 199.831C43.3258 199.777 42.4068 200.02 43.8519 199.296C45.284 198.578 47.5414 197.264 49.6271 196.48C50.2934 196.229 51.9494 195.852 53.7103 194.658C53.8164 194.577 56.456 192.539 57.732 192.521C57.9422 192.52 57.9627 193.073 60.1616 191.82C60.5828 191.581 59.735 191.816 60.8692 191.251C62.6131 190.383 65.0553 189.546 67.2295 188.502C67.6047 188.318 69.1737 187.372 70.6268 187.183C70.8543 187.154 70.5026 187.453 71.2302 187.237C74.6834 186.219 78.3283 185.129 82.002 184.62C83.3031 184.448 82.6765 184.832 84.0422 184.711C85.4025 184.584 88.1291 184.414 89.5707 184.265C91.0084 184.114 89.4146 183.658 91.6035 183.638C97.1329 183.642 102.872 185.019 107.673 188.116C110.949 190.212 114.017 192.612 116.842 195.305C117.842 196.278 117.134 195.342 118.582 196.797C124.205 201.977 130.59 213.671 132.001 219.985C133.307 224.959 131.155 218.876 132.22 222.641C132.719 224.455 133.763 226.27 133.898 226.694C134.521 228.654 134.962 230.355 135.421 231.893L131.536 232.051C131.98 230.23 132.375 228.453 132.707 226.394C132.833 225.6 132.484 226.341 132.594 225.662C132.964 223.346 133.452 220.912 133.797 218.673C133.951 217.673 133.76 217.829 133.922 216.905C134.309 214.702 134.701 212.752 135.233 210.616C135.282 210.421 135.247 211.783 135.544 210.147C136.028 207.495 136.808 204.235 137.359 201.158C137.525 200.247 137.161 200.12 137.9 198.244C138.06 197.853 138.342 198.48 138.583 196.134C138.609 195.741 139.231 191.806 140.248 190.083C140.503 189.636 141.31 188.534 141.696 187.473C141.748 187.327 141.32 187.82 141.673 186.941C142.928 183.859 144.621 180.732 146.761 177.908C147.338 177.16 146.285 178.128 147.17 177.018C148.595 175.261 150.534 173.422 152.734 172.038C154.336 171.022 156.029 170.27 157.549 169.74C158.892 169.288 158.025 169.779 158.13 169.76C159.757 169.522 160.576 168.913 161.096 168.759C164.332 167.855 166.868 167.797 169.862 167.603C170.694 167.557 170.097 167.384 170.262 167.36C171.967 167.141 170.702 167.525 171.784 167.545C174.812 167.615 178.149 167.792 181.155 168.077C182.26 168.183 181.043 167.826 182.035 167.927C187.908 168.533 193.899 169.709 199.408 171.088C200.459 171.352 199.755 171.371 199.966 171.46C201.383 172.07 203.686 172.231 204.167 172.311C206.483 172.7 207.338 173.079 209.314 173.505C209.599 173.566 209.867 173.622 210.117 173.671C210.402 173.729 210.675 173.781 210.909 173.821L209.022 177.652C201.518 171.136 193.853 162.023 189.024 154.203C182.413 143.419 178.694 133.849 177.655 121.626C177.603 120.847 177.419 121.649 177.374 120.974C177.313 119.982 177.281 118.997 177.278 118C177.372 109.62 181.693 102.677 186.263 96.6355C186.7 96.0724 185.89 96.7397 186.587 95.8377C188.022 93.9807 189.998 91.7781 191.678 90.1405C192.498 89.3414 191.567 90.5741 192.39 89.7706C194.308 87.9057 196.393 85.9553 198.415 84.1177C199.28 83.3336 197.809 84.3281 198.947 83.325C204.09 78.8235 209.496 74.7115 215.224 71.0427L216.5 75.3367C213.284 75.3171 209.849 75.5232 206.408 75.5911C205.687 75.6067 205.071 75.181 203.559 75.33C203.452 75.4615 203.463 75.6107 203.42 75.7484C188.787 76.3709 172.353 75.2614 160.213 64.7527C159.717 64.3128 160.415 65.2608 159.454 64.3979C157.447 62.5641 155.662 60.5312 154.115 58.3193C151.551 54.6515 149.214 50.8294 147.122 46.724C146.799 46.0823 147.338 46.2004 146.289 44.3694C146.095 44.0466 144.593 41.2359 144.158 40.5354C144.097 40.4399 144.173 41.0541 143.716 40.128C141.08 34.7618 138.743 28.9319 136.943 23.2552C136.652 22.3314 137.182 23.2394 136.978 22.5826C135.538 17.9539 133.956 12.8976 133.175 8.3106C132.673 5.2419 133.268 6.28707 133.324 4.60871C133.328 4.37143 133.029 2.47421 133.23 2.35575C133.716 2.03423 134.422 2.83893 134.924 2.38804C135.023 2.29756 134.562 -0.147749 135.047 1.26082C135.075 1.35985 135.44 3.13807 135.618 3.55592C135.737 3.8471 135.855 3.26538 136.047 3.86892C136.244 4.48429 136.188 5.18609 136.496 6.1979C136.809 7.2005 136.941 6.70063 137.424 8.73923ZM25.4137 133.92C26.9387 134.685 27.432 134.069 25.6417 133.615C25.5547 133.594 25.3347 133.882 25.4137 133.92ZM78.4726 63.9636C76.2084 63.7668 74.6731 64.1576 76.2657 64.4432C77.8873 64.6975 79.1702 64.0111 78.4726 63.9636ZM99.6814 55.2557C97.4529 56.6029 97.7076 57.7148 99.8594 55.8577C99.9826 55.7484 99.811 55.1745 99.6814 55.2557ZM135.026 12.021C135.026 11.9906 134.714 10.6721 134.696 10.6328C134.292 9.97776 134.924 12.6486 135.026 12.021ZM114.827 38.2791C114.264 38.8556 113.028 40.8467 113.763 40.1333C114.372 39.5469 115.542 37.5585 114.827 38.2791ZM34.9807 205.965C34.9646 205.977 34.7265 206.329 34.5863 206.559L34.4551 206.406C34.5854 206.336 34.681 206.275 34.6653 206.258C34.6271 206.217 34.519 206.231 34.3901 206.27L34.7108 206.643C34.9656 206.371 35.2805 205.756 34.9807 205.965ZM132.579 4.01999C130.371 9.29379 128.166 12.086 130.697 6.43555C131.148 5.41067 130.015 8.76488 130.643 7.48522C131.795 5.12752 131.938 3.32602 133.202 0.935598C133.434 0.50556 132.708 3.7285 132.577 4.02978C132.577 4.02653 132.578 4.02325 132.579 4.01999ZM26.0266 135.095C26.0559 135.115 27.3255 135.59 27.3584 135.593C28.131 135.624 25.5707 134.664 26.0266 135.095ZM86.7206 186.42C86.7987 186.409 89.9092 186.255 90.0118 186.261C91.6435 185.785 85.2907 186.076 86.7206 186.42ZM50.8183 92.7046C50.6096 91.2522 50.4415 89.564 50.5676 88.3746C50.7565 89.8064 50.8552 91.2578 50.8183 92.7046Z" fill="#F8D556"/>
</svg>
