<svg width="505" height="695" viewBox="0 0 505 695" fill="none" xmlns="http://www.w3.org/2000/svg">
<circle cx="84" cy="307" r="83.5" fill="#BD8DDB" stroke="#883FAC"/>
<circle cx="130" cy="437" r="83.5" fill="#BD8DDB" stroke="#883FAC"/>
<circle cx="421" cy="269" r="83.5" fill="#BD8DDB" stroke="#883FAC"/>
<circle cx="183" cy="242" r="83.5" fill="#BD8DDB" stroke="#883FAC"/>
<circle cx="214" cy="391" r="83.5" fill="#BD8DDB" stroke="#883FAC"/>
<circle cx="416" cy="391" r="83.5" fill="#BD8DDB" stroke="#883FAC"/>
<circle cx="369" cy="510" r="83.5" fill="#BD8DDB" stroke="#883FAC"/>
<circle cx="228" cy="527" r="83.5" fill="#BD8DDB" stroke="#883FAC"/>
<circle cx="285" cy="611" r="83.5" fill="#BD8DDB" stroke="#883FAC"/>
<circle cx="291" cy="398" r="83.5" fill="#BD8DDB" stroke="#883FAC"/>
<path d="M250.621 214.534C263.421 157.734 237.121 95.0342 195.621 40.5342C191.121 32.0342 212.121 12.5342 225.121 16.5342L225.254 16.7296C251.011 54.5292 315.726 149.5 293.121 210.534C288.121 224.034 270.121 228.534 250.621 214.534Z" fill="#386E4B"/>
<path d="M195.621 40.5342C237.121 95.0342 263.421 157.734 250.621 214.534C270.121 228.534 288.121 224.034 293.121 210.534C315.765 149.394 250.788 54.2009 225.121 16.5342M195.621 40.5342C206.5 42 227.5 26 225.121 16.5342M195.621 40.5342C191.121 32.0342 212.121 12.5342 225.121 16.5342" stroke="#284430"/>
<circle cx="303" cy="269" r="83.5" fill="#BD8DDB" stroke="#883FAC"/>
<path d="M267 108.562C288 13.062 376.5 -2.43795 417 1.56205C413.5 46.062 353.5 129.062 267 108.562Z" fill="#386E4B"/>
<path d="M267 108.562C288 13.062 376.5 -2.43795 417 1.56205C413.5 46.062 353.5 129.062 267 108.562ZM267 108.562C301.8 66.162 369.833 26.562 399.5 12.062" stroke="#284430"/>
</svg>
