<svg width="1528" height="2210" viewBox="0 0 1528 2210" fill="none" xmlns="http://www.w3.org/2000/svg">
<path d="M710 65.9998C704 89.9999 714 189 673 385C697.333 394.667 748 413.6 756 412C766 410 981 354 986 352C990 350.4 1062.33 297.333 1098 271C1159 264 1098 239 1048 182C996.294 123.055 958 49.5 929 15.5C902.512 -15.5547 891 17.5433 818 35C764 47.9132 718.409 32.3651 710 65.9998Z" fill="#D4C597" stroke="#B3A16B" stroke-width="5"/>
<path d="M690.5 287L675.5 368L716 418L853 388.5L961.5 338L1101 275.5L1108.5 260.5L1099.5 229.5C1087 220.5 1067 201.5 1047 180.5C974.5 232 784.5 287 690.5 287Z" fill="#883FAC" stroke="#672A85" stroke-width="5"/>
<path d="M466 398C493 518 803 595 950 518L1088 462C1107 462 1248 401 1313 225C1336.72 160.765 1347.15 -0.555038 1263 93.9998C1166 203 1042 276 837 338C579 416.029 447.097 313.987 466 398Z" fill="#D4C597" stroke="#B3A16B" stroke-width="5"/>
<path d="M764 1055C750 1103 672 1106.5 672 1106.5M662.268 1769.3C747.855 1778.58 826.189 1775.72 894.02 1762.89M761.6 1054.3C754.966 1077.04 733.048 1089.56 711.98 1096.37C701.529 1099.75 691.489 1101.66 684.052 1102.73C680.337 1103.26 677.281 1103.58 675.16 1103.77C674.1 1103.86 673.274 1103.92 672.717 1103.95C672.439 1103.97 672.227 1103.98 672.088 1103.99C672.018 1104 671.966 1104 671.933 1104L671.896 1104L671.889 1104L671.887 1104C671.888 1104 671.888 1104 672 1106.5C672.112 1109 672.113 1109 672.114 1109L672.119 1109L672.132 1109L672.181 1108.99C672.222 1108.99 672.282 1108.99 672.361 1108.98C672.517 1108.98 672.745 1108.96 673.042 1108.94C673.634 1108.91 674.497 1108.84 675.597 1108.75C677.797 1108.55 680.944 1108.22 684.76 1107.68C692.386 1106.59 702.721 1104.62 713.52 1101.13C734.952 1094.19 759.034 1080.96 766.4 1055.7C769.935 1043.58 776.323 1020.78 776.973 986.668L776.978 986.666L777 985.034C777.689 934.069 774.307 872.481 770.76 818.195C769.873 804.613 768.976 791.497 768.13 779.121C765.587 741.936 763.5 711.425 763.5 695V694.912L763.494 694.824C758.539 624.463 745.746 539.415 724.139 458.066C797.85 447.243 857.201 437.995 927.701 417.4C972.336 404.36 1018.98 385.877 1054.88 371.154C1061.13 368.591 1067.05 366.144 1072.57 363.86C1082.94 359.573 1091.93 355.858 1099.12 353.022C1104.63 350.847 1109.02 349.217 1112.12 348.25C1113.69 347.762 1114.84 347.472 1115.6 347.351C1115.67 347.339 1115.74 347.329 1115.8 347.322C1134.93 365.961 1170.71 401.315 1201.83 438.845C1217.53 457.793 1232 477.237 1242.53 495.32C1253.1 513.485 1259.5 529.941 1259.5 543V543.321L1259.58 543.632C1266.07 568.489 1263.05 585.749 1255.53 599.277C1247.92 612.965 1235.58 623.1 1222.74 633.494L1221.99 634.098C1209.52 644.186 1196.65 654.6 1188.47 668.657C1180.38 682.56 1176.98 699.812 1182.33 723.483C1148.26 723.127 1115.77 717.11 1088.54 711.06C1081.53 709.501 1074.87 707.941 1068.62 706.476L1068.23 706.385C1062.13 704.956 1056.42 703.617 1051.18 702.465C1040.53 700.126 1031.56 698.5 1025 698.5C1018.26 698.5 1012.63 700.334 1007.97 704.045C1003.36 707.719 999.901 713.079 997.182 719.814C991.776 733.199 989.007 752.808 986.512 777.751C983.985 803.027 986.012 853.495 992.141 907.034C998.272 960.586 1008.55 1017.58 1022.65 1055.86C1036.8 1094.27 1067.34 1137.08 1096.97 1175.69C1103.84 1184.65 1110.65 1193.36 1117.2 1201.74C1124.85 1211.52 1132.15 1220.87 1138.83 1229.67C1151.22 1246 1161.19 1260.14 1166.77 1271.13C1198.45 1333.49 1202.48 1426.9 1192.53 1487.6C1182.62 1548.06 1144.9 1628.48 1075.44 1684.05C1031.44 1719.25 970.407 1745.51 896.523 1759.87C896.522 1759.87 896.521 1759.87 896.52 1759.87C827.43 1773.29 747.18 1776.28 659.278 1766.46C645.171 1764.88 630.868 1762.98 616.383 1760.73C616.368 1760.73 616.353 1760.73 616.338 1760.72C589.349 1756.54 561.729 1751.17 533.571 1744.57L532.429 1749.43C558.892 1755.64 584.888 1760.76 610.34 1764.84C579.716 1791.22 552.186 1804.08 528.404 1809.92C503.582 1816.02 482.68 1814.5 466.301 1812.52C458.618 1811.59 449.072 1807.46 438.592 1800.11C428.148 1792.78 416.932 1782.37 405.923 1769.12C384.99 1743.92 364.902 1708.55 352.311 1664.91C367.614 1675.73 386.735 1687.47 402.677 1696.87C411.703 1702.19 419.731 1706.77 425.503 1710.02C428.389 1711.64 430.712 1712.94 432.314 1713.82C433.115 1714.27 433.736 1714.61 434.157 1714.84C434.368 1714.96 434.528 1715.04 434.637 1715.1L434.759 1715.17L434.791 1715.19L434.799 1715.19L434.801 1715.19C434.801 1715.19 434.802 1715.19 436 1713C437.198 1710.81 437.198 1710.81 437.198 1710.81L437.196 1710.8L437.189 1710.8L437.159 1710.78L437.039 1710.72C436.933 1710.66 436.775 1710.57 436.566 1710.46C436.149 1710.23 435.533 1709.89 434.737 1709.45C433.144 1708.57 430.832 1707.28 427.957 1705.66C422.206 1702.42 414.208 1697.86 405.216 1692.56C387.211 1681.95 365.309 1668.43 349.492 1656.7C349.491 1656.7 349.49 1656.7 349.489 1656.7C258.69 1589.36 173.89 1509.34 82.056 1376.58L81.4347 1375.68L80.3536 1375.53C58.372 1372.39 35.4726 1356.56 21.4118 1342.19C17.9205 1338.62 15.018 1335.19 12.84 1332.12C10.6375 1329.01 9.27102 1326.41 8.71228 1324.49C8.43351 1323.54 8.40275 1322.91 8.45458 1322.55C8.49489 1322.27 8.56769 1322.22 8.59069 1322.2L8.59431 1322.2C8.6664 1322.15 8.9771 1321.96 9.80856 1321.92C10.6342 1321.89 11.8035 1322.02 13.3833 1322.42C14.7699 1322.78 16.6585 1323.42 19.0138 1324.23C31.4933 1328.52 57.0753 1337.31 90.5024 1330.45L97.0407 1329.11L91.2301 1325.82C80.1131 1319.54 67.09 1307.31 54.428 1292.56C41.8055 1277.86 29.7017 1260.85 20.3982 1245.22C11.0368 1229.49 4.70139 1215.47 3.31323 1206.67C2.97077 1204.5 2.95649 1202.8 3.19061 1201.54C3.42089 1200.31 3.85614 1199.66 4.29982 1199.31C4.74235 1198.96 5.52559 1198.64 6.97811 1198.71C8.45312 1198.78 10.4485 1199.25 13.0534 1200.31C35.4949 1209.49 68.1248 1213.25 98.5839 1213.75C129.051 1214.25 157.827 1211.5 172.665 1207.41C186.466 1203.6 215.58 1190.2 244.861 1176.03C261.028 1168.21 277.211 1160.18 291.106 1153.28C302.596 1147.57 312.522 1142.64 319.582 1139.25C369.353 1115.36 426.646 1097.92 518.668 1072.41C566.181 1059.24 686.91 1024.35 771.923 988.797C771.058 1021.05 764.998 1042.65 761.6 1054.3ZM664.147 1772.02C748.386 1780.96 825.626 1778.17 892.76 1765.67C860.817 1834.72 804.135 1850 777.5 1850C751.143 1850 708.695 1835.76 664.147 1772.02ZM1116.21 347.292C1116.24 347.294 1116.24 347.297 1116.19 347.291C1116.2 347.291 1116.21 347.291 1116.21 347.292Z" fill="#FFFDEB" stroke="#DFDBBB" stroke-width="5"/>
<path d="M451 2094C450.751 2089.7 454.333 1894.17 458 1791.5C461.5 1793 471 1797 480 1797L469.5 2056.5C480.5 2063.5 544.814 2026.83 573.5 2005.5C575 2026.5 590.5 2094 650.5 2094C611.5 2099 593 2169 627.5 2207C597.167 2190.83 531.8 2166.6 513 2199C477 2172 453 2128.5 451 2094Z" fill="#DC894A"/>
<path d="M773 2069.29C772.751 2064.99 773.333 1927.67 777 1825C785 1826.5 792 1827 800 1824L791.5 2031.79C802.5 2038.79 866.814 2002.12 895.5 1980.79C897 2001.79 912.5 2069.29 972.5 2069.29C933.5 2074.29 915 2144.29 949.5 2182.29C919.167 2166.12 853.8 2141.89 835 2174.29C799 2147.29 775 2103.79 773 2069.29Z" fill="#DC894A"/>
<path d="M1259.5 536.289C1227 626.289 1111.5 706.961 1138 723C1176 746 1263 755 1315 759C1356.48 762.191 1408.58 760.158 1455 741C1488 727.381 1539.49 701.619 1521 674C1510.71 658.628 1460 668.289 1427.5 661.789C1395 655.289 1371.5 648.789 1345.5 626.289C1319.5 603.789 1316.51 603.235 1291.5 572.789C1280.41 559.289 1259.5 532.956 1259.5 536.289Z" fill="#DC894A"/>
<path d="M451 2094C450.751 2089.7 454.333 1894.17 458 1791.5C461.5 1793 471 1797 480 1797L469.5 2056.5C480.5 2063.5 544.814 2026.83 573.5 2005.5C575 2026.5 590.5 2094 650.5 2094C611.5 2099 593 2169 627.5 2207C597.167 2190.83 531.8 2166.6 513 2199C477 2172 453 2128.5 451 2094Z" stroke="#C57C44" stroke-width="5"/>
<path d="M773 2069.29C772.751 2064.99 773.333 1927.67 777 1825C785 1826.5 792 1827 800 1824L791.5 2031.79C802.5 2038.79 866.814 2002.12 895.5 1980.79C897 2001.79 912.5 2069.29 972.5 2069.29C933.5 2074.29 915 2144.29 949.5 2182.29C919.167 2166.12 853.8 2141.89 835 2174.29C799 2147.29 775 2103.79 773 2069.29Z" stroke="#C57C44" stroke-width="5"/>
<path d="M1259.5 536.289C1227 626.289 1111.5 706.961 1138 723C1176 746 1263 755 1315 759C1356.48 762.191 1408.58 760.158 1455 741C1488 727.381 1539.49 701.619 1521 674C1510.71 658.628 1460 668.289 1427.5 661.789C1395 655.289 1371.5 648.789 1345.5 626.289C1319.5 603.789 1316.51 603.235 1291.5 572.789C1280.41 559.289 1259.5 532.956 1259.5 536.289Z" stroke="#C57C44" stroke-width="5"/>
<path d="M667 458C815 458 1085 381 1167 305" stroke="#B3A16B" stroke-width="8"/>
<path d="M917.838 1407.55C879.935 1543.36 685.352 1626.97 569.882 1565.28M719.163 1461.89C637.713 1600.83 416.009 1604.87 363.7 1482.55M546.653 1446.76C359.167 1578.17 227.352 1381.21 227.514 1355.25C227.676 1329.28 312.502 1370.71 442.114 1310.67C508.094 1280.11 548.742 1272.59 595.44 1276.61" stroke="#DFDBBB" stroke-width="5"/>
<ellipse cx="1095" cy="488" rx="23" ry="30" fill="black"/>
</svg>
