<svg width="296" height="296" viewBox="0 0 296 296" fill="none" xmlns="http://www.w3.org/2000/svg">
<rect x="5" y="5" width="286" height="286" fill="#F4A127" stroke="#FFDBAD" stroke-width="10"/>
<path d="M94.8991 48.752L95.3471 52.592H95.4751L95.9871 48.72L99.2511 35.6H103.507L96.7231 58.16H93.6511L86.8031 35.6H91.5711L94.8991 48.752ZM106.244 46.8C106.244 43.0027 106.894 40.112 108.196 38.128C109.497 36.144 111.481 35.152 114.148 35.152C115.534 35.152 116.729 35.4293 117.732 35.984C118.734 36.5173 119.556 37.296 120.196 38.32C120.836 39.3227 121.305 40.5493 121.604 42C121.924 43.4293 122.084 45.0293 122.084 46.8C122.084 50.5973 121.412 53.488 120.068 55.472C118.745 57.456 116.772 58.448 114.148 58.448C112.74 58.448 111.534 58.1813 110.532 57.648C109.55 57.0933 108.74 56.3147 108.1 55.312C107.46 54.288 106.99 53.0613 106.692 51.632C106.393 50.1813 106.244 48.5707 106.244 46.8ZM110.468 46.8C110.468 47.9307 110.532 48.9867 110.66 49.968C110.788 50.928 111.001 51.76 111.3 52.464C111.598 53.168 111.972 53.7227 112.42 54.128C112.889 54.5333 113.465 54.736 114.148 54.736C115.385 54.736 116.313 54.1067 116.932 52.848C117.55 51.5893 117.86 49.5733 117.86 46.8C117.86 45.712 117.796 44.688 117.668 43.728C117.54 42.7467 117.326 41.904 117.028 41.2C116.75 40.4747 116.377 39.9093 115.908 39.504C115.438 39.0773 114.852 38.864 114.148 38.864C111.694 38.864 110.468 41.5093 110.468 46.8ZM140.027 57.104C139.472 57.5733 138.726 57.9147 137.787 58.128C136.87 58.3413 135.952 58.448 135.035 58.448C133.883 58.448 132.806 58.256 131.803 57.872C130.822 57.4667 129.958 56.8053 129.211 55.888C128.464 54.9707 127.878 53.7653 127.451 52.272C127.024 50.7787 126.811 48.944 126.811 46.768C126.811 44.5067 127.046 42.6293 127.515 41.136C128.006 39.6427 128.635 38.4587 129.403 37.584C130.192 36.688 131.088 36.0587 132.091 35.696C133.094 35.3333 134.107 35.152 135.131 35.152C136.176 35.152 137.083 35.2373 137.851 35.408C138.64 35.5787 139.28 35.7707 139.771 35.984L138.971 39.536C138.566 39.3227 138.086 39.1627 137.531 39.056C136.998 38.928 136.358 38.864 135.611 38.864C134.139 38.864 133.008 39.504 132.219 40.784C131.43 42.064 131.035 44.0693 131.035 46.8C131.035 47.9733 131.12 49.0507 131.291 50.032C131.483 50.992 131.771 51.824 132.155 52.528C132.56 53.232 133.062 53.776 133.659 54.16C134.278 54.544 135.014 54.736 135.867 54.736C136.614 54.736 137.254 54.64 137.787 54.448C138.32 54.2347 138.8 53.9893 139.227 53.712L140.027 57.104ZM152.665 52.944H147.385L146.073 58H142.073L148.569 35.44H151.737L158.265 58H154.041L152.665 52.944ZM148.249 49.616H151.961L150.681 44.4L150.169 40.88H150.041L149.497 44.432L148.249 49.616ZM174.425 58H162.521V35.6H166.553V54.288H174.425V58ZM186.803 52.24C186.803 51.5573 186.6 50.9813 186.195 50.512C185.79 50.0213 185.278 49.5627 184.659 49.136C184.062 48.7093 183.4 48.272 182.675 47.824C181.971 47.376 181.31 46.8533 180.691 46.256C180.094 45.6587 179.592 44.9547 179.187 44.144C178.782 43.3333 178.579 42.3413 178.579 41.168C178.579 40.08 178.739 39.1627 179.059 38.416C179.4 37.648 179.859 37.0293 180.435 36.56C181.011 36.0693 181.694 35.7173 182.483 35.504C183.272 35.2693 184.115 35.152 185.011 35.152C186.099 35.152 187.112 35.2587 188.051 35.472C188.99 35.6853 189.768 35.9733 190.387 36.336L189.139 39.888C188.776 39.632 188.232 39.3973 187.507 39.184C186.803 38.9707 186.035 38.864 185.203 38.864C184.371 38.864 183.731 39.0347 183.283 39.376C182.835 39.7173 182.611 40.2187 182.611 40.88C182.611 41.4773 182.814 42.0107 183.219 42.48C183.624 42.928 184.126 43.3653 184.723 43.792C185.342 44.2187 186.003 44.6667 186.707 45.136C187.432 45.584 188.094 46.1173 188.691 46.736C189.31 47.3333 189.822 48.048 190.227 48.88C190.632 49.6907 190.835 50.6613 190.835 51.792C190.835 52.9227 190.664 53.904 190.323 54.736C190.003 55.568 189.534 56.2613 188.915 56.816C188.318 57.3493 187.592 57.7547 186.739 58.032C185.886 58.3093 184.936 58.448 183.891 58.448C182.568 58.448 181.406 58.32 180.403 58.064C179.422 57.808 178.664 57.52 178.131 57.2L179.443 53.584C179.87 53.84 180.456 54.096 181.203 54.352C181.95 54.608 182.75 54.736 183.603 54.736C185.736 54.736 186.803 53.904 186.803 52.24ZM195.522 55.92C195.522 55.1947 195.735 54.6293 196.162 54.224C196.588 53.7973 197.122 53.584 197.762 53.584C198.572 53.584 199.191 53.872 199.618 54.448C200.066 55.024 200.29 55.824 200.29 56.848C200.29 57.7867 200.151 58.5973 199.874 59.28C199.618 59.9627 199.298 60.528 198.914 60.976C198.53 61.4453 198.114 61.8187 197.666 62.096C197.239 62.3733 196.866 62.576 196.546 62.704L195.362 61.168C195.852 60.912 196.29 60.496 196.674 59.92C197.058 59.3653 197.271 58.8 197.314 58.224C196.866 58.2453 196.45 58.0747 196.066 57.712C195.703 57.328 195.522 56.7307 195.522 55.92ZM101.003 87.416H107.915V97.336C107.126 98.0827 106.198 98.6267 105.131 98.968C104.086 99.288 103.041 99.448 101.995 99.448C100.737 99.448 99.5954 99.224 98.5714 98.776C97.5474 98.328 96.6727 97.6347 95.9474 96.696C95.2434 95.736 94.6887 94.5307 94.2834 93.08C93.8994 91.608 93.7074 89.848 93.7074 87.8C93.7074 85.6667 93.942 83.864 94.4114 82.392C94.8807 80.92 95.4994 79.7253 96.2674 78.808C97.0567 77.8693 97.9634 77.1973 98.9874 76.792C100.033 76.3653 101.131 76.152 102.283 76.152C103.307 76.152 104.235 76.248 105.067 76.44C105.921 76.6107 106.625 76.8133 107.179 77.048L106.347 80.536C105.921 80.344 105.419 80.184 104.843 80.056C104.289 79.928 103.606 79.864 102.795 79.864C102.049 79.864 101.366 80.0133 100.747 80.312C100.15 80.6107 99.638 81.08 99.2114 81.72C98.806 82.36 98.486 83.192 98.2514 84.216C98.038 85.2187 97.9314 86.424 97.9314 87.832C97.9314 90.5413 98.3367 92.536 99.1474 93.816C99.9794 95.096 101.067 95.736 102.411 95.736C102.838 95.736 103.243 95.672 103.627 95.544C104.033 95.416 104.385 95.2133 104.683 94.936V90.36L101.003 89.848V87.416ZM123.05 76.6H126.858V91.128C126.858 94.0293 126.261 96.1307 125.066 97.432C123.893 98.7333 122.261 99.384 120.17 99.384C117.717 99.384 115.914 98.7547 114.762 97.496C113.631 96.216 113.066 94.2747 113.066 91.672V76.6H117.098V90.968C117.098 92.7173 117.333 93.944 117.802 94.648C118.271 95.3307 119.05 95.672 120.138 95.672C121.183 95.672 121.93 95.3093 122.378 94.584C122.826 93.8373 123.05 92.632 123.05 90.968V76.6ZM132.863 76.6H136.895V99H132.863V76.6ZM156.488 80.312H151.176V99H147.144V80.312H141.832V76.6H156.488V80.312ZM167.983 93.944H162.703L161.391 99H157.391L163.887 76.44H167.055L173.583 99H169.359L167.983 93.944ZM163.567 90.616H167.279L165.999 85.4L165.487 81.88H165.359L164.815 85.432L163.567 90.616ZM177.838 76.824C178.713 76.632 179.651 76.4933 180.654 76.408C181.657 76.3227 182.521 76.28 183.246 76.28C184.163 76.28 185.059 76.376 185.934 76.568C186.809 76.7387 187.577 77.0693 188.238 77.56C188.921 78.0293 189.465 78.68 189.87 79.512C190.297 80.3227 190.51 81.3573 190.51 82.616C190.51 84.4293 190.169 85.912 189.486 87.064C188.825 88.1947 187.907 88.9733 186.734 89.4L188.014 90.424L192.142 99H187.502L183.598 90.168L181.87 89.752V99H177.838V76.824ZM181.87 87H183.246C184.249 87 185.006 86.7013 185.518 86.104C186.03 85.4853 186.286 84.536 186.286 83.256C186.286 82.296 186.073 81.5173 185.646 80.92C185.219 80.3013 184.547 79.992 183.63 79.992C183.289 79.992 182.958 80.0027 182.638 80.024C182.318 80.0453 182.062 80.088 181.87 80.152V87ZM196.428 96.92C196.428 96.1947 196.641 95.6293 197.068 95.224C197.495 94.7973 198.028 94.584 198.668 94.584C199.479 94.584 200.097 94.872 200.524 95.448C200.972 96.024 201.196 96.824 201.196 97.848C201.196 98.7867 201.057 99.5973 200.78 100.28C200.524 100.963 200.204 101.528 199.82 101.976C199.436 102.445 199.02 102.819 198.572 103.096C198.145 103.373 197.772 103.576 197.452 103.704L196.268 102.168C196.759 101.912 197.196 101.496 197.58 100.92C197.964 100.365 198.177 99.8 198.22 99.224C197.772 99.2453 197.356 99.0747 196.972 98.712C196.609 98.328 196.428 97.7307 196.428 96.92ZM65.945 134.24C65.945 133.557 65.7423 132.981 65.337 132.512C64.9317 132.021 64.4197 131.563 63.801 131.136C63.2037 130.709 62.5423 130.272 61.817 129.824C61.113 129.376 60.4517 128.853 59.833 128.256C59.2357 127.659 58.7343 126.955 58.329 126.144C57.9237 125.333 57.721 124.341 57.721 123.168C57.721 122.08 57.881 121.163 58.201 120.416C58.5423 119.648 59.001 119.029 59.577 118.56C60.153 118.069 60.8357 117.717 61.625 117.504C62.4143 117.269 63.257 117.152 64.153 117.152C65.241 117.152 66.2543 117.259 67.193 117.472C68.1317 117.685 68.9103 117.973 69.529 118.336L68.281 121.888C67.9183 121.632 67.3743 121.397 66.649 121.184C65.945 120.971 65.177 120.864 64.345 120.864C63.513 120.864 62.873 121.035 62.425 121.376C61.977 121.717 61.753 122.219 61.753 122.88C61.753 123.477 61.9557 124.011 62.361 124.48C62.7663 124.928 63.2677 125.365 63.865 125.792C64.4837 126.219 65.145 126.667 65.849 127.136C66.5743 127.584 67.2357 128.117 67.833 128.736C68.4517 129.333 68.9637 130.048 69.369 130.88C69.7743 131.691 69.977 132.661 69.977 133.792C69.977 134.923 69.8063 135.904 69.465 136.736C69.145 137.568 68.6757 138.261 68.057 138.816C67.4597 139.349 66.7343 139.755 65.881 140.032C65.0277 140.309 64.0783 140.448 63.033 140.448C61.7103 140.448 60.5477 140.32 59.545 140.064C58.5637 139.808 57.8063 139.52 57.273 139.2L58.585 135.584C59.0117 135.84 59.5983 136.096 60.345 136.352C61.0917 136.608 61.8917 136.736 62.745 136.736C64.8783 136.736 65.945 135.904 65.945 134.24ZM74.5355 128.8C74.5355 125.003 75.1862 122.112 76.4875 120.128C77.7888 118.144 79.7728 117.152 82.4395 117.152C83.8262 117.152 85.0208 117.429 86.0235 117.984C87.0262 118.517 87.8475 119.296 88.4875 120.32C89.1275 121.323 89.5968 122.549 89.8955 124C90.2155 125.429 90.3755 127.029 90.3755 128.8C90.3755 132.597 89.7035 135.488 88.3595 137.472C87.0368 139.456 85.0635 140.448 82.4395 140.448C81.0315 140.448 79.8262 140.181 78.8235 139.648C77.8422 139.093 77.0315 138.315 76.3915 137.312C75.7515 136.288 75.2822 135.061 74.9835 133.632C74.6848 132.181 74.5355 130.571 74.5355 128.8ZM78.7595 128.8C78.7595 129.931 78.8235 130.987 78.9515 131.968C79.0795 132.928 79.2928 133.76 79.5915 134.464C79.8902 135.168 80.2635 135.723 80.7115 136.128C81.1808 136.533 81.7568 136.736 82.4395 136.736C83.6768 136.736 84.6048 136.107 85.2235 134.848C85.8422 133.589 86.1515 131.573 86.1515 128.8C86.1515 127.712 86.0875 126.688 85.9595 125.728C85.8315 124.747 85.6182 123.904 85.3195 123.2C85.0422 122.475 84.6688 121.909 84.1995 121.504C83.7302 121.077 83.1435 120.864 82.4395 120.864C79.9862 120.864 78.7595 123.509 78.7595 128.8ZM100.543 128.992L99.071 125.056H98.911L99.423 128.928V140H95.615V117.44H98.719L105.151 128.704L106.527 132.576H106.719L106.207 128.768V117.6H110.015V140.16H106.911L100.543 128.992ZM122.56 128.416H129.472V138.336C128.683 139.083 127.755 139.627 126.688 139.968C125.643 140.288 124.598 140.448 123.552 140.448C122.294 140.448 121.152 140.224 120.128 139.776C119.104 139.328 118.23 138.635 117.504 137.696C116.8 136.736 116.246 135.531 115.84 134.08C115.456 132.608 115.264 130.848 115.264 128.8C115.264 126.667 115.499 124.864 115.968 123.392C116.438 121.92 117.056 120.725 117.824 119.808C118.614 118.869 119.52 118.197 120.544 117.792C121.59 117.365 122.688 117.152 123.84 117.152C124.864 117.152 125.792 117.248 126.624 117.44C127.478 117.611 128.182 117.813 128.736 118.048L127.904 121.536C127.478 121.344 126.976 121.184 126.4 121.056C125.846 120.928 125.163 120.864 124.352 120.864C123.606 120.864 122.923 121.013 122.304 121.312C121.707 121.611 121.195 122.08 120.768 122.72C120.363 123.36 120.043 124.192 119.808 125.216C119.595 126.219 119.488 127.424 119.488 128.832C119.488 131.541 119.894 133.536 120.704 134.816C121.536 136.096 122.624 136.736 123.968 136.736C124.395 136.736 124.8 136.672 125.184 136.544C125.59 136.416 125.942 136.213 126.24 135.936V131.36L122.56 130.848V128.416ZM139.839 129.92L140.159 133.952H140.287L140.639 129.856L143.647 117.6H146.463L149.375 129.92L149.727 133.952H149.855L150.207 129.856L152.191 117.6H156.287L151.263 140.16H148.415L145.279 127.808L144.863 124.32H144.703L144.319 127.84L141.183 140.16H138.207L133.215 117.6H137.663L139.839 129.92ZM160.536 117.824C161.411 117.632 162.35 117.493 163.352 117.408C164.355 117.323 165.219 117.28 165.944 117.28C166.862 117.28 167.758 117.376 168.632 117.568C169.507 117.739 170.275 118.069 170.936 118.56C171.619 119.029 172.163 119.68 172.568 120.512C172.995 121.323 173.208 122.357 173.208 123.616C173.208 125.429 172.867 126.912 172.184 128.064C171.523 129.195 170.606 129.973 169.432 130.4L170.712 131.424L174.84 140H170.2L166.296 131.168L164.568 130.752V140H160.536V117.824ZM164.568 128H165.944C166.947 128 167.704 127.701 168.216 127.104C168.728 126.485 168.984 125.536 168.984 124.256C168.984 123.296 168.771 122.517 168.344 121.92C167.918 121.301 167.246 120.992 166.328 120.992C165.987 120.992 165.656 121.003 165.336 121.024C165.016 121.045 164.76 121.088 164.568 121.152V128ZM179.862 117.6H183.894V140H179.862V117.6ZM203.487 121.312H198.175V140H194.143V121.312H188.831V117.6H203.487V121.312ZM208.051 117.6H219.251V121.312H212.083V126.816H218.579V130.528H212.083V136.288H219.379V140H208.051V117.6ZM224.681 117.824C225.556 117.632 226.495 117.493 227.497 117.408C228.5 117.323 229.364 117.28 230.089 117.28C231.007 117.28 231.903 117.376 232.777 117.568C233.652 117.739 234.42 118.069 235.081 118.56C235.764 119.029 236.308 119.68 236.713 120.512C237.14 121.323 237.353 122.357 237.353 123.616C237.353 125.429 237.012 126.912 236.329 128.064C235.668 129.195 234.751 129.973 233.577 130.4L234.857 131.424L238.985 140H234.345L230.441 131.168L228.713 130.752V140H224.681V117.824ZM228.713 128H230.089C231.092 128 231.849 127.701 232.361 127.104C232.873 126.485 233.129 125.536 233.129 124.256C233.129 123.296 232.916 122.517 232.489 121.92C232.063 121.301 231.391 120.992 230.473 120.992C230.132 120.992 229.801 121.003 229.481 121.024C229.161 121.045 228.905 121.088 228.713 121.152V128ZM112.272 196.16C111.563 195.264 110.966 194.275 110.48 193.192C110.014 192.128 109.631 191.036 109.332 189.916C109.034 188.777 108.819 187.639 108.688 186.5C108.558 185.343 108.492 184.241 108.492 183.196C108.492 182.169 108.558 181.087 108.688 179.948C108.819 178.809 109.034 177.671 109.332 176.532C109.631 175.375 110.023 174.245 110.508 173.144C111.012 172.043 111.619 171.016 112.328 170.064L113.588 170.82C112.991 171.772 112.496 172.771 112.104 173.816C111.712 174.861 111.395 175.925 111.152 177.008C110.928 178.072 110.76 179.136 110.648 180.2C110.555 181.245 110.508 182.244 110.508 183.196C110.508 184.092 110.564 185.081 110.676 186.164C110.788 187.228 110.966 188.301 111.208 189.384C111.47 190.467 111.796 191.521 112.188 192.548C112.58 193.575 113.047 194.499 113.588 195.32L112.272 196.16ZM116.316 188.124H119.48V174.488L119.732 172.836L118.78 174.18L116.428 176.084L115.364 174.824L120.46 170.064H121.496V188.124H124.548V190H116.316V188.124ZM127.577 176.336C127.577 174.395 127.988 172.864 128.809 171.744C129.649 170.624 130.89 170.064 132.533 170.064C134.101 170.064 135.314 170.643 136.173 171.8C137.05 172.957 137.489 174.731 137.489 177.12C137.489 179.229 137.293 181.068 136.901 182.636C136.509 184.185 135.968 185.501 135.277 186.584C134.586 187.648 133.774 188.488 132.841 189.104C131.908 189.72 130.9 190.131 129.817 190.336L129.285 188.684C131.077 188.217 132.468 187.284 133.457 185.884C134.446 184.465 135.072 182.692 135.333 180.564C134.941 181.105 134.502 181.488 134.017 181.712C133.55 181.936 132.925 182.048 132.141 182.048C131.544 182.048 130.965 181.936 130.405 181.712C129.864 181.469 129.378 181.115 128.949 180.648C128.538 180.163 128.202 179.565 127.941 178.856C127.698 178.128 127.577 177.288 127.577 176.336ZM129.621 176.112C129.621 177.437 129.892 178.455 130.433 179.164C130.974 179.873 131.693 180.228 132.589 180.228C133.298 180.228 133.896 180.079 134.381 179.78C134.885 179.463 135.249 179.061 135.473 178.576C135.51 178.333 135.529 178.1 135.529 177.876C135.529 177.652 135.529 177.437 135.529 177.232C135.529 176.523 135.464 175.851 135.333 175.216C135.221 174.563 135.034 173.993 134.773 173.508C134.53 173.004 134.213 172.612 133.821 172.332C133.429 172.033 132.962 171.884 132.421 171.884C131.544 171.884 130.853 172.267 130.349 173.032C129.864 173.797 129.621 174.824 129.621 176.112ZM150.963 183.98H148.359V190H146.343V183.98H139.455V183.028L146.875 170.092H148.359V182.16H150.963V183.98ZM146.343 175.888L146.679 173.48H146.595L145.755 175.636L142.675 180.984L141.611 182.356L143.151 182.16H146.343V175.888ZM152.788 176.336C152.788 174.395 153.199 172.864 154.02 171.744C154.86 170.624 156.101 170.064 157.744 170.064C159.312 170.064 160.525 170.643 161.384 171.8C162.261 172.957 162.7 174.731 162.7 177.12C162.7 179.229 162.504 181.068 162.112 182.636C161.72 184.185 161.179 185.501 160.488 186.584C159.797 187.648 158.985 188.488 158.052 189.104C157.119 189.72 156.111 190.131 155.028 190.336L154.496 188.684C156.288 188.217 157.679 187.284 158.668 185.884C159.657 184.465 160.283 182.692 160.544 180.564C160.152 181.105 159.713 181.488 159.228 181.712C158.761 181.936 158.136 182.048 157.352 182.048C156.755 182.048 156.176 181.936 155.616 181.712C155.075 181.469 154.589 181.115 154.16 180.648C153.749 180.163 153.413 179.565 153.152 178.856C152.909 178.128 152.788 177.288 152.788 176.336ZM154.832 176.112C154.832 177.437 155.103 178.455 155.644 179.164C156.185 179.873 156.904 180.228 157.8 180.228C158.509 180.228 159.107 180.079 159.592 179.78C160.096 179.463 160.46 179.061 160.684 178.576C160.721 178.333 160.74 178.1 160.74 177.876C160.74 177.652 160.74 177.437 160.74 177.232C160.74 176.523 160.675 175.851 160.544 175.216C160.432 174.563 160.245 173.993 159.984 173.508C159.741 173.004 159.424 172.612 159.032 172.332C158.64 172.033 158.173 171.884 157.632 171.884C156.755 171.884 156.064 172.267 155.56 173.032C155.075 173.797 154.832 174.824 154.832 176.112ZM165.421 181.04H170.937V182.972H165.421V181.04ZM183.66 195.32C184.202 194.499 184.668 193.575 185.06 192.548C185.452 191.521 185.77 190.467 186.012 189.384C186.274 188.301 186.46 187.228 186.572 186.164C186.684 185.081 186.74 184.092 186.74 183.196C186.74 182.244 186.684 181.245 186.572 180.2C186.479 179.136 186.311 178.072 186.068 177.008C185.844 175.925 185.527 174.861 185.116 173.816C184.724 172.771 184.239 171.772 183.66 170.82L184.92 170.064C185.63 171.016 186.227 172.043 186.712 173.144C187.216 174.245 187.618 175.375 187.916 176.532C188.215 177.671 188.43 178.809 188.56 179.948C188.691 181.087 188.756 182.169 188.756 183.196C188.756 184.241 188.691 185.343 188.56 186.5C188.43 187.639 188.215 188.777 187.916 189.916C187.618 191.036 187.226 192.128 186.74 193.192C186.255 194.275 185.667 195.264 184.976 196.16L183.66 195.32ZM75.8623 225.244C75.3956 225.636 74.8076 225.916 74.0983 226.084C73.3889 226.252 72.6423 226.336 71.8583 226.336C70.8689 226.336 69.9543 226.149 69.1143 225.776C68.2743 225.403 67.5463 224.815 66.9303 224.012C66.3329 223.191 65.8663 222.136 65.5303 220.848C65.1943 219.56 65.0263 218.011 65.0263 216.2C65.0263 214.333 65.2129 212.756 65.5863 211.468C65.9783 210.18 66.4916 209.135 67.1263 208.332C67.7609 207.529 68.4889 206.951 69.3103 206.596C70.1503 206.241 71.0089 206.064 71.8863 206.064C72.7823 206.064 73.5196 206.129 74.0983 206.26C74.6956 206.391 75.2089 206.549 75.6383 206.736L75.1343 208.64C74.7609 208.435 74.3223 208.276 73.8183 208.164C73.3143 208.052 72.7356 207.996 72.0823 207.996C71.4289 207.996 70.8129 208.145 70.2343 208.444C69.6556 208.724 69.1423 209.191 68.6943 209.844C68.2463 210.479 67.8916 211.319 67.6303 212.364C67.3689 213.409 67.2383 214.688 67.2383 216.2C67.2383 218.925 67.7049 220.979 68.6383 222.36C69.5716 223.723 70.8129 224.404 72.3623 224.404C72.9969 224.404 73.5663 224.32 74.0703 224.152C74.5743 223.965 75.0036 223.751 75.3583 223.508L75.8623 225.244ZM85.2595 220.512H79.7155L78.1475 226H76.0755L81.9835 206.092H83.1315L89.0395 226H86.8555L85.2595 220.512ZM80.2755 218.636H84.7555L83.0475 212.588L82.5155 209.648H82.4595L81.9275 212.644L80.2755 218.636ZM100.398 226H90.9619V206.4H93.0619V224.068H100.398V226ZM103.003 206.4H105.103V226H103.003V206.4ZM109.118 206.4H117.826V208.332H111.218V215.248H117.378V217.18H111.218V226H109.118V206.4ZM120.097 216.2C120.097 212.877 120.629 210.357 121.693 208.64C122.757 206.923 124.381 206.064 126.565 206.064C127.741 206.064 128.739 206.307 129.561 206.792C130.382 207.259 131.045 207.931 131.549 208.808C132.071 209.685 132.454 210.749 132.697 212C132.939 213.251 133.061 214.651 133.061 216.2C133.061 219.523 132.519 222.043 131.437 223.76C130.373 225.477 128.749 226.336 126.565 226.336C125.407 226.336 124.418 226.103 123.597 225.636C122.775 225.151 122.103 224.469 121.581 223.592C121.058 222.715 120.675 221.651 120.433 220.4C120.209 219.149 120.097 217.749 120.097 216.2ZM122.309 216.2C122.309 217.301 122.383 218.347 122.533 219.336C122.701 220.325 122.953 221.193 123.289 221.94C123.625 222.687 124.063 223.284 124.605 223.732C125.146 224.18 125.799 224.404 126.565 224.404C127.965 224.404 129.029 223.732 129.757 222.388C130.485 221.044 130.849 218.981 130.849 216.2C130.849 215.117 130.765 214.081 130.597 213.092C130.447 212.103 130.205 211.235 129.869 210.488C129.533 209.723 129.094 209.116 128.553 208.668C128.011 208.22 127.349 207.996 126.565 207.996C125.183 207.996 124.129 208.668 123.401 210.012C122.673 211.356 122.309 213.419 122.309 216.2ZM136.052 206.596C136.668 206.447 137.34 206.344 138.068 206.288C138.814 206.213 139.496 206.176 140.112 206.176C140.84 206.176 141.53 206.269 142.184 206.456C142.837 206.624 143.406 206.923 143.892 207.352C144.377 207.763 144.76 208.313 145.04 209.004C145.338 209.676 145.488 210.525 145.488 211.552C145.488 213.101 145.161 214.343 144.508 215.276C143.873 216.209 143.024 216.835 141.96 217.152L143.024 218.188L146.888 226H144.452L140.252 217.46L138.152 217.04V226H136.052V206.596ZM138.152 215.64H139.832C140.896 215.64 141.736 215.313 142.352 214.66C142.968 214.007 143.276 213.008 143.276 211.664C143.276 210.637 143.014 209.788 142.492 209.116C141.988 208.444 141.232 208.108 140.224 208.108C139.85 208.108 139.458 208.127 139.048 208.164C138.656 208.183 138.357 208.22 138.152 208.276V215.64ZM152.501 213.568L151.297 210.488H151.213L151.521 213.568V226H149.505V206.092H150.765L158.017 218.804L159.165 221.744H159.277L158.969 218.804V206.4H160.985V226.308H159.697L152.501 213.568ZM164.991 206.4H167.091V226H164.991V206.4ZM178.638 220.512H173.094L171.526 226H169.454L175.362 206.092H176.51L182.418 226H180.234L178.638 220.512ZM173.654 218.636H178.134L176.426 212.588L175.894 209.648H175.838L175.306 212.644L173.654 218.636ZM184.104 224.796C184.104 224.329 184.234 223.956 184.496 223.676C184.776 223.396 185.13 223.256 185.56 223.256C186.045 223.256 186.437 223.452 186.736 223.844C187.053 224.236 187.212 224.852 187.212 225.692C187.212 226.308 187.128 226.859 186.96 227.344C186.81 227.848 186.605 228.287 186.344 228.66C186.101 229.033 185.83 229.341 185.532 229.584C185.233 229.827 184.944 230.004 184.664 230.116L183.964 229.164C184.206 229.033 184.43 228.856 184.636 228.632C184.86 228.427 185.037 228.193 185.168 227.932C185.317 227.671 185.429 227.391 185.504 227.092C185.578 226.812 185.616 226.532 185.616 226.252C185.242 226.364 184.897 226.289 184.58 226.028C184.262 225.767 184.104 225.356 184.104 224.796ZM203.145 206.4H205.161V219.532C205.161 221.903 204.695 223.62 203.761 224.684C202.847 225.729 201.54 226.252 199.841 226.252C197.863 226.252 196.416 225.739 195.501 224.712C194.605 223.685 194.157 222.108 194.157 219.98V206.4H196.257V218.888C196.257 219.896 196.323 220.745 196.453 221.436C196.584 222.127 196.799 222.687 197.097 223.116C197.396 223.545 197.769 223.853 198.217 224.04C198.665 224.227 199.216 224.32 199.869 224.32C201.101 224.32 201.951 223.891 202.417 223.032C202.903 222.173 203.145 220.792 203.145 218.888V206.4ZM208.619 223.396C208.973 223.639 209.468 223.872 210.103 224.096C210.756 224.301 211.493 224.404 212.315 224.404C213.36 224.404 214.209 224.152 214.863 223.648C215.516 223.125 215.843 222.313 215.843 221.212C215.843 220.484 215.656 219.849 215.283 219.308C214.909 218.767 214.443 218.272 213.883 217.824C213.323 217.357 212.716 216.909 212.063 216.48C211.428 216.032 210.831 215.547 210.271 215.024C209.711 214.483 209.244 213.867 208.871 213.176C208.497 212.485 208.311 211.655 208.311 210.684C208.311 209.116 208.777 207.959 209.711 207.212C210.663 206.447 211.895 206.064 213.407 206.064C214.34 206.064 215.171 206.148 215.899 206.316C216.627 206.484 217.215 206.699 217.663 206.96L216.991 208.808C216.655 208.603 216.169 208.416 215.535 208.248C214.919 208.08 214.2 207.996 213.379 207.996C212.371 207.996 211.624 208.248 211.139 208.752C210.653 209.237 210.411 209.853 210.411 210.6C210.411 211.253 210.597 211.832 210.971 212.336C211.344 212.84 211.811 213.316 212.371 213.764C212.931 214.212 213.528 214.669 214.163 215.136C214.816 215.584 215.423 216.088 215.983 216.648C216.543 217.208 217.009 217.843 217.383 218.552C217.756 219.261 217.943 220.101 217.943 221.072C217.943 222.715 217.457 224.003 216.487 224.936C215.516 225.869 214.144 226.336 212.371 226.336C211.251 226.336 210.327 226.233 209.599 226.028C208.889 225.823 208.32 225.589 207.891 225.328L208.619 223.396ZM228.267 220.512H222.723L221.155 226H219.083L224.991 206.092H226.139L232.047 226H229.863L228.267 220.512ZM223.283 218.636H227.763L226.055 212.588L225.523 209.648H225.467L224.935 212.644L223.283 218.636ZM84.3228 242.4H86.4228V257.604C86.4228 259.135 86.1708 260.301 85.6668 261.104C85.1814 261.888 84.3228 262.28 83.0908 262.28C82.7921 262.28 82.4281 262.243 81.9988 262.168C81.5881 262.093 81.2521 261.981 80.9907 261.832L81.4387 260.012C81.6254 260.124 81.8308 260.208 82.0548 260.264C82.2974 260.32 82.5401 260.348 82.7828 260.348C83.1188 260.348 83.3894 260.273 83.5948 260.124C83.8001 259.975 83.9588 259.769 84.0708 259.508C84.1828 259.228 84.2481 258.901 84.2668 258.528C84.3041 258.136 84.3228 257.697 84.3228 257.212V242.4ZM89.6767 252.2C89.6767 248.877 90.2087 246.357 91.2727 244.64C92.3367 242.923 93.9607 242.064 96.1447 242.064C97.3207 242.064 98.3193 242.307 99.1407 242.792C99.962 243.259 100.625 243.931 101.129 244.808C101.651 245.685 102.034 246.749 102.277 248C102.519 249.251 102.641 250.651 102.641 252.2C102.641 255.523 102.099 258.043 101.017 259.76C99.9527 261.477 98.3287 262.336 96.1447 262.336C94.9873 262.336 93.998 262.103 93.1767 261.636C92.3553 261.151 91.6833 260.469 91.1607 259.592C90.638 258.715 90.2553 257.651 90.0127 256.4C89.7887 255.149 89.6767 253.749 89.6767 252.2ZM91.8887 252.2C91.8887 253.301 91.9633 254.347 92.1127 255.336C92.2807 256.325 92.5327 257.193 92.8687 257.94C93.2047 258.687 93.6433 259.284 94.1847 259.732C94.726 260.18 95.3793 260.404 96.1447 260.404C97.5447 260.404 98.6087 259.732 99.3367 258.388C100.065 257.044 100.429 254.981 100.429 252.2C100.429 251.117 100.345 250.081 100.177 249.092C100.027 248.103 99.7847 247.235 99.4487 246.488C99.1127 245.723 98.674 245.116 98.1327 244.668C97.5913 244.22 96.9287 243.996 96.1447 243.996C94.7633 243.996 93.7087 244.668 92.9807 246.012C92.2527 247.356 91.8887 249.419 91.8887 252.2ZM106.052 242.4H108.152V262H106.052V242.4ZM115.163 249.568L113.959 246.488H113.875L114.183 249.568V262H112.167V242.092H113.427L120.679 254.804L121.827 257.744H121.939L121.631 254.804V242.4H123.647V262.308H122.359L115.163 249.568ZM127.233 242.4H135.941V244.332H129.333V250.968H135.409V252.9H129.333V260.068H136.081V262H127.233V242.4ZM139.237 242.4C139.536 242.344 139.863 242.307 140.217 242.288C140.591 242.251 140.964 242.232 141.337 242.232C141.711 242.213 142.075 242.204 142.429 242.204C142.803 242.185 143.148 242.176 143.465 242.176C144.828 242.176 145.985 242.409 146.937 242.876C147.889 243.343 148.664 244.015 149.261 244.892C149.859 245.751 150.288 246.787 150.549 248C150.811 249.213 150.941 250.567 150.941 252.06C150.941 253.404 150.811 254.692 150.549 255.924C150.307 257.156 149.887 258.239 149.289 259.172C148.692 260.105 147.899 260.852 146.909 261.412C145.939 261.972 144.716 262.252 143.241 262.252C142.999 262.252 142.691 262.243 142.317 262.224C141.944 262.224 141.552 262.205 141.141 262.168C140.749 262.149 140.376 262.131 140.021 262.112C139.685 262.093 139.424 262.065 139.237 262.028V242.4ZM143.577 244.108C143.391 244.108 143.185 244.108 142.961 244.108C142.756 244.108 142.551 244.117 142.345 244.136C142.14 244.155 141.944 244.173 141.757 244.192C141.589 244.211 141.449 244.229 141.337 244.248V260.208C141.412 260.227 141.543 260.245 141.729 260.264C141.935 260.264 142.14 260.273 142.345 260.292C142.569 260.292 142.775 260.301 142.961 260.32C143.167 260.32 143.316 260.32 143.409 260.32C144.436 260.32 145.295 260.096 145.985 259.648C146.676 259.2 147.217 258.603 147.609 257.856C148.02 257.091 148.309 256.213 148.477 255.224C148.645 254.216 148.729 253.152 148.729 252.032C148.729 251.043 148.655 250.072 148.505 249.12C148.356 248.168 148.085 247.328 147.693 246.6C147.32 245.853 146.797 245.256 146.125 244.808C145.472 244.341 144.623 244.108 143.577 244.108ZM154.284 249.456C154.284 248.933 154.406 248.541 154.648 248.28C154.91 248.019 155.255 247.888 155.684 247.888C156.114 247.888 156.45 248.019 156.692 248.28C156.954 248.541 157.084 248.933 157.084 249.456C157.084 249.997 156.954 250.399 156.692 250.66C156.45 250.921 156.114 251.052 155.684 251.052C155.255 251.052 154.91 250.921 154.648 250.66C154.406 250.399 154.284 249.997 154.284 249.456ZM154.284 260.74C154.284 260.217 154.406 259.825 154.648 259.564C154.91 259.303 155.255 259.172 155.684 259.172C156.114 259.172 156.45 259.303 156.692 259.564C156.954 259.825 157.084 260.217 157.084 260.74C157.084 261.281 156.954 261.683 156.692 261.944C156.45 262.205 156.114 262.336 155.684 262.336C155.255 262.336 154.91 262.205 154.648 261.944C154.406 261.683 154.284 261.281 154.284 260.74ZM166.491 260.124H169.655V246.488L169.907 244.836L168.955 246.18L166.603 248.084L165.539 246.824L170.635 242.064H171.671V260.124H174.723V262H166.491V260.124ZM177.753 248.336C177.753 246.395 178.164 244.864 178.985 243.744C179.825 242.624 181.066 242.064 182.709 242.064C184.277 242.064 185.49 242.643 186.349 243.8C187.226 244.957 187.665 246.731 187.665 249.12C187.665 251.229 187.469 253.068 187.077 254.636C186.685 256.185 186.144 257.501 185.453 258.584C184.762 259.648 183.95 260.488 183.017 261.104C182.084 261.72 181.076 262.131 179.993 262.336L179.461 260.684C181.253 260.217 182.644 259.284 183.633 257.884C184.622 256.465 185.248 254.692 185.509 252.564C185.117 253.105 184.678 253.488 184.193 253.712C183.726 253.936 183.101 254.048 182.317 254.048C181.72 254.048 181.141 253.936 180.581 253.712C180.04 253.469 179.554 253.115 179.125 252.648C178.714 252.163 178.378 251.565 178.117 250.856C177.874 250.128 177.753 249.288 177.753 248.336ZM179.797 248.112C179.797 249.437 180.068 250.455 180.609 251.164C181.15 251.873 181.869 252.228 182.765 252.228C183.474 252.228 184.072 252.079 184.557 251.78C185.061 251.463 185.425 251.061 185.649 250.576C185.686 250.333 185.705 250.1 185.705 249.876C185.705 249.652 185.705 249.437 185.705 249.232C185.705 248.523 185.64 247.851 185.509 247.216C185.397 246.563 185.21 245.993 184.949 245.508C184.706 245.004 184.389 244.612 183.997 244.332C183.605 244.033 183.138 243.884 182.597 243.884C181.72 243.884 181.029 244.267 180.525 245.032C180.04 245.797 179.797 246.824 179.797 248.112ZM191.73 262L197.386 245.452L198.394 244.08L197.05 244.332H190.638V242.4H200.186V243.156L193.746 262H191.73ZM211.672 242.4V244.36H206.352V250.072L207.304 249.988C208.797 250.007 209.973 250.52 210.832 251.528C211.69 252.536 212.129 253.983 212.148 255.868C212.129 256.913 211.97 257.837 211.672 258.64C211.392 259.443 211 260.124 210.496 260.684C209.992 261.225 209.404 261.636 208.732 261.916C208.06 262.196 207.341 262.336 206.576 262.336C205.288 262.336 204.252 262.159 203.468 261.804L203.972 260.012C204.308 260.18 204.681 260.301 205.092 260.376C205.502 260.432 205.978 260.46 206.52 260.46C207.584 260.46 208.442 260.077 209.096 259.312C209.768 258.528 210.113 257.436 210.132 256.036C210.113 254.599 209.768 253.535 209.096 252.844C208.442 252.153 207.528 251.808 206.352 251.808L204.504 251.948V242.4H211.672Z" fill="#FFDBAD"/>
</svg>
