<svg width="296" height="296" viewBox="0 0 296 296" fill="none" xmlns="http://www.w3.org/2000/svg">
<rect x="5" y="5" width="286" height="286" fill="#F4A127" stroke="#FFDBAD" stroke-width="10"/>
<path d="M91.9013 53.4C92.3573 53.324 92.8639 53.2733 93.4213 53.248C94.0039 53.1973 94.5866 53.1593 95.1693 53.134C95.7773 53.0833 96.3599 53.058 96.9173 53.058C97.4746 53.0327 97.9686 53.02 98.3993 53.02C100.502 53.02 102.25 53.3493 103.643 54.008C105.062 54.6413 106.189 55.5533 107.025 56.744C107.887 57.9093 108.495 59.3153 108.849 60.962C109.204 62.6087 109.381 64.4453 109.381 66.472C109.381 68.3213 109.204 70.0947 108.849 71.792C108.52 73.464 107.925 74.946 107.063 76.238C106.202 77.5047 105.037 78.518 103.567 79.278C102.098 80.038 100.249 80.418 98.0193 80.418C97.6899 80.418 97.2466 80.4053 96.6893 80.38C96.1319 80.3547 95.5493 80.3167 94.9413 80.266C94.3333 80.2407 93.7506 80.2027 93.1933 80.152C92.6359 80.1267 92.2053 80.0887 91.9013 80.038V53.4ZM98.8933 57.428C98.4879 57.428 98.0699 57.4407 97.6393 57.466C97.2339 57.466 96.9173 57.4913 96.6893 57.542V75.858C96.7653 75.8833 96.8919 75.9087 97.0693 75.934C97.2719 75.934 97.4746 75.9467 97.6773 75.972C97.9053 75.972 98.1079 75.9847 98.2853 76.01C98.4879 76.01 98.6273 76.01 98.7033 76.01C99.8433 76.01 100.781 75.744 101.515 75.212C102.25 74.68 102.82 73.9707 103.225 73.084C103.656 72.1973 103.947 71.184 104.099 70.044C104.277 68.8787 104.365 67.6627 104.365 66.396C104.365 65.2307 104.289 64.1033 104.137 63.014C104.011 61.9247 103.745 60.9747 103.339 60.164C102.959 59.328 102.402 58.6693 101.667 58.188C100.958 57.6813 100.033 57.428 98.8933 57.428ZM115.657 53.666C116.696 53.438 117.811 53.2733 119.001 53.172C120.192 53.0707 121.218 53.02 122.079 53.02C123.169 53.02 124.233 53.134 125.271 53.362C126.31 53.5647 127.222 53.9573 128.007 54.54C128.818 55.0973 129.464 55.87 129.945 56.858C130.452 57.8207 130.705 59.0493 130.705 60.544C130.705 62.6973 130.3 64.458 129.489 65.826C128.704 67.1687 127.615 68.0933 126.221 68.6L127.741 69.816L132.643 80H127.133L122.497 69.512L120.445 69.018V80H115.657V53.666ZM120.445 65.75H122.079C123.27 65.75 124.169 65.3953 124.777 64.686C125.385 63.9513 125.689 62.824 125.689 61.304C125.689 60.164 125.436 59.2393 124.929 58.53C124.423 57.7953 123.625 57.428 122.535 57.428C122.13 57.428 121.737 57.4407 121.357 57.466C120.977 57.4913 120.673 57.542 120.445 57.618V65.75ZM149.931 53.4H154.453V70.652C154.453 74.0973 153.743 76.5927 152.325 78.138C150.931 79.6833 148.993 80.456 146.511 80.456C143.597 80.456 141.457 79.7087 140.089 78.214C138.746 76.694 138.075 74.3887 138.075 71.298V53.4H142.863V70.462C142.863 72.5393 143.141 73.996 143.699 74.832C144.256 75.6427 145.181 76.048 146.473 76.048C147.714 76.048 148.601 75.6173 149.133 74.756C149.665 73.8693 149.931 72.438 149.931 70.462V53.4ZM178.189 66.282L178.721 61.19H178.531L177.125 65.75L172.793 75.098H171.197L166.599 65.712L165.193 61.114H164.965L165.687 66.244V80H161.165V53.4H165.763L171.311 64.914L172.223 68.22H172.375L173.249 64.838L178.455 53.4H182.977V80H178.189V66.282ZM199.13 73.16C199.13 72.3493 198.889 71.6653 198.408 71.108C197.926 70.5253 197.318 69.9807 196.584 69.474C195.874 68.9673 195.089 68.448 194.228 67.916C193.392 67.384 192.606 66.7633 191.872 66.054C191.162 65.3447 190.567 64.5087 190.086 63.546C189.604 62.5833 189.364 61.4053 189.364 60.012C189.364 58.72 189.554 57.6307 189.934 56.744C190.339 55.832 190.884 55.0973 191.568 54.54C192.252 53.9573 193.062 53.5393 194 53.286C194.937 53.0073 195.938 52.868 197.002 52.868C198.294 52.868 199.497 52.9947 200.612 53.248C201.726 53.5013 202.651 53.8433 203.386 54.274L201.904 58.492C201.473 58.188 200.827 57.9093 199.966 57.656C199.13 57.4027 198.218 57.276 197.23 57.276C196.242 57.276 195.482 57.4787 194.95 57.884C194.418 58.2893 194.152 58.8847 194.152 59.67C194.152 60.3793 194.392 61.0127 194.874 61.57C195.355 62.102 195.95 62.6213 196.66 63.128C197.394 63.6347 198.18 64.1667 199.016 64.724C199.877 65.256 200.662 65.8893 201.372 66.624C202.106 67.3333 202.714 68.182 203.196 69.17C203.677 70.1327 203.918 71.2853 203.918 72.628C203.918 73.9707 203.715 75.136 203.31 76.124C202.93 77.112 202.372 77.9353 201.638 78.594C200.928 79.2273 200.067 79.7087 199.054 80.038C198.04 80.3673 196.913 80.532 195.672 80.532C194.101 80.532 192.72 80.38 191.53 80.076C190.364 79.772 189.465 79.43 188.832 79.05L190.39 74.756C190.896 75.06 191.593 75.364 192.48 75.668C193.366 75.972 194.316 76.124 195.33 76.124C197.863 76.124 199.13 75.136 199.13 73.16ZM107.481 142.04C106.67 141.016 105.988 139.885 105.433 138.648C104.9 137.432 104.462 136.184 104.121 134.904C103.78 133.603 103.534 132.301 103.385 131C103.236 129.677 103.161 128.419 103.161 127.224C103.161 126.051 103.236 124.813 103.385 123.512C103.534 122.211 103.78 120.909 104.121 119.608C104.462 118.285 104.91 116.995 105.465 115.736C106.041 114.477 106.734 113.304 107.545 112.216L108.985 113.08C108.302 114.168 107.737 115.309 107.289 116.504C106.841 117.699 106.478 118.915 106.201 120.152C105.945 121.368 105.753 122.584 105.625 123.8C105.518 124.995 105.465 126.136 105.465 127.224C105.465 128.248 105.529 129.379 105.657 130.616C105.785 131.832 105.988 133.059 106.265 134.296C106.564 135.533 106.937 136.739 107.385 137.912C107.833 139.085 108.366 140.141 108.985 141.08L107.481 142.04ZM112.102 132.856H115.718V117.272L116.006 115.384L114.918 116.92L112.23 119.096L111.014 117.656L116.838 112.216H118.022V132.856H121.51V135H112.102V132.856ZM124.972 119.384C124.972 117.165 125.441 115.416 126.38 114.136C127.34 112.856 128.759 112.216 130.636 112.216C132.428 112.216 133.815 112.877 134.796 114.2C135.799 115.523 136.3 117.549 136.3 120.28C136.3 122.691 136.076 124.792 135.628 126.584C135.18 128.355 134.561 129.859 133.772 131.096C132.983 132.312 132.055 133.272 130.988 133.976C129.921 134.68 128.769 135.149 127.532 135.384L126.924 133.496C128.972 132.963 130.561 131.896 131.692 130.296C132.823 128.675 133.537 126.648 133.836 124.216C133.388 124.835 132.887 125.272 132.332 125.528C131.799 125.784 131.084 125.912 130.188 125.912C129.505 125.912 128.844 125.784 128.204 125.528C127.585 125.251 127.031 124.845 126.54 124.312C126.071 123.757 125.687 123.075 125.388 122.264C125.111 121.432 124.972 120.472 124.972 119.384ZM127.308 119.128C127.308 120.643 127.617 121.805 128.236 122.616C128.855 123.427 129.676 123.832 130.7 123.832C131.511 123.832 132.193 123.661 132.748 123.32C133.324 122.957 133.74 122.499 133.996 121.944C134.039 121.667 134.06 121.4 134.06 121.144C134.06 120.888 134.06 120.643 134.06 120.408C134.06 119.597 133.985 118.829 133.836 118.104C133.708 117.357 133.495 116.707 133.196 116.152C132.919 115.576 132.556 115.128 132.108 114.808C131.66 114.467 131.127 114.296 130.508 114.296C129.505 114.296 128.716 114.733 128.14 115.608C127.585 116.483 127.308 117.656 127.308 119.128ZM151.698 128.12H148.722V135H146.418V128.12H138.546V127.032L147.026 112.248H148.722V126.04H151.698V128.12ZM146.418 118.872L146.802 116.12H146.706L145.746 118.584L142.226 124.696L141.01 126.264L142.77 126.04H146.418V118.872ZM155.353 135L161.817 116.088L162.969 114.52L161.433 114.808H154.105V112.6H165.017V113.464L157.657 135H155.353ZM166.598 124.76H172.902V126.968H166.598V124.76ZM187.442 141.08C188.061 140.141 188.594 139.085 189.042 137.912C189.49 136.739 189.853 135.533 190.13 134.296C190.429 133.059 190.642 131.832 190.77 130.616C190.898 129.379 190.962 128.248 190.962 127.224C190.962 126.136 190.898 124.995 190.77 123.8C190.664 122.584 190.472 121.368 190.194 120.152C189.938 118.915 189.576 117.699 189.106 116.504C188.658 115.309 188.104 114.168 187.442 113.08L188.882 112.216C189.693 113.304 190.376 114.477 190.93 115.736C191.506 116.995 191.965 118.285 192.306 119.608C192.648 120.909 192.893 122.211 193.042 123.512C193.192 124.813 193.266 126.051 193.266 127.224C193.266 128.419 193.192 129.677 193.042 131C192.893 132.301 192.648 133.603 192.306 134.904C191.965 136.184 191.517 137.432 190.962 138.648C190.408 139.885 189.736 141.016 188.946 142.04L187.442 141.08ZM73.298 153.824C74.002 153.653 74.77 153.536 75.602 153.472C76.4553 153.387 77.234 153.344 77.938 153.344C78.77 153.344 79.5593 153.451 80.306 153.664C81.0527 153.856 81.7033 154.197 82.258 154.688C82.8127 155.157 83.25 155.787 83.57 156.576C83.9113 157.344 84.082 158.315 84.082 159.488C84.082 161.259 83.7087 162.677 82.962 163.744C82.2367 164.811 81.266 165.525 80.05 165.888L81.266 167.072L85.682 176H82.898L78.098 166.24L75.698 165.76V176H73.298V153.824ZM75.698 164.16H77.618C78.834 164.16 79.794 163.787 80.498 163.04C81.202 162.293 81.554 161.152 81.554 159.616C81.554 158.443 81.2553 157.472 80.658 156.704C80.082 155.936 79.218 155.552 78.066 155.552C77.6393 155.552 77.1913 155.573 76.722 155.616C76.274 155.637 75.9327 155.68 75.698 155.744V164.16ZM88.673 153.6H98.625V155.808H91.073V163.392H98.017V165.6H91.073V173.792H98.785V176H88.673V153.6ZM102.392 153.6C102.733 153.536 103.106 153.493 103.512 153.472C103.938 153.429 104.365 153.408 104.792 153.408C105.218 153.387 105.634 153.376 106.04 153.376C106.466 153.355 106.861 153.344 107.224 153.344C108.781 153.344 110.104 153.611 111.192 154.144C112.28 154.677 113.165 155.445 113.848 156.448C114.53 157.429 115.021 158.613 115.32 160C115.618 161.387 115.768 162.933 115.768 164.64C115.768 166.176 115.618 167.648 115.32 169.056C115.042 170.464 114.562 171.701 113.88 172.768C113.197 173.835 112.29 174.688 111.16 175.328C110.05 175.968 108.653 176.288 106.968 176.288C106.69 176.288 106.338 176.277 105.912 176.256C105.485 176.256 105.037 176.235 104.568 176.192C104.12 176.171 103.693 176.149 103.288 176.128C102.904 176.107 102.605 176.075 102.392 176.032V153.6ZM107.352 155.552C107.138 155.552 106.904 155.552 106.648 155.552C106.413 155.552 106.178 155.563 105.944 155.584C105.709 155.605 105.485 155.627 105.272 155.648C105.08 155.669 104.92 155.691 104.792 155.712V173.952C104.877 173.973 105.026 173.995 105.24 174.016C105.474 174.016 105.709 174.027 105.944 174.048C106.2 174.048 106.434 174.059 106.648 174.08C106.882 174.08 107.053 174.08 107.16 174.08C108.333 174.08 109.314 173.824 110.104 173.312C110.893 172.8 111.512 172.117 111.96 171.264C112.429 170.389 112.76 169.387 112.952 168.256C113.144 167.104 113.24 165.888 113.24 164.608C113.24 163.477 113.154 162.368 112.984 161.28C112.813 160.192 112.504 159.232 112.056 158.4C111.629 157.547 111.032 156.864 110.264 156.352C109.517 155.819 108.546 155.552 107.352 155.552ZM119.204 153.824C119.908 153.653 120.676 153.536 121.508 153.472C122.362 153.387 123.14 153.344 123.844 153.344C124.676 153.344 125.466 153.451 126.212 153.664C126.959 153.856 127.61 154.197 128.164 154.688C128.719 155.157 129.156 155.787 129.476 156.576C129.818 157.344 129.988 158.315 129.988 159.488C129.988 161.259 129.615 162.677 128.868 163.744C128.143 164.811 127.172 165.525 125.956 165.888L127.172 167.072L131.588 176H128.804L124.004 166.24L121.604 165.76V176H119.204V153.824ZM121.604 164.16H123.524C124.74 164.16 125.7 163.787 126.404 163.04C127.108 162.293 127.46 161.152 127.46 159.616C127.46 158.443 127.162 157.472 126.564 156.704C125.988 155.936 125.124 155.552 123.972 155.552C123.546 155.552 123.098 155.573 122.628 155.616C122.18 155.637 121.839 155.68 121.604 155.744V164.16ZM144.851 153.6H147.155V168.608C147.155 171.317 146.622 173.28 145.555 174.496C144.51 175.691 143.017 176.288 141.075 176.288C138.814 176.288 137.161 175.701 136.115 174.528C135.091 173.355 134.579 171.552 134.579 169.12V153.6H136.979V167.872C136.979 169.024 137.054 169.995 137.203 170.784C137.353 171.573 137.598 172.213 137.939 172.704C138.281 173.195 138.707 173.547 139.219 173.76C139.731 173.973 140.361 174.08 141.107 174.08C142.515 174.08 143.486 173.589 144.019 172.608C144.574 171.627 144.851 170.048 144.851 167.872V153.6ZM163.075 155.808H157.571V176H155.171V155.808H149.667V153.6H163.075V155.808ZM176.235 165.664H167.979V176H165.579V153.6H167.979V163.456H176.235V153.6H178.635V176H176.235V165.664ZM181.84 174.624C181.84 174.091 181.989 173.664 182.288 173.344C182.608 173.024 183.013 172.864 183.504 172.864C184.058 172.864 184.506 173.088 184.848 173.536C185.21 173.984 185.391 174.688 185.391 175.648C185.391 176.352 185.296 176.981 185.104 177.536C184.933 178.112 184.698 178.613 184.4 179.04C184.122 179.467 183.813 179.819 183.472 180.096C183.13 180.373 182.8 180.576 182.48 180.704L181.68 179.616C181.957 179.467 182.213 179.264 182.448 179.008C182.704 178.773 182.906 178.507 183.056 178.208C183.226 177.909 183.354 177.589 183.44 177.248C183.525 176.928 183.568 176.608 183.568 176.288C183.141 176.416 182.746 176.331 182.384 176.032C182.021 175.733 181.84 175.264 181.84 174.624ZM203.601 153.6H205.905V168.608C205.905 171.317 205.372 173.28 204.305 174.496C203.26 175.691 201.767 176.288 199.825 176.288C197.564 176.288 195.911 175.701 194.865 174.528C193.841 173.355 193.329 171.552 193.329 169.12V153.6H195.729V167.872C195.729 169.024 195.804 169.995 195.953 170.784C196.103 171.573 196.348 172.213 196.689 172.704C197.031 173.195 197.457 173.547 197.969 173.76C198.481 173.973 199.111 174.08 199.857 174.08C201.265 174.08 202.236 173.589 202.769 172.608C203.324 171.627 203.601 170.048 203.601 167.872V153.6ZM213.569 165.632H212.417V176H210.017V153.6H212.417V164.032L213.537 163.584L219.361 153.6H222.113L216.257 163.264L215.137 164.288L216.449 165.568L222.945 176H219.905L213.569 165.632ZM74.726 194.6H77.126V211.976C77.126 213.725 76.838 215.059 76.262 215.976C75.7073 216.872 74.726 217.32 73.318 217.32C72.9767 217.32 72.5607 217.277 72.07 217.192C71.6007 217.107 71.2167 216.979 70.918 216.808L71.43 214.728C71.6433 214.856 71.878 214.952 72.134 215.016C72.4113 215.08 72.6887 215.112 72.966 215.112C73.35 215.112 73.6593 215.027 73.894 214.856C74.1287 214.685 74.31 214.451 74.438 214.152C74.566 213.832 74.6407 213.459 74.662 213.032C74.7047 212.584 74.726 212.083 74.726 211.528V194.6ZM80.8448 205.8C80.8448 202.003 81.4528 199.123 82.6688 197.16C83.8848 195.197 85.7408 194.216 88.2368 194.216C89.5808 194.216 90.7221 194.493 91.6608 195.048C92.5994 195.581 93.3568 196.349 93.9328 197.352C94.5301 198.355 94.9674 199.571 95.2448 201C95.5221 202.429 95.6608 204.029 95.6608 205.8C95.6608 209.597 95.0421 212.477 93.8048 214.44C92.5888 216.403 90.7328 217.384 88.2368 217.384C86.9141 217.384 85.7834 217.117 84.8448 216.584C83.9061 216.029 83.1381 215.251 82.5408 214.248C81.9434 213.245 81.5061 212.029 81.2288 210.6C80.9728 209.171 80.8448 207.571 80.8448 205.8ZM83.3728 205.8C83.3728 207.059 83.4581 208.253 83.6288 209.384C83.8208 210.515 84.1088 211.507 84.4928 212.36C84.8768 213.213 85.3781 213.896 85.9968 214.408C86.6154 214.92 87.3621 215.176 88.2368 215.176C89.8368 215.176 91.0528 214.408 91.8848 212.872C92.7168 211.336 93.1328 208.979 93.1328 205.8C93.1328 204.563 93.0368 203.379 92.8448 202.248C92.6741 201.117 92.3968 200.125 92.0128 199.272C91.6288 198.397 91.1274 197.704 90.5088 197.192C89.8901 196.68 89.1328 196.424 88.2368 196.424C86.6581 196.424 85.4528 197.192 84.6208 198.728C83.7888 200.264 83.3728 202.621 83.3728 205.8ZM99.5593 194.6H101.959V217H99.5593V194.6ZM109.972 202.792L108.596 199.272H108.5L108.852 202.792V217H106.548V194.248H107.988L116.276 208.776L117.588 212.136H117.716L117.364 208.776V194.6H119.668V217.352H118.196L109.972 202.792ZM123.767 194.6H133.719V196.808H126.167V204.392H133.111V206.6H126.167V214.792H133.879V217H123.767V194.6ZM137.486 194.6C137.827 194.536 138.2 194.493 138.606 194.472C139.032 194.429 139.459 194.408 139.886 194.408C140.312 194.387 140.728 194.376 141.134 194.376C141.56 194.355 141.955 194.344 142.318 194.344C143.875 194.344 145.198 194.611 146.286 195.144C147.374 195.677 148.259 196.445 148.942 197.448C149.624 198.429 150.115 199.613 150.414 201C150.712 202.387 150.862 203.933 150.862 205.64C150.862 207.176 150.712 208.648 150.414 210.056C150.136 211.464 149.656 212.701 148.974 213.768C148.291 214.835 147.384 215.688 146.254 216.328C145.144 216.968 143.747 217.288 142.062 217.288C141.784 217.288 141.432 217.277 141.006 217.256C140.579 217.256 140.131 217.235 139.661 217.192C139.214 217.171 138.787 217.149 138.382 217.128C137.998 217.107 137.699 217.075 137.486 217.032V194.6ZM142.446 196.552C142.232 196.552 141.998 196.552 141.742 196.552C141.507 196.552 141.272 196.563 141.038 196.584C140.803 196.605 140.579 196.627 140.366 196.648C140.174 196.669 140.014 196.691 139.886 196.712V214.952C139.971 214.973 140.12 214.995 140.334 215.016C140.568 215.016 140.803 215.027 141.038 215.048C141.294 215.048 141.528 215.059 141.742 215.08C141.976 215.08 142.147 215.08 142.254 215.08C143.427 215.08 144.408 214.824 145.198 214.312C145.987 213.8 146.606 213.117 147.054 212.264C147.523 211.389 147.854 210.387 148.046 209.256C148.238 208.104 148.334 206.888 148.334 205.608C148.334 204.477 148.248 203.368 148.078 202.28C147.907 201.192 147.598 200.232 147.15 199.4C146.723 198.547 146.126 197.864 145.358 197.352C144.611 196.819 143.64 196.552 142.446 196.552ZM154.682 202.664C154.682 202.067 154.821 201.619 155.098 201.32C155.397 201.021 155.791 200.872 156.282 200.872C156.773 200.872 157.157 201.021 157.434 201.32C157.733 201.619 157.882 202.067 157.882 202.664C157.882 203.283 157.733 203.741 157.434 204.04C157.157 204.339 156.773 204.488 156.282 204.488C155.791 204.488 155.397 204.339 155.098 204.04C154.821 203.741 154.682 203.283 154.682 202.664ZM154.682 215.56C154.682 214.963 154.821 214.515 155.098 214.216C155.397 213.917 155.791 213.768 156.282 213.768C156.773 213.768 157.157 213.917 157.434 214.216C157.733 214.515 157.882 214.963 157.882 215.56C157.882 216.179 157.733 216.637 157.434 216.936C157.157 217.235 156.773 217.384 156.282 217.384C155.791 217.384 155.397 217.235 155.098 216.936C154.821 216.637 154.682 216.179 154.682 215.56ZM168.633 214.856H172.249V199.272L172.537 197.384L171.449 198.92L168.761 201.096L167.545 199.656L173.369 194.216H174.553V214.856H178.041V217H168.633V214.856ZM181.503 201.384C181.503 199.165 181.973 197.416 182.911 196.136C183.871 194.856 185.29 194.216 187.167 194.216C188.959 194.216 190.346 194.877 191.327 196.2C192.33 197.523 192.831 199.549 192.831 202.28C192.831 204.691 192.607 206.792 192.159 208.584C191.711 210.355 191.093 211.859 190.303 213.096C189.514 214.312 188.586 215.272 187.519 215.976C186.453 216.68 185.301 217.149 184.063 217.384L183.455 215.496C185.503 214.963 187.093 213.896 188.223 212.296C189.354 210.675 190.069 208.648 190.367 206.216C189.919 206.835 189.418 207.272 188.863 207.528C188.33 207.784 187.615 207.912 186.719 207.912C186.037 207.912 185.375 207.784 184.735 207.528C184.117 207.251 183.562 206.845 183.071 206.312C182.602 205.757 182.218 205.075 181.919 204.264C181.642 203.432 181.503 202.472 181.503 201.384ZM183.839 201.128C183.839 202.643 184.149 203.805 184.767 204.616C185.386 205.427 186.207 205.832 187.231 205.832C188.042 205.832 188.725 205.661 189.279 205.32C189.855 204.957 190.271 204.499 190.527 203.944C190.57 203.667 190.591 203.4 190.591 203.144C190.591 202.888 190.591 202.643 190.591 202.408C190.591 201.597 190.517 200.829 190.367 200.104C190.239 199.357 190.026 198.707 189.727 198.152C189.45 197.576 189.087 197.128 188.639 196.808C188.191 196.467 187.658 196.296 187.039 196.296C186.037 196.296 185.247 196.733 184.671 197.608C184.117 198.483 183.839 199.656 183.839 201.128ZM207.398 210.248C207.376 211.315 207.238 212.296 206.982 213.192C206.747 214.067 206.384 214.813 205.894 215.432C205.424 216.051 204.838 216.531 204.134 216.872C203.451 217.213 202.672 217.384 201.798 217.384C200.006 217.384 198.598 216.733 197.574 215.432C196.571 214.131 196.07 212.147 196.07 209.48C196.07 207.219 196.294 205.203 196.742 203.432C197.211 201.661 197.84 200.136 198.63 198.856C199.419 197.576 200.347 196.552 201.414 195.784C202.48 194.995 203.622 194.472 204.838 194.216L205.478 196.072C204.518 196.328 203.643 196.755 202.854 197.352C202.064 197.949 201.371 198.675 200.774 199.528C200.176 200.381 199.675 201.341 199.27 202.408C198.886 203.475 198.619 204.616 198.47 205.832C198.747 205.256 199.206 204.755 199.846 204.328C200.507 203.901 201.318 203.688 202.278 203.688C203.814 203.688 205.04 204.232 205.958 205.32C206.896 206.408 207.376 208.051 207.398 210.248ZM205.062 210.472C205.062 207.336 203.931 205.768 201.67 205.768C200.859 205.768 200.166 206.024 199.59 206.536C199.014 207.048 198.608 207.624 198.374 208.264C198.331 208.541 198.31 208.819 198.31 209.096C198.31 209.352 198.32 209.597 198.342 209.832C198.32 210.536 198.374 211.219 198.502 211.88C198.651 212.52 198.864 213.096 199.141 213.608C199.44 214.12 199.803 214.536 200.23 214.856C200.678 215.155 201.2 215.304 201.798 215.304C202.758 215.304 203.536 214.877 204.134 214.024C204.752 213.171 205.062 211.987 205.062 210.472ZM211.884 217L218.348 198.088L219.5 196.52L217.964 196.808H210.636V194.6H221.548V195.464L214.188 217H211.884ZM75.4471 247.4C74.9404 246.76 74.5138 246.053 74.1671 245.28C73.8338 244.52 73.5604 243.74 73.3471 242.94C73.1338 242.127 72.9804 241.313 72.8871 240.5C72.7938 239.673 72.7471 238.887 72.7471 238.14C72.7471 237.407 72.7938 236.633 72.8871 235.82C72.9804 235.007 73.1338 234.193 73.3471 233.38C73.5604 232.553 73.8404 231.747 74.1871 230.96C74.5471 230.173 74.9804 229.44 75.4871 228.76L76.3871 229.3C75.9604 229.98 75.6071 230.693 75.3271 231.44C75.0471 232.187 74.8204 232.947 74.6471 233.72C74.4871 234.48 74.3671 235.24 74.2871 236C74.2204 236.747 74.1871 237.46 74.1871 238.14C74.1871 238.78 74.2271 239.487 74.3071 240.26C74.3871 241.02 74.5138 241.787 74.6871 242.56C74.8738 243.333 75.1071 244.087 75.3871 244.82C75.6671 245.553 76.0004 246.213 76.3871 246.8L75.4471 247.4ZM77.7351 229H83.9551V230.38H79.2351V235.32H83.6351V236.7H79.2351V243H77.7351V229ZM85.5768 236C85.5768 233.627 85.9568 231.827 86.7168 230.6C87.4768 229.373 88.6368 228.76 90.1968 228.76C91.0368 228.76 91.7501 228.933 92.3368 229.28C92.9235 229.613 93.3968 230.093 93.7568 230.72C94.1301 231.347 94.4035 232.107 94.5768 233C94.7501 233.893 94.8368 234.893 94.8368 236C94.8368 238.373 94.4501 240.173 93.6768 241.4C92.9168 242.627 91.7568 243.24 90.1968 243.24C89.3701 243.24 88.6635 243.073 88.0768 242.74C87.4901 242.393 87.0101 241.907 86.6368 241.28C86.2635 240.653 85.9901 239.893 85.8168 239C85.6568 238.107 85.5768 237.107 85.5768 236ZM87.1568 236C87.1568 236.787 87.2101 237.533 87.3168 238.24C87.4368 238.947 87.6168 239.567 87.8568 240.1C88.0968 240.633 88.4101 241.06 88.7968 241.38C89.1835 241.7 89.6501 241.86 90.1968 241.86C91.1968 241.86 91.9568 241.38 92.4768 240.42C92.9968 239.46 93.2568 237.987 93.2568 236C93.2568 235.227 93.1968 234.487 93.0768 233.78C92.9701 233.073 92.7968 232.453 92.5568 231.92C92.3168 231.373 92.0035 230.94 91.6168 230.62C91.2301 230.3 90.7568 230.14 90.1968 230.14C89.2101 230.14 88.4568 230.62 87.9368 231.58C87.4168 232.54 87.1568 234.013 87.1568 236ZM103.393 229H104.833V238.38C104.833 240.073 104.5 241.3 103.833 242.06C103.18 242.807 102.247 243.18 101.033 243.18C99.62 243.18 98.5867 242.813 97.9334 242.08C97.2934 241.347 96.9734 240.22 96.9734 238.7V229H98.4734V237.92C98.4734 238.64 98.52 239.247 98.6134 239.74C98.7067 240.233 98.86 240.633 99.0734 240.94C99.2867 241.247 99.5534 241.467 99.8734 241.6C100.193 241.733 100.587 241.8 101.053 241.8C101.933 241.8 102.54 241.493 102.873 240.88C103.22 240.267 103.393 239.28 103.393 237.92V229ZM109.543 234.12L108.683 231.92H108.623L108.843 234.12V243H107.403V228.78H108.303L113.483 237.86L114.303 239.96H114.383L114.163 237.86V229H115.603V243.22H114.683L109.543 234.12ZM118.165 229C118.378 228.96 118.611 228.933 118.865 228.92C119.131 228.893 119.398 228.88 119.665 228.88C119.931 228.867 120.191 228.86 120.445 228.86C120.711 228.847 120.958 228.84 121.185 228.84C122.158 228.84 122.985 229.007 123.665 229.34C124.345 229.673 124.898 230.153 125.325 230.78C125.751 231.393 126.058 232.133 126.245 233C126.431 233.867 126.525 234.833 126.525 235.9C126.525 236.86 126.431 237.78 126.245 238.66C126.071 239.54 125.771 240.313 125.345 240.98C124.918 241.647 124.351 242.18 123.645 242.58C122.951 242.98 122.078 243.18 121.025 243.18C120.851 243.18 120.631 243.173 120.365 243.16C120.098 243.16 119.818 243.147 119.525 243.12C119.245 243.107 118.978 243.093 118.725 243.08C118.485 243.067 118.298 243.047 118.165 243.02V229ZM121.265 230.22C121.131 230.22 120.985 230.22 120.825 230.22C120.678 230.22 120.531 230.227 120.385 230.24C120.238 230.253 120.098 230.267 119.965 230.28C119.845 230.293 119.745 230.307 119.665 230.32V241.72C119.718 241.733 119.811 241.747 119.945 241.76C120.091 241.76 120.238 241.767 120.385 241.78C120.545 241.78 120.691 241.787 120.825 241.8C120.971 241.8 121.078 241.8 121.145 241.8C121.878 241.8 122.491 241.64 122.985 241.32C123.478 241 123.865 240.573 124.145 240.04C124.438 239.493 124.645 238.867 124.765 238.16C124.885 237.44 124.945 236.68 124.945 235.88C124.945 235.173 124.891 234.48 124.785 233.8C124.678 233.12 124.485 232.52 124.205 232C123.938 231.467 123.565 231.04 123.085 230.72C122.618 230.387 122.011 230.22 121.265 230.22ZM128.973 229H130.473V243H128.973V229ZM135.481 234.12L134.621 231.92H134.561L134.781 234.12V243H133.341V228.78H134.241L139.421 237.86L140.241 239.96H140.321L140.101 237.86V229H141.541V243.22H140.621L135.481 234.12ZM147.962 236.02H151.822V242.18C151.449 242.527 150.969 242.793 150.382 242.98C149.796 243.153 149.202 243.24 148.602 243.24C147.856 243.24 147.176 243.1 146.562 242.82C145.962 242.54 145.449 242.107 145.022 241.52C144.596 240.92 144.262 240.167 144.022 239.26C143.796 238.353 143.682 237.267 143.682 236C143.682 234.693 143.822 233.587 144.102 232.68C144.382 231.76 144.756 231.013 145.222 230.44C145.702 229.853 146.242 229.427 146.842 229.16C147.456 228.893 148.082 228.76 148.722 228.76C149.362 228.76 149.896 228.807 150.322 228.9C150.762 228.98 151.136 229.093 151.442 229.24L151.082 230.6C150.816 230.453 150.496 230.34 150.122 230.26C149.762 230.18 149.342 230.14 148.862 230.14C148.396 230.14 147.949 230.24 147.522 230.44C147.096 230.64 146.709 230.973 146.362 231.44C146.029 231.893 145.762 232.493 145.562 233.24C145.362 233.987 145.262 234.907 145.262 236C145.262 238 145.576 239.48 146.202 240.44C146.842 241.387 147.716 241.86 148.822 241.86C149.516 241.86 150.089 241.693 150.542 241.36V237.28L147.962 236.9V236.02ZM166.864 233.8L167.044 231.68H166.964L166.324 233.66L163.504 239.74H163.004L160.044 233.66L159.424 231.68H159.344L159.624 233.8V243H158.184V229H159.444L162.824 235.88L163.324 237.52H163.364L163.844 235.86L167.044 229H168.364V243H166.864V233.8ZM170.919 229H177.139V230.38H172.419V235.12H176.759V236.5H172.419V241.62H177.239V243H170.919V229ZM188.173 233.8L188.353 231.68H188.273L187.633 233.66L184.813 239.74H184.313L181.353 233.66L180.733 231.68H180.653L180.933 233.8V243H179.493V229H180.753L184.133 235.88L184.633 237.52H184.673L185.153 235.86L188.353 229H189.673V243H188.173V233.8ZM199.167 232.18C199.167 232.527 199.127 232.873 199.047 233.22C198.967 233.567 198.841 233.893 198.667 234.2C198.494 234.507 198.274 234.78 198.007 235.02C197.754 235.26 197.441 235.44 197.067 235.56V235.64C197.387 235.707 197.694 235.82 197.987 235.98C198.281 236.127 198.541 236.34 198.767 236.62C198.994 236.887 199.174 237.22 199.307 237.62C199.441 238.007 199.507 238.473 199.507 239.02C199.507 239.74 199.394 240.367 199.167 240.9C198.941 241.42 198.627 241.847 198.227 242.18C197.841 242.513 197.387 242.76 196.867 242.92C196.361 243.08 195.821 243.16 195.247 243.16C195.061 243.16 194.841 243.16 194.587 243.16C194.347 243.16 194.087 243.147 193.807 243.12C193.527 243.107 193.247 243.08 192.967 243.04C192.701 243.013 192.454 242.967 192.227 242.9V229.12C192.627 229.04 193.094 228.973 193.627 228.92C194.174 228.867 194.761 228.84 195.387 228.84C195.841 228.84 196.294 228.887 196.747 228.98C197.201 229.06 197.607 229.22 197.967 229.46C198.327 229.7 198.614 230.04 198.827 230.48C199.054 230.907 199.167 231.473 199.167 232.18ZM195.367 241.78C195.727 241.78 196.061 241.727 196.367 241.62C196.674 241.5 196.941 241.327 197.167 241.1C197.407 240.873 197.594 240.6 197.727 240.28C197.861 239.947 197.927 239.56 197.927 239.12C197.927 238.573 197.841 238.133 197.667 237.8C197.507 237.453 197.294 237.187 197.027 237C196.761 236.813 196.454 236.687 196.107 236.62C195.774 236.553 195.427 236.52 195.067 236.52H193.727V241.64C193.807 241.667 193.907 241.687 194.027 241.7C194.161 241.713 194.301 241.727 194.447 241.74C194.607 241.753 194.767 241.767 194.927 241.78C195.087 241.78 195.234 241.78 195.367 241.78ZM194.547 235.22C194.734 235.22 194.947 235.213 195.187 235.2C195.427 235.187 195.627 235.167 195.787 235.14C196.281 234.94 196.701 234.62 197.047 234.18C197.407 233.727 197.587 233.173 197.587 232.52C197.587 232.08 197.527 231.713 197.407 231.42C197.287 231.113 197.121 230.873 196.907 230.7C196.707 230.527 196.467 230.407 196.187 230.34C195.907 230.26 195.614 230.22 195.307 230.22C194.961 230.22 194.647 230.233 194.367 230.26C194.087 230.273 193.874 230.293 193.727 230.32V235.22H194.547ZM201.641 229H207.861V230.38H203.141V235.12H207.481V236.5H203.141V241.62H207.961V243H201.641V229ZM210.216 229.14C210.656 229.033 211.136 228.96 211.656 228.92C212.189 228.867 212.676 228.84 213.116 228.84C213.636 228.84 214.129 228.907 214.596 229.04C215.062 229.16 215.469 229.373 215.816 229.68C216.162 229.973 216.436 230.367 216.636 230.86C216.849 231.34 216.956 231.947 216.956 232.68C216.956 233.787 216.722 234.673 216.256 235.34C215.802 236.007 215.196 236.453 214.436 236.68L215.196 237.42L217.956 243H216.216L213.216 236.9L211.716 236.6V243H210.216V229.14ZM211.716 235.6H212.916C213.676 235.6 214.276 235.367 214.716 234.9C215.156 234.433 215.376 233.72 215.376 232.76C215.376 232.027 215.189 231.42 214.816 230.94C214.456 230.46 213.916 230.22 213.196 230.22C212.929 230.22 212.649 230.233 212.356 230.26C212.076 230.273 211.862 230.3 211.716 230.34V235.6ZM219.505 246.8C219.892 246.213 220.225 245.553 220.505 244.82C220.785 244.087 221.012 243.333 221.185 242.56C221.372 241.787 221.505 241.02 221.585 240.26C221.665 239.487 221.705 238.78 221.705 238.14C221.705 237.46 221.665 236.747 221.585 236C221.518 235.24 221.398 234.48 221.225 233.72C221.065 232.947 220.838 232.187 220.545 231.44C220.265 230.693 219.918 229.98 219.505 229.3L220.405 228.76C220.912 229.44 221.338 230.173 221.685 230.96C222.045 231.747 222.332 232.553 222.545 233.38C222.758 234.193 222.912 235.007 223.005 235.82C223.098 236.633 223.145 237.407 223.145 238.14C223.145 238.887 223.098 239.673 223.005 240.5C222.912 241.313 222.758 242.127 222.545 242.94C222.332 243.74 222.052 244.52 221.705 245.28C221.358 246.053 220.938 246.76 220.445 247.4L219.505 246.8Z" fill="#FFDBAD"/>
</svg>
