<svg width="296" height="296" viewBox="0 0 296 296" fill="none" xmlns="http://www.w3.org/2000/svg">
<rect width="296" height="296" fill="#FFDBAD"/>
<path d="M5 5H291V291H5V5Z" fill="#F4A127" stroke="#FFDBAD" stroke-width="10"/>
<path d="M97.6804 48.752L98.1284 52.592H98.2564L98.7684 48.72L102.032 35.6H106.288L99.5044 58.16H96.4324L89.5844 35.6H94.3524L97.6804 48.752ZM109.025 46.8C109.025 43.0027 109.676 40.112 110.977 38.128C112.278 36.144 114.262 35.152 116.929 35.152C118.316 35.152 119.51 35.4293 120.513 35.984C121.516 36.5173 122.337 37.296 122.977 38.32C123.617 39.3227 124.086 40.5493 124.385 42C124.705 43.4293 124.865 45.0293 124.865 46.8C124.865 50.5973 124.193 53.488 122.849 55.472C121.526 57.456 119.553 58.448 116.929 58.448C115.521 58.448 114.316 58.1813 113.313 57.648C112.332 57.0933 111.521 56.3147 110.881 55.312C110.241 54.288 109.772 53.0613 109.473 51.632C109.174 50.1813 109.025 48.5707 109.025 46.8ZM113.249 46.8C113.249 47.9307 113.313 48.9867 113.441 49.968C113.569 50.928 113.782 51.76 114.081 52.464C114.38 53.168 114.753 53.7227 115.201 54.128C115.67 54.5333 116.246 54.736 116.929 54.736C118.166 54.736 119.094 54.1067 119.713 52.848C120.332 51.5893 120.641 49.5733 120.641 46.8C120.641 45.712 120.577 44.688 120.449 43.728C120.321 42.7467 120.108 41.904 119.809 41.2C119.532 40.4747 119.158 39.9093 118.689 39.504C118.22 39.0773 117.633 38.864 116.929 38.864C114.476 38.864 113.249 41.5093 113.249 46.8ZM142.808 57.104C142.254 57.5733 141.507 57.9147 140.568 58.128C139.651 58.3413 138.734 58.448 137.816 58.448C136.664 58.448 135.587 58.256 134.584 57.872C133.603 57.4667 132.739 56.8053 131.992 55.888C131.246 54.9707 130.659 53.7653 130.232 52.272C129.806 50.7787 129.592 48.944 129.592 46.768C129.592 44.5067 129.827 42.6293 130.296 41.136C130.787 39.6427 131.416 38.4587 132.184 37.584C132.974 36.688 133.87 36.0587 134.872 35.696C135.875 35.3333 136.888 35.152 137.912 35.152C138.958 35.152 139.864 35.2373 140.632 35.408C141.422 35.5787 142.062 35.7707 142.552 35.984L141.752 39.536C141.347 39.3227 140.867 39.1627 140.312 39.056C139.779 38.928 139.139 38.864 138.392 38.864C136.92 38.864 135.79 39.504 135 40.784C134.211 42.064 133.816 44.0693 133.816 46.8C133.816 47.9733 133.902 49.0507 134.072 50.032C134.264 50.992 134.552 51.824 134.936 52.528C135.342 53.232 135.843 53.776 136.44 54.16C137.059 54.544 137.795 54.736 138.648 54.736C139.395 54.736 140.035 54.64 140.568 54.448C141.102 54.2347 141.582 53.9893 142.008 53.712L142.808 57.104ZM155.447 52.944H150.167L148.855 58H144.855L151.351 35.44H154.519L161.047 58H156.823L155.447 52.944ZM151.031 49.616H154.743L153.463 44.4L152.951 40.88H152.823L152.279 44.432L151.031 49.616ZM177.206 58H165.302V35.6H169.334V54.288H177.206V58ZM189.584 52.24C189.584 51.5573 189.382 50.9813 188.976 50.512C188.571 50.0213 188.059 49.5627 187.44 49.136C186.843 48.7093 186.182 48.272 185.456 47.824C184.752 47.376 184.091 46.8533 183.472 46.256C182.875 45.6587 182.374 44.9547 181.968 44.144C181.563 43.3333 181.36 42.3413 181.36 41.168C181.36 40.08 181.52 39.1627 181.84 38.416C182.182 37.648 182.64 37.0293 183.216 36.56C183.792 36.0693 184.475 35.7173 185.264 35.504C186.054 35.2693 186.896 35.152 187.792 35.152C188.88 35.152 189.894 35.2587 190.832 35.472C191.771 35.6853 192.55 35.9733 193.168 36.336L191.92 39.888C191.558 39.632 191.014 39.3973 190.288 39.184C189.584 38.9707 188.816 38.864 187.984 38.864C187.152 38.864 186.512 39.0347 186.064 39.376C185.616 39.7173 185.392 40.2187 185.392 40.88C185.392 41.4773 185.595 42.0107 186 42.48C186.406 42.928 186.907 43.3653 187.504 43.792C188.123 44.2187 188.784 44.6667 189.488 45.136C190.214 45.584 190.875 46.1173 191.472 46.736C192.091 47.3333 192.603 48.048 193.008 48.88C193.414 49.6907 193.616 50.6613 193.616 51.792C193.616 52.9227 193.446 53.904 193.104 54.736C192.784 55.568 192.315 56.2613 191.696 56.816C191.099 57.3493 190.374 57.7547 189.52 58.032C188.667 58.3093 187.718 58.448 186.672 58.448C185.35 58.448 184.187 58.32 183.184 58.064C182.203 57.808 181.446 57.52 180.912 57.2L182.224 53.584C182.651 53.84 183.238 54.096 183.984 54.352C184.731 54.608 185.531 54.736 186.384 54.736C188.518 54.736 189.584 53.904 189.584 52.24ZM198.303 55.92C198.303 55.1947 198.516 54.6293 198.943 54.224C199.37 53.7973 199.903 53.584 200.543 53.584C201.354 53.584 201.972 53.872 202.399 54.448C202.847 55.024 203.071 55.824 203.071 56.848C203.071 57.7867 202.932 58.5973 202.655 59.28C202.399 59.9627 202.079 60.528 201.695 60.976C201.311 61.4453 200.895 61.8187 200.447 62.096C200.02 62.3733 199.647 62.576 199.327 62.704L198.143 61.168C198.634 60.912 199.071 60.496 199.455 59.92C199.839 59.3653 200.052 58.8 200.095 58.224C199.647 58.2453 199.231 58.0747 198.847 57.712C198.484 57.328 198.303 56.7307 198.303 55.92ZM74.8135 89.4H73.9495V99H69.9175V76.6H73.9495V86.552L74.7495 86.168L79.4535 76.6H83.9975L78.8775 86.04L77.3735 87.224L78.9095 88.44L84.8295 99H79.9015L74.8135 89.4ZM89.3912 76.6H100.591V80.312H93.4232V85.816H99.9192V89.528H93.4232V95.288H100.719V99H89.3912V76.6ZM110.469 90.68L104.453 76.6H109.253L112.357 85.08L112.677 87.512H112.837L113.189 85.016L116.229 76.6H120.549L114.501 90.648V99H110.469V90.68ZM137.545 81.784C137.545 82.3387 137.481 82.8933 137.353 83.448C137.246 83.9813 137.065 84.4933 136.809 84.984C136.553 85.4533 136.212 85.8693 135.785 86.232C135.38 86.5947 134.889 86.872 134.313 87.064V87.256C134.825 87.384 135.305 87.576 135.753 87.832C136.222 88.088 136.628 88.44 136.969 88.888C137.31 89.3147 137.577 89.848 137.769 90.488C137.982 91.1067 138.089 91.8427 138.089 92.696C138.089 93.848 137.886 94.8507 137.481 95.704C137.097 96.536 136.564 97.2187 135.881 97.752C135.22 98.2853 134.441 98.68 133.545 98.936C132.649 99.192 131.7 99.32 130.697 99.32C130.398 99.32 130.014 99.32 129.545 99.32C129.076 99.32 128.564 99.2987 128.009 99.256C127.476 99.2347 126.921 99.192 126.345 99.128C125.769 99.064 125.236 98.968 124.745 98.84V76.76C125.449 76.632 126.313 76.5253 127.337 76.44C128.382 76.3333 129.417 76.28 130.441 76.28C131.38 76.28 132.276 76.3547 133.129 76.504C134.004 76.6533 134.761 76.9307 135.401 77.336C136.062 77.7413 136.585 78.3067 136.969 79.032C137.353 79.736 137.545 80.6533 137.545 81.784ZM130.793 95.832C131.689 95.832 132.425 95.544 133.001 94.968C133.577 94.392 133.865 93.5493 133.865 92.44C133.865 91.736 133.769 91.1813 133.577 90.776C133.385 90.3493 133.129 90.0293 132.809 89.816C132.489 89.5813 132.116 89.432 131.689 89.368C131.284 89.304 130.857 89.272 130.409 89.272H128.777V95.64C128.948 95.704 129.236 95.7573 129.641 95.8C130.068 95.8213 130.452 95.832 130.793 95.832ZM129.705 86.104C129.94 86.104 130.206 86.0933 130.505 86.072C130.825 86.0293 131.081 85.9867 131.273 85.944C131.892 85.7093 132.414 85.3253 132.841 84.792C133.289 84.2587 133.513 83.5653 133.513 82.712C133.513 82.1573 133.438 81.688 133.289 81.304C133.14 80.92 132.937 80.6213 132.681 80.408C132.425 80.1733 132.116 80.0133 131.753 79.928C131.412 79.8213 131.038 79.768 130.633 79.768C129.758 79.768 129.14 79.8107 128.777 79.896V86.104H129.705ZM142.8 87.8C142.8 84.0027 143.451 81.112 144.752 79.128C146.054 77.144 148.038 76.152 150.704 76.152C152.091 76.152 153.286 76.4293 154.288 76.984C155.291 77.5173 156.112 78.296 156.752 79.32C157.392 80.3227 157.862 81.5493 158.16 83C158.48 84.4293 158.64 86.0293 158.64 87.8C158.64 91.5973 157.968 94.488 156.624 96.472C155.302 98.456 153.328 99.448 150.704 99.448C149.296 99.448 148.091 99.1813 147.088 98.648C146.107 98.0933 145.296 97.3147 144.656 96.312C144.016 95.288 143.547 94.0613 143.248 92.632C142.95 91.1813 142.8 89.5707 142.8 87.8ZM147.024 87.8C147.024 88.9307 147.088 89.9867 147.216 90.968C147.344 91.928 147.558 92.76 147.856 93.464C148.155 94.168 148.528 94.7227 148.976 95.128C149.446 95.5333 150.022 95.736 150.704 95.736C151.942 95.736 152.87 95.1067 153.488 93.848C154.107 92.5893 154.416 90.5733 154.416 87.8C154.416 86.712 154.352 85.688 154.224 84.728C154.096 83.7467 153.883 82.904 153.584 82.2C153.307 81.4747 152.934 80.9093 152.464 80.504C151.995 80.0773 151.408 79.864 150.704 79.864C148.251 79.864 147.024 82.5093 147.024 87.8ZM172.092 93.944H166.812L165.5 99H161.5L167.996 76.44H171.164L177.692 99H173.468L172.092 93.944ZM167.676 90.616H171.388L170.108 85.4L169.596 81.88H169.468L168.924 85.432L167.676 90.616ZM181.948 76.824C182.822 76.632 183.761 76.4933 184.764 76.408C185.766 76.3227 186.63 76.28 187.356 76.28C188.273 76.28 189.169 76.376 190.044 76.568C190.918 76.7387 191.686 77.0693 192.348 77.56C193.03 78.0293 193.574 78.68 193.98 79.512C194.406 80.3227 194.62 81.3573 194.62 82.616C194.62 84.4293 194.278 85.912 193.596 87.064C192.934 88.1947 192.017 88.9733 190.844 89.4L192.124 90.424L196.252 99H191.612L187.708 90.168L185.98 89.752V99H181.948V76.824ZM185.98 87H187.356C188.358 87 189.116 86.7013 189.628 86.104C190.14 85.4853 190.396 84.536 190.396 83.256C190.396 82.296 190.182 81.5173 189.756 80.92C189.329 80.3013 188.657 79.992 187.74 79.992C187.398 79.992 187.068 80.0027 186.748 80.024C186.428 80.0453 186.172 80.088 185.98 80.152V87ZM200.921 76.6C201.305 76.536 201.732 76.4933 202.201 76.472C202.692 76.4293 203.183 76.3973 203.673 76.376C204.185 76.3333 204.676 76.312 205.145 76.312C205.615 76.2907 206.031 76.28 206.393 76.28C208.164 76.28 209.636 76.5573 210.809 77.112C212.004 77.6453 212.953 78.4133 213.657 79.416C214.383 80.3973 214.895 81.5813 215.193 82.968C215.492 84.3547 215.641 85.9013 215.641 87.608C215.641 89.1653 215.492 90.6587 215.193 92.088C214.916 93.496 214.415 94.744 213.689 95.832C212.964 96.8987 211.983 97.752 210.745 98.392C209.508 99.032 207.951 99.352 206.073 99.352C205.796 99.352 205.423 99.3413 204.953 99.32C204.484 99.2987 203.993 99.2667 203.481 99.224C202.969 99.2027 202.479 99.1707 202.009 99.128C201.54 99.1067 201.177 99.0747 200.921 99.032V76.6ZM206.809 79.992C206.468 79.992 206.116 80.0027 205.753 80.024C205.412 80.024 205.145 80.0453 204.953 80.088V95.512C205.017 95.5333 205.124 95.5547 205.273 95.576C205.444 95.576 205.615 95.5867 205.785 95.608C205.977 95.608 206.148 95.6187 206.297 95.64C206.468 95.64 206.585 95.64 206.649 95.64C207.609 95.64 208.399 95.416 209.017 94.968C209.636 94.52 210.116 93.9227 210.457 93.176C210.82 92.4293 211.065 91.576 211.193 90.616C211.343 89.6347 211.417 88.6107 211.417 87.544C211.417 86.5627 211.353 85.6133 211.225 84.696C211.119 83.7787 210.895 82.9787 210.553 82.296C210.233 81.592 209.764 81.0373 209.145 80.632C208.548 80.2053 207.769 79.992 206.809 79.992ZM219.73 96.92C219.73 96.1947 219.943 95.6293 220.37 95.224C220.796 94.7973 221.33 94.584 221.97 94.584C222.78 94.584 223.399 94.872 223.826 95.448C224.274 96.024 224.498 96.824 224.498 97.848C224.498 98.7867 224.359 99.5973 224.082 100.28C223.826 100.963 223.506 101.528 223.122 101.976C222.738 102.445 222.322 102.819 221.874 103.096C221.447 103.373 221.074 103.576 220.754 103.704L219.57 102.168C220.06 101.912 220.498 101.496 220.882 100.92C221.266 100.365 221.479 99.8 221.522 99.224C221.074 99.2453 220.658 99.0747 220.274 98.712C219.911 98.328 219.73 97.7307 219.73 96.92ZM65.445 134.24C65.445 133.557 65.2423 132.981 64.837 132.512C64.4317 132.021 63.9197 131.563 63.301 131.136C62.7037 130.709 62.0423 130.272 61.317 129.824C60.613 129.376 59.9517 128.853 59.333 128.256C58.7357 127.659 58.2343 126.955 57.829 126.144C57.4237 125.333 57.221 124.341 57.221 123.168C57.221 122.08 57.381 121.163 57.701 120.416C58.0423 119.648 58.501 119.029 59.077 118.56C59.653 118.069 60.3357 117.717 61.125 117.504C61.9143 117.269 62.757 117.152 63.653 117.152C64.741 117.152 65.7543 117.259 66.693 117.472C67.6317 117.685 68.4103 117.973 69.029 118.336L67.781 121.888C67.4183 121.632 66.8743 121.397 66.149 121.184C65.445 120.971 64.677 120.864 63.845 120.864C63.013 120.864 62.373 121.035 61.925 121.376C61.477 121.717 61.253 122.219 61.253 122.88C61.253 123.477 61.4557 124.011 61.861 124.48C62.2663 124.928 62.7677 125.365 63.365 125.792C63.9837 126.219 64.645 126.667 65.349 127.136C66.0743 127.584 66.7357 128.117 67.333 128.736C67.9517 129.333 68.4637 130.048 68.869 130.88C69.2743 131.691 69.477 132.661 69.477 133.792C69.477 134.923 69.3063 135.904 68.965 136.736C68.645 137.568 68.1757 138.261 67.557 138.816C66.9597 139.349 66.2343 139.755 65.381 140.032C64.5277 140.309 63.5783 140.448 62.533 140.448C61.2103 140.448 60.0477 140.32 59.045 140.064C58.0637 139.808 57.3063 139.52 56.773 139.2L58.085 135.584C58.5117 135.84 59.0983 136.096 59.845 136.352C60.5917 136.608 61.3917 136.736 62.245 136.736C64.3783 136.736 65.445 135.904 65.445 134.24ZM74.0355 128.8C74.0355 125.003 74.6862 122.112 75.9875 120.128C77.2888 118.144 79.2728 117.152 81.9395 117.152C83.3262 117.152 84.5208 117.429 85.5235 117.984C86.5262 118.517 87.3475 119.296 87.9875 120.32C88.6275 121.323 89.0968 122.549 89.3955 124C89.7155 125.429 89.8755 127.029 89.8755 128.8C89.8755 132.597 89.2035 135.488 87.8595 137.472C86.5368 139.456 84.5635 140.448 81.9395 140.448C80.5315 140.448 79.3262 140.181 78.3235 139.648C77.3422 139.093 76.5315 138.315 75.8915 137.312C75.2515 136.288 74.7822 135.061 74.4835 133.632C74.1848 132.181 74.0355 130.571 74.0355 128.8ZM78.2595 128.8C78.2595 129.931 78.3235 130.987 78.4515 131.968C78.5795 132.928 78.7928 133.76 79.0915 134.464C79.3902 135.168 79.7635 135.723 80.2115 136.128C80.6808 136.533 81.2568 136.736 81.9395 136.736C83.1768 136.736 84.1048 136.107 84.7235 134.848C85.3422 133.589 85.6515 131.573 85.6515 128.8C85.6515 127.712 85.5875 126.688 85.4595 125.728C85.3315 124.747 85.1182 123.904 84.8195 123.2C84.5422 122.475 84.1688 121.909 83.6995 121.504C83.2302 121.077 82.6435 120.864 81.9395 120.864C79.4862 120.864 78.2595 123.509 78.2595 128.8ZM100.043 128.992L98.571 125.056H98.411L98.923 128.928V140H95.115V117.44H98.219L104.651 128.704L106.027 132.576H106.219L105.707 128.768V117.6H109.515V140.16H106.411L100.043 128.992ZM122.06 128.416H128.972V138.336C128.183 139.083 127.255 139.627 126.188 139.968C125.143 140.288 124.098 140.448 123.052 140.448C121.794 140.448 120.652 140.224 119.628 139.776C118.604 139.328 117.73 138.635 117.004 137.696C116.3 136.736 115.746 135.531 115.34 134.08C114.956 132.608 114.764 130.848 114.764 128.8C114.764 126.667 114.999 124.864 115.468 123.392C115.938 121.92 116.556 120.725 117.324 119.808C118.114 118.869 119.02 118.197 120.044 117.792C121.09 117.365 122.188 117.152 123.34 117.152C124.364 117.152 125.292 117.248 126.124 117.44C126.978 117.611 127.682 117.813 128.236 118.048L127.404 121.536C126.978 121.344 126.476 121.184 125.9 121.056C125.346 120.928 124.663 120.864 123.852 120.864C123.106 120.864 122.423 121.013 121.804 121.312C121.207 121.611 120.695 122.08 120.268 122.72C119.863 123.36 119.543 124.192 119.308 125.216C119.095 126.219 118.988 127.424 118.988 128.832C118.988 131.541 119.394 133.536 120.204 134.816C121.036 136.096 122.124 136.736 123.468 136.736C123.895 136.736 124.3 136.672 124.684 136.544C125.09 136.416 125.442 136.213 125.74 135.936V131.36L122.06 130.848V128.416ZM139.339 129.92L139.659 133.952H139.787L140.139 129.856L143.147 117.6H145.963L148.875 129.92L149.227 133.952H149.355L149.707 129.856L151.691 117.6H155.787L150.763 140.16H147.915L144.779 127.808L144.363 124.32H144.203L143.819 127.84L140.683 140.16H137.707L132.715 117.6H137.163L139.339 129.92ZM160.036 117.824C160.911 117.632 161.85 117.493 162.852 117.408C163.855 117.323 164.719 117.28 165.444 117.28C166.362 117.28 167.258 117.376 168.132 117.568C169.007 117.739 169.775 118.069 170.436 118.56C171.119 119.029 171.663 119.68 172.068 120.512C172.495 121.323 172.708 122.357 172.708 123.616C172.708 125.429 172.367 126.912 171.684 128.064C171.023 129.195 170.106 129.973 168.932 130.4L170.212 131.424L174.34 140H169.7L165.796 131.168L164.068 130.752V140H160.036V117.824ZM164.068 128H165.444C166.447 128 167.204 127.701 167.716 127.104C168.228 126.485 168.484 125.536 168.484 124.256C168.484 123.296 168.271 122.517 167.844 121.92C167.418 121.301 166.746 120.992 165.828 120.992C165.487 120.992 165.156 121.003 164.836 121.024C164.516 121.045 164.26 121.088 164.068 121.152V128ZM179.362 117.6H183.394V140H179.362V117.6ZM202.987 121.312H197.675V140H193.643V121.312H188.331V117.6H202.987V121.312ZM207.551 117.6H218.751V121.312H211.583V126.816H218.079V130.528H211.583V136.288H218.879V140H207.551V117.6ZM224.181 117.824C225.056 117.632 225.995 117.493 226.997 117.408C228 117.323 228.864 117.28 229.589 117.28C230.507 117.28 231.403 117.376 232.277 117.568C233.152 117.739 233.92 118.069 234.581 118.56C235.264 119.029 235.808 119.68 236.213 120.512C236.64 121.323 236.853 122.357 236.853 123.616C236.853 125.429 236.512 126.912 235.829 128.064C235.168 129.195 234.251 129.973 233.077 130.4L234.357 131.424L238.485 140H233.845L229.941 131.168L228.213 130.752V140H224.181V117.824ZM228.213 128H229.589C230.592 128 231.349 127.701 231.861 127.104C232.373 126.485 232.629 125.536 232.629 124.256C232.629 123.296 232.416 122.517 231.989 121.92C231.563 121.301 230.891 120.992 229.973 120.992C229.632 120.992 229.301 121.003 228.981 121.024C228.661 121.045 228.405 121.088 228.213 121.152V128ZM91.5928 196.16C90.8834 195.264 90.2861 194.275 89.8008 193.192C89.3341 192.128 88.9514 191.036 88.6528 189.916C88.3541 188.777 88.1394 187.639 88.0088 186.5C87.8781 185.343 87.8128 184.241 87.8128 183.196C87.8128 182.169 87.8781 181.087 88.0088 179.948C88.1394 178.809 88.3541 177.671 88.6528 176.532C88.9514 175.375 89.3434 174.245 89.8288 173.144C90.3328 172.043 90.9394 171.016 91.6488 170.064L92.9088 170.82C92.3114 171.772 91.8168 172.771 91.4248 173.816C91.0328 174.861 90.7154 175.925 90.4728 177.008C90.2488 178.072 90.0808 179.136 89.9688 180.2C89.8754 181.245 89.8288 182.244 89.8288 183.196C89.8288 184.092 89.8848 185.081 89.9968 186.164C90.1088 187.228 90.2861 188.301 90.5288 189.384C90.7901 190.467 91.1168 191.521 91.5088 192.548C91.9008 193.575 92.3674 194.499 92.9088 195.32L91.5928 196.16ZM95.6359 188.124H98.7999V174.488L99.0519 172.836L98.0999 174.18L95.7479 176.084L94.6839 174.824L99.7799 170.064H100.816V188.124H103.868V190H95.6359V188.124ZM106.897 176.336C106.897 174.395 107.308 172.864 108.129 171.744C108.969 170.624 110.211 170.064 111.853 170.064C113.421 170.064 114.635 170.643 115.493 171.8C116.371 172.957 116.809 174.731 116.809 177.12C116.809 179.229 116.613 181.068 116.221 182.636C115.829 184.185 115.288 185.501 114.597 186.584C113.907 187.648 113.095 188.488 112.161 189.104C111.228 189.72 110.22 190.131 109.137 190.336L108.605 188.684C110.397 188.217 111.788 187.284 112.777 185.884C113.767 184.465 114.392 182.692 114.653 180.564C114.261 181.105 113.823 181.488 113.337 181.712C112.871 181.936 112.245 182.048 111.461 182.048C110.864 182.048 110.285 181.936 109.725 181.712C109.184 181.469 108.699 181.115 108.269 180.648C107.859 180.163 107.523 179.565 107.261 178.856C107.019 178.128 106.897 177.288 106.897 176.336ZM108.941 176.112C108.941 177.437 109.212 178.455 109.753 179.164C110.295 179.873 111.013 180.228 111.909 180.228C112.619 180.228 113.216 180.079 113.701 179.78C114.205 179.463 114.569 179.061 114.793 178.576C114.831 178.333 114.849 178.1 114.849 177.876C114.849 177.652 114.849 177.437 114.849 177.232C114.849 176.523 114.784 175.851 114.653 175.216C114.541 174.563 114.355 173.993 114.093 173.508C113.851 173.004 113.533 172.612 113.141 172.332C112.749 172.033 112.283 171.884 111.741 171.884C110.864 171.884 110.173 172.267 109.669 173.032C109.184 173.797 108.941 174.824 108.941 176.112ZM130.283 183.98H127.679V190H125.663V183.98H118.775V183.028L126.195 170.092H127.679V182.16H130.283V183.98ZM125.663 175.888L125.999 173.48H125.915L125.075 175.636L121.995 180.984L120.931 182.356L122.471 182.16H125.663V175.888ZM133.424 187.872C133.779 188.077 134.18 188.236 134.628 188.348C135.095 188.46 135.627 188.516 136.224 188.516C136.728 188.516 137.186 188.413 137.596 188.208C138.026 188.003 138.39 187.713 138.688 187.34C139.006 186.967 139.248 186.528 139.416 186.024C139.584 185.501 139.668 184.932 139.668 184.316C139.668 182.935 139.36 181.927 138.744 181.292C138.147 180.657 137.307 180.34 136.224 180.34H134.544V179.528L137.792 173.256L138.884 172.08L137.344 172.276H132.948V170.4H141.068V171.212L137.484 177.904L136.644 178.716V178.772L137.456 178.604C138.035 178.604 138.586 178.725 139.108 178.968C139.631 179.192 140.079 179.537 140.452 180.004C140.826 180.452 141.124 181.012 141.348 181.684C141.572 182.356 141.684 183.14 141.684 184.036C141.684 185.044 141.535 185.94 141.236 186.724C140.956 187.508 140.564 188.171 140.06 188.712C139.575 189.235 138.996 189.636 138.324 189.916C137.671 190.196 136.971 190.336 136.224 190.336C135.571 190.336 134.955 190.28 134.376 190.168C133.798 190.056 133.294 189.897 132.864 189.692L133.424 187.872ZM144.742 181.04H150.258V182.972H144.742V181.04ZM161.878 174.684C161.878 175.711 161.72 176.784 161.402 177.904C161.104 179.024 160.712 180.135 160.226 181.236C159.76 182.319 159.228 183.364 158.63 184.372C158.052 185.38 157.482 186.276 156.922 187.06L155.802 188.292V188.376L157.286 188.124H162.186V190H153.114V189.104C153.469 188.675 153.88 188.133 154.346 187.48C154.813 186.827 155.289 186.117 155.774 185.352C156.278 184.568 156.764 183.747 157.23 182.888C157.716 182.011 158.145 181.124 158.518 180.228C158.892 179.332 159.19 178.445 159.414 177.568C159.657 176.691 159.778 175.851 159.778 175.048C159.778 174.096 159.554 173.34 159.106 172.78C158.677 172.22 158.042 171.94 157.202 171.94C156.661 171.94 156.129 172.043 155.606 172.248C155.102 172.435 154.664 172.677 154.29 172.976L153.506 171.492C154.01 171.044 154.626 170.699 155.354 170.456C156.082 170.195 156.848 170.064 157.65 170.064C159.032 170.064 160.077 170.493 160.786 171.352C161.514 172.192 161.878 173.303 161.878 174.684ZM165.244 180.2C165.244 178.408 165.356 176.868 165.58 175.58C165.804 174.292 166.14 173.247 166.588 172.444C167.036 171.623 167.586 171.025 168.24 170.652C168.893 170.26 169.64 170.064 170.48 170.064C171.376 170.064 172.15 170.26 172.804 170.652C173.476 171.025 174.026 171.623 174.456 172.444C174.885 173.247 175.202 174.292 175.408 175.58C175.613 176.868 175.716 178.408 175.716 180.2C175.716 182.011 175.604 183.56 175.38 184.848C175.156 186.117 174.82 187.163 174.372 187.984C173.924 188.787 173.373 189.384 172.72 189.776C172.085 190.149 171.348 190.336 170.508 190.336C169.593 190.336 168.8 190.14 168.128 189.748C167.474 189.356 166.933 188.749 166.504 187.928C166.074 187.107 165.757 186.061 165.552 184.792C165.346 183.504 165.244 181.973 165.244 180.2ZM167.344 180.2C167.344 182.869 167.596 184.923 168.1 186.36C168.604 187.797 169.416 188.516 170.536 188.516C171.618 188.516 172.402 187.863 172.888 186.556C173.392 185.231 173.644 183.112 173.644 180.2C173.644 177.549 173.401 175.505 172.916 174.068C172.449 172.612 171.637 171.884 170.48 171.884C169.397 171.884 168.604 172.537 168.1 173.844C167.596 175.151 167.344 177.269 167.344 180.2ZM187.089 174.684C187.089 175.711 186.93 176.784 186.613 177.904C186.314 179.024 185.922 180.135 185.437 181.236C184.97 182.319 184.438 183.364 183.841 184.372C183.262 185.38 182.693 186.276 182.133 187.06L181.013 188.292V188.376L182.497 188.124H187.397V190H178.325V189.104C178.68 188.675 179.09 188.133 179.557 187.48C180.024 186.827 180.5 186.117 180.985 185.352C181.489 184.568 181.974 183.747 182.441 182.888C182.926 182.011 183.356 181.124 183.729 180.228C184.102 179.332 184.401 178.445 184.625 177.568C184.868 176.691 184.989 175.851 184.989 175.048C184.989 174.096 184.765 173.34 184.317 172.78C183.888 172.22 183.253 171.94 182.413 171.94C181.872 171.94 181.34 172.043 180.817 172.248C180.313 172.435 179.874 172.677 179.501 172.976L178.717 171.492C179.221 171.044 179.837 170.699 180.565 170.456C181.293 170.195 182.058 170.064 182.861 170.064C184.242 170.064 185.288 170.493 185.997 171.352C186.725 172.192 187.089 173.303 187.089 174.684ZM199.695 174.684C199.695 175.711 199.536 176.784 199.219 177.904C198.92 179.024 198.528 180.135 198.043 181.236C197.576 182.319 197.044 183.364 196.447 184.372C195.868 185.38 195.299 186.276 194.739 187.06L193.619 188.292V188.376L195.103 188.124H200.003V190H190.931V189.104C191.285 188.675 191.696 188.133 192.163 187.48C192.629 186.827 193.105 186.117 193.591 185.352C194.095 184.568 194.58 183.747 195.047 182.888C195.532 182.011 195.961 181.124 196.335 180.228C196.708 179.332 197.007 178.445 197.231 177.568C197.473 176.691 197.595 175.851 197.595 175.048C197.595 174.096 197.371 173.34 196.923 172.78C196.493 172.22 195.859 171.94 195.019 171.94C194.477 171.94 193.945 172.043 193.423 172.248C192.919 172.435 192.48 172.677 192.107 172.976L191.323 171.492C191.827 171.044 192.443 170.699 193.171 170.456C193.899 170.195 194.664 170.064 195.467 170.064C196.848 170.064 197.893 170.493 198.603 171.352C199.331 172.192 199.695 173.303 199.695 174.684ZM203.34 195.32C203.881 194.499 204.348 193.575 204.74 192.548C205.132 191.521 205.449 190.467 205.692 189.384C205.953 188.301 206.14 187.228 206.252 186.164C206.364 185.081 206.42 184.092 206.42 183.196C206.42 182.244 206.364 181.245 206.252 180.2C206.159 179.136 205.991 178.072 205.748 177.008C205.524 175.925 205.207 174.861 204.796 173.816C204.404 172.771 203.919 171.772 203.34 170.82L204.6 170.064C205.309 171.016 205.907 172.043 206.392 173.144C206.896 174.245 207.297 175.375 207.596 176.532C207.895 177.671 208.109 178.809 208.24 179.948C208.371 181.087 208.436 182.169 208.436 183.196C208.436 184.241 208.371 185.343 208.24 186.5C208.109 187.639 207.895 188.777 207.596 189.916C207.297 191.036 206.905 192.128 206.42 193.192C205.935 194.275 205.347 195.264 204.656 196.16L203.34 195.32ZM104.826 210.852C104.826 211.337 104.77 211.823 104.658 212.308C104.546 212.793 104.369 213.251 104.126 213.68C103.884 214.109 103.576 214.492 103.202 214.828C102.848 215.164 102.409 215.416 101.886 215.584V215.696C102.334 215.789 102.764 215.948 103.174 216.172C103.585 216.377 103.949 216.676 104.266 217.068C104.584 217.441 104.836 217.908 105.022 218.468C105.209 219.009 105.302 219.663 105.302 220.428C105.302 221.436 105.144 222.313 104.826 223.06C104.509 223.788 104.07 224.385 103.51 224.852C102.969 225.319 102.334 225.664 101.606 225.888C100.897 226.112 100.141 226.224 99.3384 226.224C99.077 226.224 98.769 226.224 98.4144 226.224C98.0784 226.224 97.7144 226.205 97.3224 226.168C96.9304 226.149 96.5384 226.112 96.1464 226.056C95.773 226.019 95.4277 225.953 95.1104 225.86V206.568C95.6704 206.456 96.3237 206.363 97.0704 206.288C97.8357 206.213 98.657 206.176 99.5344 206.176C100.169 206.176 100.804 206.241 101.438 206.372C102.073 206.484 102.642 206.708 103.146 207.044C103.65 207.38 104.052 207.856 104.35 208.472C104.668 209.069 104.826 209.863 104.826 210.852ZM99.5064 224.292C100.01 224.292 100.477 224.217 100.906 224.068C101.336 223.9 101.709 223.657 102.026 223.34C102.362 223.023 102.624 222.64 102.81 222.192C102.997 221.725 103.09 221.184 103.09 220.568C103.09 219.803 102.969 219.187 102.726 218.72C102.502 218.235 102.204 217.861 101.83 217.6C101.457 217.339 101.028 217.161 100.542 217.068C100.076 216.975 99.5904 216.928 99.0864 216.928H97.2104V224.096C97.3224 224.133 97.4624 224.161 97.6304 224.18C97.817 224.199 98.013 224.217 98.2184 224.236C98.4424 224.255 98.6664 224.273 98.8904 224.292C99.1144 224.292 99.3197 224.292 99.5064 224.292ZM98.3584 215.108C98.6197 215.108 98.9184 215.099 99.2544 215.08C99.5904 215.061 99.8704 215.033 100.094 214.996C100.785 214.716 101.373 214.268 101.858 213.652C102.362 213.017 102.614 212.243 102.614 211.328C102.614 210.712 102.53 210.199 102.362 209.788C102.194 209.359 101.961 209.023 101.662 208.78C101.382 208.537 101.046 208.369 100.654 208.276C100.262 208.164 99.8517 208.108 99.4224 208.108C98.937 208.108 98.4984 208.127 98.1064 208.164C97.7144 208.183 97.4157 208.211 97.2104 208.248V215.108H98.3584ZM107.702 216.2C107.702 212.877 108.234 210.357 109.298 208.64C110.362 206.923 111.986 206.064 114.17 206.064C115.346 206.064 116.345 206.307 117.166 206.792C117.987 207.259 118.65 207.931 119.154 208.808C119.677 209.685 120.059 210.749 120.302 212C120.545 213.251 120.666 214.651 120.666 216.2C120.666 219.523 120.125 222.043 119.042 223.76C117.978 225.477 116.354 226.336 114.17 226.336C113.013 226.336 112.023 226.103 111.202 225.636C110.381 225.151 109.709 224.469 109.186 223.592C108.663 222.715 108.281 221.651 108.038 220.4C107.814 219.149 107.702 217.749 107.702 216.2ZM109.914 216.2C109.914 217.301 109.989 218.347 110.138 219.336C110.306 220.325 110.558 221.193 110.894 221.94C111.23 222.687 111.669 223.284 112.21 223.732C112.751 224.18 113.405 224.404 114.17 224.404C115.57 224.404 116.634 223.732 117.362 222.388C118.09 221.044 118.454 218.981 118.454 216.2C118.454 215.117 118.37 214.081 118.202 213.092C118.053 212.103 117.81 211.235 117.474 210.488C117.138 209.723 116.699 209.116 116.158 208.668C115.617 208.22 114.954 207.996 114.17 207.996C112.789 207.996 111.734 208.668 111.006 210.012C110.278 211.356 109.914 213.419 109.914 216.2ZM132.645 206.4H134.661V219.532C134.661 221.903 134.195 223.62 133.261 224.684C132.347 225.729 131.04 226.252 129.341 226.252C127.363 226.252 125.916 225.739 125.001 224.712C124.105 223.685 123.657 222.108 123.657 219.98V206.4H125.757V218.888C125.757 219.896 125.823 220.745 125.953 221.436C126.084 222.127 126.299 222.687 126.597 223.116C126.896 223.545 127.269 223.853 127.717 224.04C128.165 224.227 128.716 224.32 129.369 224.32C130.601 224.32 131.451 223.891 131.917 223.032C132.403 222.173 132.645 220.792 132.645 218.888V206.4ZM148.591 208.332H143.775V226H141.675V208.332H136.859V206.4H148.591V208.332ZM160.106 216.956H152.882V226H150.782V206.4H152.882V215.024H160.106V206.4H162.206V226H160.106V216.956ZM165.01 224.796C165.01 224.329 165.141 223.956 165.402 223.676C165.682 223.396 166.037 223.256 166.466 223.256C166.951 223.256 167.343 223.452 167.642 223.844C167.959 224.236 168.118 224.852 168.118 225.692C168.118 226.308 168.034 226.859 167.866 227.344C167.717 227.848 167.511 228.287 167.25 228.66C167.007 229.033 166.737 229.341 166.438 229.584C166.139 229.827 165.85 230.004 165.57 230.116L164.87 229.164C165.113 229.033 165.337 228.856 165.542 228.632C165.766 228.427 165.943 228.193 166.074 227.932C166.223 227.671 166.335 227.391 166.41 227.092C166.485 226.812 166.522 226.532 166.522 226.252C166.149 226.364 165.803 226.289 165.486 226.028C165.169 225.767 165.01 225.356 165.01 224.796ZM184.051 206.4H186.067V219.532C186.067 221.903 185.601 223.62 184.667 224.684C183.753 225.729 182.446 226.252 180.747 226.252C178.769 226.252 177.322 225.739 176.407 224.712C175.511 223.685 175.063 222.108 175.063 219.98V206.4H177.163V218.888C177.163 219.896 177.229 220.745 177.359 221.436C177.49 222.127 177.705 222.687 178.003 223.116C178.302 223.545 178.675 223.853 179.123 224.04C179.571 224.227 180.122 224.32 180.775 224.32C182.007 224.32 182.857 223.891 183.323 223.032C183.809 222.173 184.051 220.792 184.051 218.888V206.4ZM192.773 216.928H191.765V226H189.665V206.4H191.765V215.528L192.745 215.136L197.841 206.4H200.249L195.125 214.856L194.145 215.752L195.293 216.872L200.977 226H198.317L192.773 216.928ZM83.8228 242.4H85.9228V257.604C85.9228 259.135 85.6708 260.301 85.1668 261.104C84.6814 261.888 83.8228 262.28 82.5908 262.28C82.2921 262.28 81.9281 262.243 81.4988 262.168C81.0881 262.093 80.7521 261.981 80.4907 261.832L80.9387 260.012C81.1254 260.124 81.3308 260.208 81.5548 260.264C81.7974 260.32 82.0401 260.348 82.2828 260.348C82.6188 260.348 82.8894 260.273 83.0948 260.124C83.3001 259.975 83.4588 259.769 83.5708 259.508C83.6828 259.228 83.7481 258.901 83.7668 258.528C83.8041 258.136 83.8228 257.697 83.8228 257.212V242.4ZM89.1767 252.2C89.1767 248.877 89.7087 246.357 90.7727 244.64C91.8367 242.923 93.4607 242.064 95.6447 242.064C96.8207 242.064 97.8193 242.307 98.6407 242.792C99.462 243.259 100.125 243.931 100.629 244.808C101.151 245.685 101.534 246.749 101.777 248C102.019 249.251 102.141 250.651 102.141 252.2C102.141 255.523 101.599 258.043 100.517 259.76C99.4527 261.477 97.8287 262.336 95.6447 262.336C94.4873 262.336 93.498 262.103 92.6767 261.636C91.8553 261.151 91.1833 260.469 90.6607 259.592C90.138 258.715 89.7553 257.651 89.5127 256.4C89.2887 255.149 89.1767 253.749 89.1767 252.2ZM91.3887 252.2C91.3887 253.301 91.4633 254.347 91.6127 255.336C91.7807 256.325 92.0327 257.193 92.3687 257.94C92.7047 258.687 93.1433 259.284 93.6847 259.732C94.226 260.18 94.8793 260.404 95.6447 260.404C97.0447 260.404 98.1087 259.732 98.8367 258.388C99.5647 257.044 99.9287 254.981 99.9287 252.2C99.9287 251.117 99.8447 250.081 99.6767 249.092C99.5273 248.103 99.2847 247.235 98.9487 246.488C98.6127 245.723 98.174 245.116 97.6327 244.668C97.0913 244.22 96.4287 243.996 95.6447 243.996C94.2633 243.996 93.2087 244.668 92.4807 246.012C91.7527 247.356 91.3887 249.419 91.3887 252.2ZM105.552 242.4H107.652V262H105.552V242.4ZM114.663 249.568L113.459 246.488H113.375L113.683 249.568V262H111.667V242.092H112.927L120.179 254.804L121.327 257.744H121.439L121.131 254.804V242.4H123.147V262.308H121.859L114.663 249.568ZM126.733 242.4H135.441V244.332H128.833V250.968H134.909V252.9H128.833V260.068H135.581V262H126.733V242.4ZM138.737 242.4C139.036 242.344 139.363 242.307 139.717 242.288C140.091 242.251 140.464 242.232 140.837 242.232C141.211 242.213 141.575 242.204 141.929 242.204C142.303 242.185 142.648 242.176 142.965 242.176C144.328 242.176 145.485 242.409 146.437 242.876C147.389 243.343 148.164 244.015 148.761 244.892C149.359 245.751 149.788 246.787 150.049 248C150.311 249.213 150.441 250.567 150.441 252.06C150.441 253.404 150.311 254.692 150.049 255.924C149.807 257.156 149.387 258.239 148.789 259.172C148.192 260.105 147.399 260.852 146.409 261.412C145.439 261.972 144.216 262.252 142.741 262.252C142.499 262.252 142.191 262.243 141.817 262.224C141.444 262.224 141.052 262.205 140.641 262.168C140.249 262.149 139.876 262.131 139.521 262.112C139.185 262.093 138.924 262.065 138.737 262.028V242.4ZM143.077 244.108C142.891 244.108 142.685 244.108 142.461 244.108C142.256 244.108 142.051 244.117 141.845 244.136C141.64 244.155 141.444 244.173 141.257 244.192C141.089 244.211 140.949 244.229 140.837 244.248V260.208C140.912 260.227 141.043 260.245 141.229 260.264C141.435 260.264 141.64 260.273 141.845 260.292C142.069 260.292 142.275 260.301 142.461 260.32C142.667 260.32 142.816 260.32 142.909 260.32C143.936 260.32 144.795 260.096 145.485 259.648C146.176 259.2 146.717 258.603 147.109 257.856C147.52 257.091 147.809 256.213 147.977 255.224C148.145 254.216 148.229 253.152 148.229 252.032C148.229 251.043 148.155 250.072 148.005 249.12C147.856 248.168 147.585 247.328 147.193 246.6C146.82 245.853 146.297 245.256 145.625 244.808C144.972 244.341 144.123 244.108 143.077 244.108ZM153.784 249.456C153.784 248.933 153.906 248.541 154.148 248.28C154.41 248.019 154.755 247.888 155.184 247.888C155.614 247.888 155.95 248.019 156.192 248.28C156.454 248.541 156.584 248.933 156.584 249.456C156.584 249.997 156.454 250.399 156.192 250.66C155.95 250.921 155.614 251.052 155.184 251.052C154.755 251.052 154.41 250.921 154.148 250.66C153.906 250.399 153.784 249.997 153.784 249.456ZM153.784 260.74C153.784 260.217 153.906 259.825 154.148 259.564C154.41 259.303 154.755 259.172 155.184 259.172C155.614 259.172 155.95 259.303 156.192 259.564C156.454 259.825 156.584 260.217 156.584 260.74C156.584 261.281 156.454 261.683 156.192 261.944C155.95 262.205 155.614 262.336 155.184 262.336C154.755 262.336 154.41 262.205 154.148 261.944C153.906 261.683 153.784 261.281 153.784 260.74ZM165.991 260.124H169.155V246.488L169.407 244.836L168.455 246.18L166.103 248.084L165.039 246.824L170.135 242.064H171.171V260.124H174.223V262H165.991V260.124ZM177.253 248.336C177.253 246.395 177.664 244.864 178.485 243.744C179.325 242.624 180.566 242.064 182.209 242.064C183.777 242.064 184.99 242.643 185.849 243.8C186.726 244.957 187.165 246.731 187.165 249.12C187.165 251.229 186.969 253.068 186.577 254.636C186.185 256.185 185.644 257.501 184.953 258.584C184.262 259.648 183.45 260.488 182.517 261.104C181.584 261.72 180.576 262.131 179.493 262.336L178.961 260.684C180.753 260.217 182.144 259.284 183.133 257.884C184.122 256.465 184.748 254.692 185.009 252.564C184.617 253.105 184.178 253.488 183.693 253.712C183.226 253.936 182.601 254.048 181.817 254.048C181.22 254.048 180.641 253.936 180.081 253.712C179.54 253.469 179.054 253.115 178.625 252.648C178.214 252.163 177.878 251.565 177.617 250.856C177.374 250.128 177.253 249.288 177.253 248.336ZM179.297 248.112C179.297 249.437 179.568 250.455 180.109 251.164C180.65 251.873 181.369 252.228 182.265 252.228C182.974 252.228 183.572 252.079 184.057 251.78C184.561 251.463 184.925 251.061 185.149 250.576C185.186 250.333 185.205 250.1 185.205 249.876C185.205 249.652 185.205 249.437 185.205 249.232C185.205 248.523 185.14 247.851 185.009 247.216C184.897 246.563 184.71 245.993 184.449 245.508C184.206 245.004 183.889 244.612 183.497 244.332C183.105 244.033 182.638 243.884 182.097 243.884C181.22 243.884 180.529 244.267 180.025 245.032C179.54 245.797 179.297 246.824 179.297 248.112ZM191.23 262L196.886 245.452L197.894 244.08L196.55 244.332H190.138V242.4H199.686V243.156L193.246 262H191.23ZM202.24 252.2C202.24 250.408 202.352 248.868 202.576 247.58C202.8 246.292 203.136 245.247 203.584 244.444C204.032 243.623 204.582 243.025 205.236 242.652C205.889 242.26 206.636 242.064 207.476 242.064C208.372 242.064 209.146 242.26 209.8 242.652C210.472 243.025 211.022 243.623 211.452 244.444C211.881 245.247 212.198 246.292 212.404 247.58C212.609 248.868 212.712 250.408 212.712 252.2C212.712 254.011 212.6 255.56 212.376 256.848C212.152 258.117 211.816 259.163 211.368 259.984C210.92 260.787 210.369 261.384 209.716 261.776C209.081 262.149 208.344 262.336 207.504 262.336C206.589 262.336 205.796 262.14 205.124 261.748C204.47 261.356 203.929 260.749 203.5 259.928C203.07 259.107 202.753 258.061 202.548 256.792C202.342 255.504 202.24 253.973 202.24 252.2ZM204.34 252.2C204.34 254.869 204.592 256.923 205.096 258.36C205.6 259.797 206.412 260.516 207.532 260.516C208.614 260.516 209.398 259.863 209.884 258.556C210.388 257.231 210.64 255.112 210.64 252.2C210.64 249.549 210.397 247.505 209.912 246.068C209.445 244.612 208.633 243.884 207.476 243.884C206.393 243.884 205.6 244.537 205.096 245.844C204.592 247.151 204.34 249.269 204.34 252.2Z" fill="#FFDBAD"/>
</svg>
