<svg width="296" height="296" viewBox="0 0 296 296" fill="none" xmlns="http://www.w3.org/2000/svg">
<rect x="5" y="5" width="286" height="286" fill="#F4A127" stroke="#FFDBAD" stroke-width="10"/>
<path d="M89.3392 59.018L89.8712 63.578H90.0232L90.6312 58.98L94.5072 43.4H99.5612L91.5052 70.19H87.8572L79.7252 43.4H85.3872L89.3392 59.018ZM102.811 56.7C102.811 52.1907 103.583 48.758 105.129 46.402C106.674 44.046 109.03 42.868 112.197 42.868C113.843 42.868 115.262 43.1973 116.453 43.856C117.643 44.4893 118.619 45.414 119.379 46.63C120.139 47.8207 120.696 49.2773 121.051 51C121.431 52.6973 121.621 54.5973 121.621 56.7C121.621 61.2093 120.823 64.642 119.227 66.998C117.656 69.354 115.313 70.532 112.197 70.532C110.525 70.532 109.093 70.2153 107.903 69.582C106.737 68.9233 105.775 67.9987 105.015 66.808C104.255 65.592 103.697 64.1353 103.343 62.438C102.988 60.7153 102.811 58.8027 102.811 56.7ZM107.827 56.7C107.827 58.0427 107.903 59.2967 108.055 60.462C108.207 61.602 108.46 62.59 108.815 63.426C109.169 64.262 109.613 64.9207 110.145 65.402C110.702 65.8833 111.386 66.124 112.197 66.124C113.666 66.124 114.768 65.3767 115.503 63.882C116.237 62.3873 116.605 59.9933 116.605 56.7C116.605 55.408 116.529 54.192 116.377 53.052C116.225 51.8867 115.971 50.886 115.617 50.05C115.287 49.1887 114.844 48.5173 114.287 48.036C113.729 47.5293 113.033 47.276 112.197 47.276C109.283 47.276 107.827 50.4173 107.827 56.7ZM142.929 68.936C142.27 69.4933 141.383 69.8987 140.269 70.152C139.179 70.4053 138.09 70.532 137.001 70.532C135.633 70.532 134.353 70.304 133.163 69.848C131.997 69.3667 130.971 68.5813 130.085 67.492C129.198 66.4027 128.501 64.9713 127.995 63.198C127.488 61.4247 127.235 59.246 127.235 56.662C127.235 53.9767 127.513 51.7473 128.071 49.974C128.653 48.2007 129.401 46.7947 130.313 45.756C131.25 44.692 132.314 43.9447 133.505 43.514C134.695 43.0833 135.899 42.868 137.115 42.868C138.356 42.868 139.433 42.9693 140.345 43.172C141.282 43.3747 142.042 43.6027 142.625 43.856L141.675 48.074C141.193 47.8207 140.623 47.6307 139.965 47.504C139.331 47.352 138.571 47.276 137.685 47.276C135.937 47.276 134.594 48.036 133.657 49.556C132.719 51.076 132.251 53.4573 132.251 56.7C132.251 58.0933 132.352 59.3727 132.555 60.538C132.783 61.678 133.125 62.666 133.581 63.502C134.062 64.338 134.657 64.984 135.367 65.44C136.101 65.896 136.975 66.124 137.989 66.124C138.875 66.124 139.635 66.01 140.269 65.782C140.902 65.5287 141.472 65.2373 141.979 64.908L142.929 68.936ZM157.937 63.996H151.667L150.109 70H145.359L153.073 43.21H156.835L164.587 70H159.571L157.937 63.996ZM152.693 60.044H157.101L155.581 53.85L154.973 49.67H154.821L154.175 53.888L152.693 60.044ZM183.776 70H169.64V43.4H174.428V65.592H183.776V70ZM198.475 63.16C198.475 62.3493 198.235 61.6653 197.753 61.108C197.272 60.5253 196.664 59.9807 195.929 59.474C195.22 58.9673 194.435 58.448 193.573 57.916C192.737 57.384 191.952 56.7633 191.217 56.054C190.508 55.3447 189.913 54.5087 189.431 53.546C188.95 52.5833 188.709 51.4053 188.709 50.012C188.709 48.72 188.899 47.6307 189.279 46.744C189.685 45.832 190.229 45.0973 190.913 44.54C191.597 43.9573 192.408 43.5393 193.345 43.286C194.283 43.0073 195.283 42.868 196.347 42.868C197.639 42.868 198.843 42.9947 199.957 43.248C201.072 43.5013 201.997 43.8433 202.731 44.274L201.249 48.492C200.819 48.188 200.173 47.9093 199.311 47.656C198.475 47.4027 197.563 47.276 196.575 47.276C195.587 47.276 194.827 47.4787 194.295 47.884C193.763 48.2893 193.497 48.8847 193.497 49.67C193.497 50.3793 193.738 51.0127 194.219 51.57C194.701 52.102 195.296 52.6213 196.005 53.128C196.74 53.6347 197.525 54.1667 198.361 54.724C199.223 55.256 200.008 55.8893 200.717 56.624C201.452 57.3333 202.06 58.182 202.541 59.17C203.023 60.1327 203.263 61.2853 203.263 62.628C203.263 63.9707 203.061 65.136 202.655 66.124C202.275 67.112 201.718 67.9353 200.983 68.594C200.274 69.2273 199.413 69.7087 198.399 70.038C197.386 70.3673 196.259 70.532 195.017 70.532C193.447 70.532 192.066 70.38 190.875 70.076C189.71 69.772 188.811 69.43 188.177 69.05L189.735 64.756C190.242 65.06 190.939 65.364 191.825 65.668C192.712 65.972 193.662 66.124 194.675 66.124C197.209 66.124 198.475 65.136 198.475 63.16ZM208.828 67.53C208.828 66.6687 209.082 65.9973 209.588 65.516C210.095 65.0093 210.728 64.756 211.488 64.756C212.451 64.756 213.186 65.098 213.692 65.782C214.224 66.466 214.49 67.416 214.49 68.632C214.49 69.7467 214.326 70.7093 213.996 71.52C213.692 72.3307 213.312 73.002 212.856 73.534C212.4 74.0913 211.906 74.5347 211.374 74.864C210.868 75.1933 210.424 75.434 210.044 75.586L208.638 73.762C209.221 73.458 209.74 72.964 210.196 72.28C210.652 71.6213 210.906 70.95 210.956 70.266C210.424 70.2913 209.93 70.0887 209.474 69.658C209.044 69.202 208.828 68.4927 208.828 67.53ZM51.0597 112.16C51.0597 111.349 50.819 110.665 50.3377 110.108C49.8564 109.525 49.2484 108.981 48.5137 108.474C47.8044 107.967 47.019 107.448 46.1577 106.916C45.3217 106.384 44.5364 105.763 43.8017 105.054C43.0924 104.345 42.497 103.509 42.0157 102.546C41.5344 101.583 41.2937 100.405 41.2937 99.012C41.2937 97.72 41.4837 96.6307 41.8637 95.744C42.269 94.832 42.8137 94.0973 43.4977 93.54C44.1817 92.9573 44.9924 92.5393 45.9297 92.286C46.867 92.0073 47.8677 91.868 48.9317 91.868C50.2237 91.868 51.427 91.9947 52.5417 92.248C53.6564 92.5013 54.581 92.8433 55.3157 93.274L53.8337 97.492C53.403 97.188 52.757 96.9093 51.8957 96.656C51.0597 96.4027 50.1477 96.276 49.1597 96.276C48.1717 96.276 47.4117 96.4787 46.8797 96.884C46.3477 97.2893 46.0817 97.8847 46.0817 98.67C46.0817 99.3793 46.3224 100.013 46.8037 100.57C47.285 101.102 47.8804 101.621 48.5897 102.128C49.3244 102.635 50.1097 103.167 50.9457 103.724C51.807 104.256 52.5924 104.889 53.3017 105.624C54.0364 106.333 54.6444 107.182 55.1257 108.17C55.607 109.133 55.8477 110.285 55.8477 111.628C55.8477 112.971 55.645 114.136 55.2397 115.124C54.8597 116.112 54.3024 116.935 53.5677 117.594C52.8584 118.227 51.997 118.709 50.9837 119.038C49.9704 119.367 48.843 119.532 47.6017 119.532C46.031 119.532 44.6504 119.38 43.4597 119.076C42.2944 118.772 41.395 118.43 40.7617 118.05L42.3197 113.756C42.8264 114.06 43.523 114.364 44.4097 114.668C45.2964 114.972 46.2464 115.124 47.2597 115.124C49.793 115.124 51.0597 114.136 51.0597 112.16ZM61.2609 105.7C61.2609 101.191 62.0336 97.758 63.5789 95.402C65.1242 93.046 67.4802 91.868 70.6469 91.868C72.2936 91.868 73.7122 92.1973 74.9029 92.856C76.0936 93.4893 77.0689 94.414 77.8289 95.63C78.5889 96.8207 79.1462 98.2773 79.5009 100C79.8809 101.697 80.0709 103.597 80.0709 105.7C80.0709 110.209 79.2729 113.642 77.6769 115.998C76.1062 118.354 73.7629 119.532 70.6469 119.532C68.9749 119.532 67.5436 119.215 66.3529 118.582C65.1876 117.923 64.2249 116.999 63.4649 115.808C62.7049 114.592 62.1476 113.135 61.7929 111.438C61.4382 109.715 61.2609 107.803 61.2609 105.7ZM66.2769 105.7C66.2769 107.043 66.3529 108.297 66.5049 109.462C66.6569 110.602 66.9102 111.59 67.2649 112.426C67.6196 113.262 68.0629 113.921 68.5949 114.402C69.1522 114.883 69.8362 115.124 70.6469 115.124C72.1162 115.124 73.2182 114.377 73.9529 112.882C74.6876 111.387 75.0549 108.993 75.0549 105.7C75.0549 104.408 74.9789 103.192 74.8269 102.052C74.6749 100.887 74.4216 99.886 74.0669 99.05C73.7376 98.1887 73.2942 97.5173 72.7369 97.036C72.1796 96.5293 71.4829 96.276 70.6469 96.276C67.7336 96.276 66.2769 99.4173 66.2769 105.7ZM92.1448 105.928L90.3968 101.254H90.2068L90.8148 105.852V119H86.2928V92.21H89.9788L97.6168 105.586L99.2508 110.184H99.4788L98.8708 105.662V92.4H103.393V119.19H99.7068L92.1448 105.928ZM118.29 105.244H126.498V117.024C125.561 117.911 124.459 118.557 123.192 118.962C121.951 119.342 120.71 119.532 119.468 119.532C117.974 119.532 116.618 119.266 115.402 118.734C114.186 118.202 113.148 117.379 112.286 116.264C111.45 115.124 110.792 113.693 110.31 111.97C109.854 110.222 109.626 108.132 109.626 105.7C109.626 103.167 109.905 101.026 110.462 99.278C111.02 97.53 111.754 96.1113 112.666 95.022C113.604 93.9073 114.68 93.1093 115.896 92.628C117.138 92.1213 118.442 91.868 119.81 91.868C121.026 91.868 122.128 91.982 123.116 92.21C124.13 92.4127 124.966 92.6533 125.624 92.932L124.636 97.074C124.13 96.846 123.534 96.656 122.85 96.504C122.192 96.352 121.381 96.276 120.418 96.276C119.532 96.276 118.721 96.4533 117.986 96.808C117.277 97.1627 116.669 97.72 116.162 98.48C115.681 99.24 115.301 100.228 115.022 101.444C114.769 102.635 114.642 104.066 114.642 105.738C114.642 108.955 115.124 111.324 116.086 112.844C117.074 114.364 118.366 115.124 119.962 115.124C120.469 115.124 120.95 115.048 121.406 114.896C121.888 114.744 122.306 114.503 122.66 114.174V108.74L118.29 108.132V105.244ZM138.809 107.03L139.189 111.818H139.341L139.759 106.954L143.331 92.4H146.675L150.133 107.03L150.551 111.818H150.703L151.121 106.954L153.477 92.4H158.341L152.375 119.19H148.993L145.269 104.522L144.775 100.38H144.585L144.129 104.56L140.405 119.19H136.871L130.943 92.4H136.225L138.809 107.03ZM163.387 92.666C164.425 92.438 165.54 92.2733 166.731 92.172C167.921 92.0707 168.947 92.02 169.809 92.02C170.898 92.02 171.962 92.134 173.001 92.362C174.039 92.5647 174.951 92.9573 175.737 93.54C176.547 94.0973 177.193 94.87 177.675 95.858C178.181 96.8207 178.435 98.0493 178.435 99.544C178.435 101.697 178.029 103.458 177.219 104.826C176.433 106.169 175.344 107.093 173.951 107.6L175.471 108.816L180.373 119H174.863L170.227 108.512L168.175 108.018V119H163.387V92.666ZM168.175 104.75H169.809C170.999 104.75 171.899 104.395 172.507 103.686C173.115 102.951 173.419 101.824 173.419 100.304C173.419 99.164 173.165 98.2393 172.659 97.53C172.152 96.7953 171.354 96.428 170.265 96.428C169.859 96.428 169.467 96.4407 169.087 96.466C168.707 96.4913 168.403 96.542 168.175 96.618V104.75ZM186.336 92.4H191.124V119H186.336V92.4ZM214.391 96.808H208.083V119H203.295V96.808H196.987V92.4H214.391V96.808ZM219.811 92.4H233.111V96.808H224.599V103.344H232.313V107.752H224.599V114.592H233.263V119H219.811V92.4ZM239.559 92.666C240.598 92.438 241.712 92.2733 242.903 92.172C244.094 92.0707 245.12 92.02 245.981 92.02C247.07 92.02 248.134 92.134 249.173 92.362C250.212 92.5647 251.124 92.9573 251.909 93.54C252.72 94.0973 253.366 94.87 253.847 95.858C254.354 96.8207 254.607 98.0493 254.607 99.544C254.607 101.697 254.202 103.458 253.391 104.826C252.606 106.169 251.516 107.093 250.123 107.6L251.643 108.816L256.545 119H251.035L246.399 108.512L244.347 108.018V119H239.559V92.666ZM244.347 104.75H245.981C247.172 104.75 248.071 104.395 248.679 103.686C249.287 102.951 249.591 101.824 249.591 100.304C249.591 99.164 249.338 98.2393 248.831 97.53C248.324 96.7953 247.526 96.428 246.437 96.428C246.032 96.428 245.639 96.4407 245.259 96.466C244.879 96.4913 244.575 96.542 244.347 96.618V104.75ZM107.669 181.04C106.858 180.016 106.175 178.885 105.621 177.648C105.087 176.432 104.65 175.184 104.309 173.904C103.967 172.603 103.722 171.301 103.573 170C103.423 168.677 103.349 167.419 103.349 166.224C103.349 165.051 103.423 163.813 103.573 162.512C103.722 161.211 103.967 159.909 104.309 158.608C104.65 157.285 105.098 155.995 105.653 154.736C106.229 153.477 106.922 152.304 107.733 151.216L109.173 152.08C108.49 153.168 107.925 154.309 107.477 155.504C107.029 156.699 106.666 157.915 106.389 159.152C106.133 160.368 105.941 161.584 105.812 162.8C105.706 163.995 105.653 165.136 105.653 166.224C105.653 167.248 105.717 168.379 105.845 169.616C105.973 170.832 106.175 172.059 106.453 173.296C106.751 174.533 107.125 175.739 107.573 176.912C108.021 178.085 108.554 179.141 109.173 180.08L107.669 181.04ZM112.289 171.856H115.905V156.272L116.193 154.384L115.105 155.92L112.417 158.096L111.201 156.656L117.025 151.216H118.209V171.856H121.697V174H112.289V171.856ZM125.16 158.384C125.16 156.165 125.629 154.416 126.568 153.136C127.528 151.856 128.946 151.216 130.824 151.216C132.616 151.216 134.002 151.877 134.984 153.2C135.986 154.523 136.488 156.549 136.488 159.28C136.488 161.691 136.264 163.792 135.816 165.584C135.368 167.355 134.749 168.859 133.96 170.096C133.17 171.312 132.242 172.272 131.176 172.976C130.109 173.68 128.957 174.149 127.72 174.384L127.112 172.496C129.16 171.963 130.749 170.896 131.88 169.296C133.01 167.675 133.725 165.648 134.024 163.216C133.576 163.835 133.074 164.272 132.52 164.528C131.986 164.784 131.272 164.912 130.376 164.912C129.693 164.912 129.032 164.784 128.391 164.528C127.773 164.251 127.218 163.845 126.728 163.312C126.258 162.757 125.874 162.075 125.576 161.264C125.298 160.432 125.16 159.472 125.16 158.384ZM127.496 158.128C127.496 159.643 127.805 160.805 128.424 161.616C129.042 162.427 129.864 162.832 130.888 162.832C131.698 162.832 132.381 162.661 132.936 162.32C133.512 161.957 133.928 161.499 134.184 160.944C134.226 160.667 134.248 160.4 134.248 160.144C134.248 159.888 134.248 159.643 134.248 159.408C134.248 158.597 134.173 157.829 134.024 157.104C133.896 156.357 133.682 155.707 133.384 155.152C133.106 154.576 132.744 154.128 132.296 153.808C131.848 153.467 131.314 153.296 130.696 153.296C129.693 153.296 128.904 153.733 128.328 154.608C127.773 155.483 127.496 156.656 127.496 158.128ZM151.886 167.12H148.91V174H146.606V167.12H138.734V166.032L147.214 151.248H148.91V165.04H151.886V167.12ZM146.606 157.872L146.99 155.12H146.894L145.934 157.584L142.414 163.696L141.198 165.264L142.958 165.04H146.606V157.872ZM154.356 168.816C154.356 167.387 154.644 166.171 155.22 165.168C155.817 164.165 156.692 163.259 157.844 162.448C157.417 162.128 157.012 161.797 156.628 161.456C156.265 161.093 155.945 160.688 155.668 160.24C155.391 159.792 155.167 159.291 154.996 158.736C154.847 158.181 154.772 157.541 154.772 156.816C154.772 155.088 155.22 153.723 156.116 152.72C157.033 151.717 158.281 151.216 159.86 151.216C161.332 151.216 162.495 151.675 163.348 152.592C164.223 153.488 164.66 154.725 164.66 156.304C164.66 157.52 164.425 158.597 163.956 159.536C163.487 160.475 162.751 161.392 161.748 162.288C162.196 162.608 162.623 162.96 163.028 163.344C163.433 163.728 163.785 164.165 164.084 164.656C164.404 165.125 164.649 165.669 164.82 166.288C164.991 166.885 165.076 167.579 165.076 168.368C165.076 170.181 164.585 171.643 163.604 172.752C162.644 173.84 161.3 174.384 159.572 174.384C158.74 174.384 158.004 174.245 157.364 173.968C156.724 173.691 156.18 173.307 155.732 172.816C155.284 172.325 154.943 171.739 154.708 171.056C154.473 170.373 154.356 169.627 154.356 168.816ZM159.348 163.344C158.367 164.069 157.652 164.88 157.204 165.776C156.777 166.672 156.564 167.568 156.564 168.464C156.564 169.552 156.831 170.469 157.364 171.216C157.897 171.941 158.676 172.304 159.7 172.304C160.532 172.304 161.247 172.005 161.844 171.408C162.463 170.789 162.772 169.819 162.772 168.496C162.772 167.835 162.676 167.248 162.484 166.736C162.292 166.224 162.036 165.776 161.716 165.392C161.396 164.987 161.033 164.624 160.628 164.304C160.223 163.963 159.796 163.643 159.348 163.344ZM160.212 161.456C160.937 160.731 161.492 160.005 161.876 159.28C162.26 158.533 162.452 157.712 162.452 156.816C162.452 155.643 162.185 154.768 161.652 154.192C161.14 153.595 160.532 153.296 159.828 153.296C159.38 153.296 158.975 153.392 158.612 153.584C158.271 153.755 157.983 154 157.748 154.32C157.513 154.64 157.332 155.013 157.204 155.44C157.076 155.845 157.012 156.283 157.012 156.752C157.012 157.328 157.097 157.851 157.268 158.32C157.439 158.768 157.673 159.184 157.972 159.568C158.271 159.931 158.612 160.272 158.996 160.592C159.38 160.891 159.785 161.179 160.212 161.456ZM168.41 163.76H174.714V165.968H168.41V163.76ZM189.255 180.08C189.873 179.141 190.407 178.085 190.855 176.912C191.303 175.739 191.665 174.533 191.943 173.296C192.241 172.059 192.455 170.832 192.583 169.616C192.711 168.379 192.775 167.248 192.775 166.224C192.775 165.136 192.711 163.995 192.583 162.8C192.476 161.584 192.284 160.368 192.007 159.152C191.751 157.915 191.388 156.699 190.919 155.504C190.471 154.309 189.916 153.168 189.255 152.08L190.695 151.216C191.505 152.304 192.188 153.477 192.743 154.736C193.319 155.995 193.777 157.285 194.119 158.608C194.46 159.909 194.705 161.211 194.855 162.512C195.004 163.813 195.079 165.051 195.079 166.224C195.079 167.419 195.004 168.677 194.855 170C194.705 171.301 194.46 172.603 194.119 173.904C193.777 175.184 193.329 176.432 192.775 177.648C192.22 178.885 191.548 180.016 190.759 181.04L189.255 180.08ZM80.1248 208.728H73.7888L71.9968 215H69.6288L76.3808 192.248H77.6927L84.4448 215H81.9488L80.1248 208.728ZM74.4288 206.584H79.5488L77.5968 199.672L76.9888 196.312H76.9248L76.3168 199.736L74.4288 206.584ZM86.6418 192.824C87.3458 192.653 88.1138 192.536 88.9458 192.472C89.7991 192.387 90.5778 192.344 91.2818 192.344C92.1138 192.344 92.9031 192.451 93.6498 192.664C94.3964 192.856 95.0471 193.197 95.6018 193.688C96.1564 194.157 96.5938 194.787 96.9138 195.576C97.2551 196.344 97.4258 197.315 97.4258 198.488C97.4258 200.259 97.0524 201.677 96.3058 202.744C95.5804 203.811 94.6098 204.525 93.3938 204.888L94.6098 206.072L99.0258 215H96.2418L91.4418 205.24L89.0418 204.76V215H86.6418V192.824ZM89.0418 203.16H90.9618C92.1778 203.16 93.1378 202.787 93.8418 202.04C94.5458 201.293 94.8978 200.152 94.8978 198.616C94.8978 197.443 94.5991 196.472 94.0017 195.704C93.4258 194.936 92.5618 194.552 91.4098 194.552C90.9831 194.552 90.5351 194.573 90.0658 194.616C89.6178 194.637 89.2764 194.68 89.0418 194.744V203.16ZM102.497 192.6H104.897V215H102.497V192.6ZM108.366 212.792L117.262 196.088L118.318 194.808H108.366V192.6H120.558V194.808L111.63 211.608L110.606 212.792H120.558V215H108.366V212.792ZM122.282 203.8C122.282 200.003 122.89 197.123 124.106 195.16C125.322 193.197 127.178 192.216 129.674 192.216C131.018 192.216 132.16 192.493 133.098 193.048C134.037 193.581 134.794 194.349 135.37 195.352C135.968 196.355 136.405 197.571 136.682 199C136.96 200.429 137.098 202.029 137.098 203.8C137.098 207.597 136.48 210.477 135.242 212.44C134.026 214.403 132.17 215.384 129.674 215.384C128.352 215.384 127.221 215.117 126.282 214.584C125.344 214.029 124.576 213.251 123.978 212.248C123.381 211.245 122.944 210.029 122.666 208.6C122.41 207.171 122.282 205.571 122.282 203.8ZM124.81 203.8C124.81 205.059 124.896 206.253 125.066 207.384C125.258 208.515 125.546 209.507 125.93 210.36C126.314 211.213 126.816 211.896 127.434 212.408C128.053 212.92 128.8 213.176 129.674 213.176C131.274 213.176 132.49 212.408 133.322 210.872C134.154 209.336 134.57 206.979 134.57 203.8C134.57 202.563 134.474 201.379 134.282 200.248C134.112 199.117 133.834 198.125 133.45 197.272C133.066 196.397 132.565 195.704 131.946 195.192C131.328 194.68 130.57 194.424 129.674 194.424C128.096 194.424 126.89 195.192 126.058 196.728C125.226 198.264 124.81 200.621 124.81 203.8ZM143.941 200.792L142.565 197.272H142.469L142.821 200.792V215H140.517V192.248H141.957L150.245 206.776L151.557 210.136H151.685L151.333 206.776V192.6H153.637V215.352H152.165L143.941 200.792ZM166.344 208.728H160.008L158.216 215H155.848L162.6 192.248H163.911L170.664 215H168.168L166.344 208.728ZM160.648 206.584H165.768L163.816 199.672L163.208 196.312H163.144L162.536 199.736L160.648 206.584ZM172.59 213.624C172.59 213.091 172.739 212.664 173.038 212.344C173.358 212.024 173.763 211.864 174.254 211.864C174.808 211.864 175.256 212.088 175.598 212.536C175.96 212.984 176.141 213.688 176.141 214.648C176.141 215.352 176.046 215.981 175.854 216.536C175.683 217.112 175.448 217.613 175.15 218.04C174.872 218.467 174.563 218.819 174.222 219.096C173.88 219.373 173.55 219.576 173.23 219.704L172.43 218.616C172.707 218.467 172.963 218.264 173.198 218.008C173.454 217.773 173.656 217.507 173.806 217.208C173.976 216.909 174.104 216.589 174.19 216.248C174.275 215.928 174.318 215.608 174.318 215.288C173.891 215.416 173.496 215.331 173.134 215.032C172.771 214.733 172.59 214.264 172.59 213.624ZM194.351 192.6H196.655V207.608C196.655 210.317 196.122 212.28 195.055 213.496C194.01 214.691 192.517 215.288 190.575 215.288C188.314 215.288 186.661 214.701 185.615 213.528C184.591 212.355 184.079 210.552 184.079 208.12V192.6H186.479V206.872C186.479 208.024 186.554 208.995 186.703 209.784C186.853 210.573 187.098 211.213 187.439 211.704C187.781 212.195 188.207 212.547 188.719 212.76C189.231 212.973 189.861 213.08 190.607 213.08C192.015 213.08 192.986 212.589 193.519 211.608C194.074 210.627 194.351 209.048 194.351 206.872V192.6ZM200.607 212.024C201.012 212.301 201.577 212.568 202.303 212.824C203.049 213.059 203.892 213.176 204.831 213.176C206.025 213.176 206.996 212.888 207.743 212.312C208.489 211.715 208.863 210.787 208.863 209.528C208.863 208.696 208.649 207.971 208.223 207.352C207.796 206.733 207.263 206.168 206.623 205.656C205.983 205.123 205.289 204.611 204.543 204.12C203.817 203.608 203.135 203.053 202.495 202.456C201.855 201.837 201.321 201.133 200.895 200.344C200.468 199.555 200.255 198.605 200.255 197.496C200.255 195.704 200.788 194.381 201.855 193.528C202.943 192.653 204.351 192.216 206.079 192.216C207.145 192.216 208.095 192.312 208.927 192.504C209.759 192.696 210.431 192.941 210.943 193.24L210.175 195.352C209.791 195.117 209.236 194.904 208.511 194.712C207.807 194.52 206.985 194.424 206.047 194.424C204.895 194.424 204.041 194.712 203.487 195.288C202.932 195.843 202.655 196.547 202.655 197.4C202.655 198.147 202.868 198.808 203.295 199.384C203.721 199.96 204.255 200.504 204.895 201.016C205.535 201.528 206.217 202.051 206.943 202.584C207.689 203.096 208.383 203.672 209.023 204.312C209.663 204.952 210.196 205.677 210.623 206.488C211.049 207.299 211.263 208.259 211.263 209.368C211.263 211.245 210.708 212.717 209.599 213.784C208.489 214.851 206.921 215.384 204.895 215.384C203.615 215.384 202.559 215.267 201.727 215.032C200.916 214.797 200.265 214.531 199.775 214.232L200.607 212.024ZM223.062 208.728H216.726L214.934 215H212.566L219.318 192.248H220.63L227.382 215H224.886L223.062 208.728ZM217.366 206.584H222.486L220.534 199.672L219.926 196.312H219.862L219.254 199.736L217.366 206.584ZM75.726 233.6H78.126V250.976C78.126 252.725 77.838 254.059 77.262 254.976C76.7073 255.872 75.726 256.32 74.318 256.32C73.9767 256.32 73.5607 256.277 73.07 256.192C72.6007 256.107 72.2167 255.979 71.918 255.808L72.43 253.728C72.6433 253.856 72.878 253.952 73.134 254.016C73.4113 254.08 73.6887 254.112 73.966 254.112C74.35 254.112 74.6593 254.027 74.894 253.856C75.1287 253.685 75.31 253.451 75.438 253.152C75.566 252.832 75.6407 252.459 75.662 252.032C75.7047 251.584 75.726 251.083 75.726 250.528V233.6ZM81.8448 244.8C81.8448 241.003 82.4528 238.123 83.6688 236.16C84.8848 234.197 86.7408 233.216 89.2368 233.216C90.5808 233.216 91.7221 233.493 92.6608 234.048C93.5994 234.581 94.3568 235.349 94.9328 236.352C95.5301 237.355 95.9674 238.571 96.2448 240C96.5221 241.429 96.6608 243.029 96.6608 244.8C96.6608 248.597 96.0421 251.477 94.8048 253.44C93.5888 255.403 91.7328 256.384 89.2368 256.384C87.9141 256.384 86.7834 256.117 85.8448 255.584C84.9061 255.029 84.1381 254.251 83.5408 253.248C82.9434 252.245 82.5061 251.029 82.2288 249.6C81.9728 248.171 81.8448 246.571 81.8448 244.8ZM84.3728 244.8C84.3728 246.059 84.4581 247.253 84.6288 248.384C84.8208 249.515 85.1088 250.507 85.4928 251.36C85.8768 252.213 86.3781 252.896 86.9968 253.408C87.6154 253.92 88.3621 254.176 89.2368 254.176C90.8368 254.176 92.0528 253.408 92.8848 251.872C93.7168 250.336 94.1328 247.979 94.1328 244.8C94.1328 243.563 94.0368 242.379 93.8448 241.248C93.6741 240.117 93.3968 239.125 93.0128 238.272C92.6288 237.397 92.1274 236.704 91.5088 236.192C90.8901 235.68 90.1328 235.424 89.2368 235.424C87.6581 235.424 86.4528 236.192 85.6208 237.728C84.7888 239.264 84.3728 241.621 84.3728 244.8ZM100.559 233.6H102.959V256H100.559V233.6ZM110.972 241.792L109.596 238.272H109.5L109.852 241.792V256H107.548V233.248H108.988L117.276 247.776L118.588 251.136H118.716L118.364 247.776V233.6H120.668V256.352H119.196L110.972 241.792ZM124.767 233.6H134.719V235.808H127.167V243.392H134.111V245.6H127.167V253.792H134.879V256H124.767V233.6ZM138.486 233.6C138.827 233.536 139.2 233.493 139.606 233.472C140.032 233.429 140.459 233.408 140.886 233.408C141.312 233.387 141.728 233.376 142.134 233.376C142.56 233.355 142.955 233.344 143.318 233.344C144.875 233.344 146.198 233.611 147.286 234.144C148.374 234.677 149.259 235.445 149.942 236.448C150.624 237.429 151.115 238.613 151.414 240C151.712 241.387 151.862 242.933 151.862 244.64C151.862 246.176 151.712 247.648 151.414 249.056C151.136 250.464 150.656 251.701 149.974 252.768C149.291 253.835 148.384 254.688 147.254 255.328C146.144 255.968 144.747 256.288 143.062 256.288C142.784 256.288 142.432 256.277 142.006 256.256C141.579 256.256 141.131 256.235 140.661 256.192C140.214 256.171 139.787 256.149 139.382 256.128C138.998 256.107 138.699 256.075 138.486 256.032V233.6ZM143.446 235.552C143.232 235.552 142.998 235.552 142.742 235.552C142.507 235.552 142.272 235.563 142.038 235.584C141.803 235.605 141.579 235.627 141.366 235.648C141.174 235.669 141.014 235.691 140.886 235.712V253.952C140.971 253.973 141.12 253.995 141.334 254.016C141.568 254.016 141.803 254.027 142.038 254.048C142.294 254.048 142.528 254.059 142.742 254.08C142.976 254.08 143.147 254.08 143.254 254.08C144.427 254.08 145.408 253.824 146.198 253.312C146.987 252.8 147.606 252.117 148.054 251.264C148.523 250.389 148.854 249.387 149.046 248.256C149.238 247.104 149.334 245.888 149.334 244.608C149.334 243.477 149.248 242.368 149.078 241.28C148.907 240.192 148.598 239.232 148.15 238.4C147.723 237.547 147.126 236.864 146.358 236.352C145.611 235.819 144.64 235.552 143.446 235.552ZM155.682 241.664C155.682 241.067 155.821 240.619 156.098 240.32C156.397 240.021 156.791 239.872 157.282 239.872C157.773 239.872 158.157 240.021 158.434 240.32C158.733 240.619 158.882 241.067 158.882 241.664C158.882 242.283 158.733 242.741 158.434 243.04C158.157 243.339 157.773 243.488 157.282 243.488C156.791 243.488 156.397 243.339 156.098 243.04C155.821 242.741 155.682 242.283 155.682 241.664ZM155.682 254.56C155.682 253.963 155.821 253.515 156.098 253.216C156.397 252.917 156.791 252.768 157.282 252.768C157.773 252.768 158.157 252.917 158.434 253.216C158.733 253.515 158.882 253.963 158.882 254.56C158.882 255.179 158.733 255.637 158.434 255.936C158.157 256.235 157.773 256.384 157.282 256.384C156.791 256.384 156.397 256.235 156.098 255.936C155.821 255.637 155.682 255.179 155.682 254.56ZM169.633 253.856H173.249V238.272L173.537 236.384L172.449 237.92L169.761 240.096L168.545 238.656L174.369 233.216H175.553V253.856H179.041V256H169.633V253.856ZM182.503 240.384C182.503 238.165 182.973 236.416 183.911 235.136C184.871 233.856 186.29 233.216 188.167 233.216C189.959 233.216 191.346 233.877 192.327 235.2C193.33 236.523 193.831 238.549 193.831 241.28C193.831 243.691 193.607 245.792 193.159 247.584C192.711 249.355 192.093 250.859 191.303 252.096C190.514 253.312 189.586 254.272 188.519 254.976C187.453 255.68 186.301 256.149 185.063 256.384L184.455 254.496C186.503 253.963 188.093 252.896 189.223 251.296C190.354 249.675 191.069 247.648 191.367 245.216C190.919 245.835 190.418 246.272 189.863 246.528C189.33 246.784 188.615 246.912 187.719 246.912C187.037 246.912 186.375 246.784 185.735 246.528C185.117 246.251 184.562 245.845 184.071 245.312C183.602 244.757 183.218 244.075 182.919 243.264C182.642 242.432 182.503 241.472 182.503 240.384ZM184.839 240.128C184.839 241.643 185.149 242.805 185.767 243.616C186.386 244.427 187.207 244.832 188.231 244.832C189.042 244.832 189.725 244.661 190.279 244.32C190.855 243.957 191.271 243.499 191.527 242.944C191.57 242.667 191.591 242.4 191.591 242.144C191.591 241.888 191.591 241.643 191.591 241.408C191.591 240.597 191.517 239.829 191.367 239.104C191.239 238.357 191.026 237.707 190.727 237.152C190.45 236.576 190.087 236.128 189.639 235.808C189.191 235.467 188.658 235.296 188.039 235.296C187.037 235.296 186.247 235.733 185.671 236.608C185.117 237.483 184.839 238.656 184.839 240.128ZM198.478 256L204.942 237.088L206.094 235.52L204.558 235.808H197.23V233.6H208.142V234.464L200.782 256H198.478ZM221.268 233.6V235.84H215.188V242.368L216.276 242.272C217.982 242.293 219.326 242.88 220.308 244.032C221.289 245.184 221.79 246.837 221.812 248.992C221.79 250.187 221.609 251.243 221.268 252.16C220.948 253.077 220.5 253.856 219.924 254.496C219.348 255.115 218.676 255.584 217.908 255.904C217.14 256.224 216.318 256.384 215.444 256.384C213.972 256.384 212.788 256.181 211.892 255.776L212.468 253.728C212.852 253.92 213.278 254.059 213.748 254.144C214.217 254.208 214.761 254.24 215.38 254.24C216.596 254.24 217.577 253.803 218.324 252.928C219.092 252.032 219.486 250.784 219.508 249.184C219.486 247.541 219.092 246.325 218.324 245.536C217.577 244.747 216.532 244.352 215.188 244.352L213.076 244.512V233.6H221.268Z" fill="#FFDBAD"/>
</svg>
