<svg width="384" height="384" viewBox="0 0 384 384" fill="none" xmlns="http://www.w3.org/2000/svg">
<path d="M191.9 378.78C295.117 378.78 378.79 295.107 378.79 191.89C378.79 88.6735 295.117 5 191.9 5C88.6835 5 5.00999 88.6735 5.00999 191.89C5.00999 295.107 88.6835 378.78 191.9 378.78Z" fill="white" stroke="white" stroke-width="2" stroke-miterlimit="10"/>
<path d="M134.71 205.8C123.99 194.8 115.09 188.41 95.71 199.18C95.71 199.18 101.5 208.99 113.35 209.58C125.2 210.17 134.71 205.8 134.71 205.8Z" fill="#A7A9AC" stroke="#86888A" stroke-width="2" stroke-miterlimit="10"/>
<path d="M225.55 201.12C222.52 212.11 220.29 213.75 213.78 216.31C207.27 218.87 199.46 214.67 199.46 214.67L211.7 206.13C211.7 206.13 216.55 205.69 225.56 201.12H225.55Z" fill="#656668"/>
<path d="M116.89 174.44C116.89 174.44 114.03 181.88 119.25 193.63C123.43 203.04 134.86 205.8 134.86 205.8C134.86 205.8 137.07 193.05 132.42 186.51C127.77 179.97 116.89 174.44 116.89 174.44Z" fill="#A7A9AC" stroke="#86888A" stroke-width="2" stroke-miterlimit="10"/>
<path d="M131.31 201.55C135.85 201.69 140.61 201.09 140.61 201.09L141.72 207.97C141.72 207.97 136.16 207.28 131.31 201.55Z" fill="#656668"/>
<path d="M224.63 124.91C225.25 138.56 225.25 142.99 225.05 148.1C224.84 153.21 223.02 168.71 224.44 171.62C225.87 174.54 228.89 176.91 232.39 178.19C232.39 178.19 228.31 177.64 226.59 178.19C226.59 178.19 229.71 179.62 231.58 183.96C231.58 183.96 224.24 181 223.67 181.84C223.09 182.68 223.18 186.97 222.97 189.93C222.91 190.87 222.35 222.9 223.81 231.01C224.95 237.31 227.93 279.32 258.22 279.01C258.22 279.01 256.88 282.45 252 282.73C252 282.73 253.89 285.19 259.78 284.12C259.78 284.12 255.59 286.99 257.61 293.09C259.64 299.19 271.03 330.78 271.44 360.43C271.44 360.43 230.46 380.75 179.53 378.38C121.5 375.66 76.84 339.17 76.84 339.17C76.84 339.17 98.86 274.33 101.39 271.84C103.93 269.36 122.22 249.91 122.47 246.98C122.73 244.04 118.26 242.09 118.26 242.09C118.26 242.09 124.49 242.4 127.83 243.54C127.83 243.54 122.07 238.51 121.62 236.61C121.62 236.61 124.88 238.61 126.23 238.02C127.58 237.41 127.69 229.91 125.44 228.5C125.44 228.5 129.21 225.87 131.64 229.93C131.64 229.93 136.87 176.2 136.71 158.21C136.71 158.21 135.82 158.75 131.36 161.77C131.36 161.77 135.56 155.74 137.87 153.65C137.87 153.65 131.37 157.16 129.45 156.89C129.45 156.89 134.82 154.29 136.05 140.14C137.28 125.98 134.9 112.65 134.9 112.65L132.59 38.1C132.59 38.1 135.33 28.01 145.11 26.28C145.11 26.28 146.32 24.16 142.19 22.67C142.19 22.67 144.59 21.49 148.78 23.07C148.78 23.07 149.24 20.67 147.8 19.59C147.8 19.59 151.02 20.11 152 21.54C152 21.54 164.51 21.84 167.32 20.77C170.14 19.7 174.85 14.33 178.75 14.18C178.75 14.18 172.09 19.55 176.17 21.44C180.24 23.33 196.49 21.85 204.53 18.68C212.57 15.51 211.82 18.12 216.36 18.73C220.89 19.34 232.2 18.17 234.61 25.89C234.61 25.89 231.57 20.98 223.3 24.35C223.3 24.35 237.77 36.67 244.14 37.64C250.12 38.55 257.46 40.21 258.35 40.42C258.36 40.42 258.36 40.42 258.36 40.42C271.58 40.76 266.16 33.69 266.16 33.69C272.52 36.64 273.03 39.92 273.03 39.92C273.03 39.92 275.11 38.13 274.27 35.97C274.27 35.97 279.89 38.93 282.61 39.34C285.33 39.75 289 39.25 290.59 38.83C292.19 38.41 295.95 36.41 301.77 36.07C301.77 36.07 324.6 45.56 321.84 57.99C321.19 60.94 301.28 100.72 294.04 97.06C290.2 97.72 279.54 116.59 273.43 118.01C267.33 119.43 263.1 120.6 261.41 120.18C259.72 119.76 259.34 123.95 262.72 124.53C262.72 124.53 258.09 127.06 254.77 124.69C253.43 123.74 254.22 126.36 254.77 127.89C254.77 127.89 251.52 124.17 246.58 123.71C244.82 123.54 245.68 127.08 246.72 130.8C246.72 130.8 239.33 124.75 227.48 124.83C226.45 124.83 225.5 124.87 224.63 124.93V124.91Z" fill="#D8AF7B"/>
<path d="M258.35 40.4C257.8 40.4 257.21 40.36 256.59 40.32C248.15 39.76 239.6 40.32 231.61 39.32" stroke="#B89564" stroke-width="2" stroke-miterlimit="10"/>
<path d="M313.14 60.56C311.97 63.93 295.14 91.36 292 93.69C291.44 94.1 292.21 96.13 294.04 97.06C301.28 100.72 321.19 60.93 321.84 57.99C324.6 45.56 301.77 36.07 301.77 36.07C295.95 36.41 292.19 38.41 290.59 38.83C289 39.25 285.33 39.76 282.61 39.34C279.89 38.92 274.27 35.97 274.27 35.97C275.11 38.13 273.03 39.92 273.03 39.92C273.03 39.92 272.52 36.64 266.16 33.69C266.16 33.69 271.58 40.76 258.36 40.42" stroke="#B89564" stroke-width="2" stroke-miterlimit="10"/>
<path d="M292 93.68C282.24 96.92 262.71 102.26 258.67 101.68C254.64 101.1 239.81 102.03 236.69 100.41" stroke="#B89564" stroke-width="2" stroke-miterlimit="10"/>
<path d="M294.04 97.05C290.2 97.71 279.54 116.58 273.43 118C267.33 119.42 263.1 120.59 261.41 120.17C259.72 119.75 259.34 123.94 262.72 124.52C262.72 124.52 258.09 127.05 254.77 124.68C253.43 123.73 254.22 126.35 254.77 127.88C254.77 127.88 251.52 124.16 246.58 123.7C244.82 123.53 245.68 127.07 246.72 130.79C246.72 130.79 239.33 124.74 227.48 124.82C226.45 124.82 225.5 124.86 224.63 124.92C215.53 125.54 214.5 128.72 202.48 128.23C197.32 128.03 173.04 115.56 169.12 109.25" stroke="#B89564" stroke-width="2" stroke-miterlimit="10"/>
<path d="M224.63 124.91C225.25 138.56 225.25 142.99 225.05 148.1C224.84 153.21 223.02 168.71 224.44 171.62C225.87 174.54 228.89 176.91 232.39 178.19C232.39 178.19 228.31 177.64 226.59 178.19C226.59 178.19 229.71 179.62 231.58 183.96C231.58 183.96 224.24 181 223.67 181.84C223.09 182.68 223.18 186.97 222.97 189.93C222.91 190.87 222.35 222.9 223.81 231.01C224.95 237.31 227.93 279.32 258.22 279.01C258.22 279.01 256.88 282.45 252 282.73C252 282.73 253.89 285.19 259.78 284.12C259.78 284.12 255.59 286.99 257.61 293.09C259.64 299.19 271.03 330.78 271.44 360.43C271.44 360.43 230.46 380.75 179.53 378.38C121.5 375.66 76.84 339.17 76.84 339.17C76.84 339.17 98.86 274.33 101.39 271.84C103.93 269.36 122.22 249.91 122.47 246.98C122.73 244.04 118.26 242.09 118.26 242.09C118.26 242.09 124.49 242.4 127.83 243.54C127.83 243.54 122.07 238.51 121.62 236.61C121.62 236.61 124.88 238.61 126.23 238.02C127.58 237.41 127.69 229.91 125.44 228.5C125.44 228.5 129.21 225.87 131.64 229.93C131.64 229.93 136.87 176.2 136.71 158.21C136.71 158.21 135.82 158.75 131.36 161.77C131.36 161.77 135.56 155.74 137.87 153.65C137.87 153.65 131.37 157.16 129.45 156.89C129.45 156.89 134.82 154.29 136.05 140.14C137.28 125.98 134.9 112.65 134.9 112.65L132.59 38.1C132.59 38.1 135.33 28.01 145.11 26.28C145.11 26.28 146.32 24.16 142.19 22.67C142.19 22.67 144.59 21.49 148.78 23.07C148.78 23.07 149.24 20.67 147.8 19.59C147.8 19.59 151.02 20.11 152 21.54C152 21.54 164.51 21.84 167.32 20.77C170.14 19.7 174.85 14.33 178.75 14.18C178.75 14.18 172.09 19.55 176.17 21.44C180.24 23.33 196.49 21.85 204.53 18.68C212.57 15.51 211.82 18.12 216.36 18.73C220.89 19.34 232.2 18.17 234.61 25.89C234.61 25.89 231.57 20.98 223.3 24.35C223.3 24.35 237.77 36.67 244.14 37.64C250.12 38.55 257.46 40.21 258.35 40.42C258.36 40.42 258.36 40.42 258.36 40.42C258.41 40.42 258.44 40.44 258.44 40.44" stroke="#B89564" stroke-width="2" stroke-miterlimit="10"/>
<path d="M169.11 110.66C169.11 110.66 180.93 128.32 184.28 130.78C187.63 133.24 196.24 140.91 201.9 141.97C207.56 143.03 220.68 138.25 223.17 138.45C225.66 138.65 224.39 138.49 224.39 138.49L224.14 125.23C224.14 125.23 220.48 126.14 217.9 126.71C215.32 127.28 208 128.54 202.39 128.75C196.26 128.98 170.74 111.77 169.11 110.67V110.66Z" fill="#A4875F"/>
<path d="M135.13 211.32C136.8 218.97 136.52 241.58 162.86 279.65C181.86 307.1 199.45 313.91 199.45 313.91L205.11 305.48L135.13 211.32Z" fill="#A4875F"/>
<path d="M140.29 208.74C151.93 215.36 192.69 233.75 220.98 211.04C220.98 211.04 210.01 231.59 209.51 231.78C209.01 231.97 172.25 232.93 172.25 232.93L144.2 217.98L140.3 208.74" fill="#A4875F"/>
<path d="M191.89 378.78C295.107 378.78 378.78 295.107 378.78 191.89C378.78 88.6735 295.107 5 191.89 5C88.6735 5 5 88.6735 5 191.89C5 295.107 88.6735 378.78 191.89 378.78Z" stroke="#86888A" stroke-width="10" stroke-miterlimit="10"/>
<path d="M258.35 40.4C257.8 40.4 257.21 40.36 256.59 40.32" stroke="#B89564" stroke-width="2" stroke-miterlimit="10"/>
<path d="M313.14 60.56C311.97 63.93 295.14 91.36 292 93.69C291.44 94.1 292.21 96.13 294.04 97.06C301.28 100.72 321.19 60.93 321.84 57.99C324.6 45.56 301.77 36.07 301.77 36.07C295.95 36.41 292.19 38.41 290.59 38.83C289 39.25 285.33 39.76 282.61 39.34C279.89 38.92 274.27 35.97 274.27 35.97C275.11 38.13 273.03 39.92 273.03 39.92C273.03 39.92 272.52 36.64 266.16 33.69C266.16 33.69 271.58 40.76 258.36 40.42" stroke="#B89564" stroke-width="2" stroke-miterlimit="10"/>
<path d="M292 93.68C282.24 96.92 262.71 102.26 258.67 101.68C254.64 101.1 239.81 102.03 236.69 100.41" stroke="#B89564" stroke-width="2" stroke-miterlimit="10"/>
<path d="M294.04 97.05C290.2 97.71 279.54 116.58 273.43 118C267.33 119.42 263.1 120.59 261.41 120.17C259.72 119.75 259.34 123.94 262.72 124.52C262.72 124.52 258.09 127.05 254.77 124.68C253.43 123.73 254.22 126.35 254.77 127.88C254.77 127.88 251.52 124.16 246.58 123.7C244.82 123.53 245.68 127.07 246.72 130.79C246.72 130.79 239.33 124.74 227.48 124.82C226.45 124.82 225.5 124.86 224.63 124.92C215.53 125.54 214.5 128.72 202.48 128.23C197.32 128.03 173.04 115.56 169.12 109.25" stroke="#B89564" stroke-width="2" stroke-miterlimit="10"/>
<path d="M244.14 37.63C250.12 38.54 257.46 40.2 258.35 40.41H258.36L258.44 40.43" stroke="#B89564" stroke-width="2" stroke-miterlimit="10"/>
<path d="M101.39 271.84C103.93 269.36 122.22 249.91 122.47 246.98C122.73 244.04 118.26 242.09 118.26 242.09C118.26 242.09 124.49 242.4 127.83 243.54C127.83 243.54 122.07 238.51 121.62 236.61C121.62 236.61 124.88 238.61 126.23 238.02C127.58 237.41 127.69 229.91 125.44 228.5C125.44 228.5 129.21 225.87 131.64 229.93C131.64 229.93 136.87 176.2 136.71 158.21C136.71 158.21 135.82 158.75 131.36 161.77C131.36 161.77 135.56 155.74 137.87 153.65C137.87 153.65 131.37 157.16 129.45 156.89C129.45 156.89 134.82 154.29 136.05 140.14C137.28 125.98 134.9 112.65 134.9 112.65L132.59 38.1C132.59 38.1 135.33 28.01 145.11 26.28C145.11 26.28 146.32 24.16 142.19 22.67C142.19 22.67 144.59 21.49 148.78 23.07C148.78 23.07 149.24 20.67 147.8 19.59C147.8 19.59 151.02 20.11 152 21.54C152 21.54 164.51 21.84 167.32 20.77C170.14 19.7 174.85 14.33 178.75 14.18C178.75 14.18 172.09 19.55 176.17 21.44C180.24 23.33 196.49 21.85 204.53 18.68C212.57 15.51 211.82 18.12 216.36 18.73C220.89 19.34 232.2 18.17 234.61 25.89C234.61 25.89 231.57 20.98 223.3 24.35" stroke="#B89564" stroke-width="2" stroke-miterlimit="10"/>
<path d="M224.63 124.91C225.25 138.56 225.25 142.99 225.05 148.1C224.84 153.21 223.02 168.71 224.44 171.62C225.87 174.54 228.89 176.91 232.39 178.19C232.39 178.19 228.31 177.64 226.59 178.19C226.59 178.19 229.71 179.62 231.58 183.96C231.58 183.96 224.24 181 223.67 181.84C223.09 182.68 223.18 186.97 222.97 189.93C222.91 190.87 222.35 222.9 223.81 231.01C224.95 237.31 227.93 279.32 258.22 279.01C258.22 279.01 256.88 282.45 252 282.73C252 282.73 253.89 285.19 259.78 284.12C259.78 284.12 255.59 286.99 257.61 293.09" stroke="#B89564" stroke-width="2" stroke-miterlimit="10"/>
<path d="M136.91 32.61C128.13 31.33 120.52 43.93 118.49 45.34C116.46 46.75 116.63 46.6 114.77 48.64C112.91 50.68 110.04 47.54 103.61 51C97.18 54.46 97.01 52.78 95.6 52.64C95.6 52.64 95.45 55.53 99.3 56.22C99.3 56.22 93.74 54.91 90.41 56.22C90.41 56.22 97.23 57.25 96.19 58.84C95.15 60.43 87.6 64.7 89.45 74.75C91.3 84.8 99.24 113.34 111.74 124.96C124.23 136.58 129.62 143.99 135.22 142.19C140.82 140.39 146.42 120.36 150.73 116.15C155.04 111.94 153.9 118.12 153.9 118.12C153.9 118.12 157.72 113.51 154.63 110.4C151.54 107.29 159.27 108.13 159.43 109.95C159.43 109.95 160.32 107.08 156.09 103.82C151.86 100.56 158.44 91.37 154.29 79.26C150.15 67.15 146.47 55.36 145.88 47.22C145.29 39.07 140.91 33.21 136.89 32.62L136.91 32.61Z" fill="#B89564" stroke="#A4875F" stroke-width="2" stroke-miterlimit="10"/>
<path d="M304.68 33.84C299 34.4 297.98 33.07 294.12 36.2C291.87 38.02 285.5 41.5 285.5 48.76C285.5 52.93 291.81 60.33 299.7 63.45C303.12 64.81 305.36 67.97 307.59 68.61C311.65 69.79 315.72 68.27 320.58 61.88C325.43 55.49 329.2 45.05 328.1 41.8C327 38.55 317.18 32.6 304.68 33.84Z" fill="#363436" stroke="#231F20" stroke-miterlimit="10"/>
<path d="M307.77 54.68C305.98 53.75 305.03 56.07 305.53 56.85C306.03 57.63 308.49 56.75 309.89 58.04C311.03 59.09 311.34 56.54 307.77 54.68Z" fill="#231F20" stroke="#231F20" stroke-miterlimit="10"/>
<path d="M323.2 53.33C324.99 52.4 325.27 53.95 324.77 54.73C324.27 55.51 322.45 55.38 321.08 56.69C320.1 57.62 319.63 55.19 323.2 53.33Z" fill="#231F20" stroke="#231F20" stroke-miterlimit="10"/>
<path d="M310.06 68.6C312.46 66.39 314.87 63.93 316.53 61.11C317.07 59.9 317.18 57.71 317.52 56.27C317.75 54.63 317.98 52.91 317.39 51.32C318.48 54.11 317.51 57.17 317.31 60.03C317.31 60.46 317.16 60.96 316.98 61.33C315.38 64.37 313.12 66.9 310.74 69.33L310.06 68.6Z" fill="#231F20"/>
<path d="M132.99 203.93C152.3 217.19 171.72 226.72 194.76 223.98C217.8 221.25 224.05 206.57 224.83 204.95C224.83 204.95 229.85 273.33 201.18 311.19C201.18 311.19 155.38 285.73 133 203.93H132.99Z" fill="#A7A9AC" stroke="#86888A" stroke-width="2" stroke-miterlimit="10"/>
<path d="M161.23 232.56C190.81 244.27 201.8 245.74 215.78 230.83C215.78 230.83 207.01 245.22 197.08 245.47C179.33 245.92 161.23 232.56 161.23 232.56Z" fill="#97999C"/>
<path d="M154.9 227.69C164.81 235.31 186.51 246.6 199.05 244.17C205.17 242.6 210.01 237.7 213.86 232.82C215.83 230.26 217.65 227.55 218.86 224.52C218.08 227.72 216.39 230.61 214.66 233.4C210.16 240.19 203.22 247.07 194.39 246.51C180.82 245.75 164.55 237 154.89 227.7L154.9 227.69Z" fill="#86888A"/>
<path d="M191.687 59.3002C195.538 58.5614 197.793 53.4468 196.725 47.8764C195.656 42.3061 191.668 38.3893 187.817 39.1281C183.966 39.8669 181.71 44.9815 182.779 50.5519C183.848 56.1222 187.836 60.039 191.687 59.3002Z" fill="#231F20"/>
<path d="M238.22 34.66C240.17 40.52 238.46 40.34 235.42 40.02C233.47 39.81 229.14 42.4 227.73 38.2C226.31 34.01 227.52 29.81 230.41 28.84C233.3 27.87 236.82 30.46 238.22 34.66Z" fill="#231F20"/>
<path d="M191.57 46.48C192.824 46.48 193.84 45.4637 193.84 44.21C193.84 42.9563 192.824 41.94 191.57 41.94C190.316 41.94 189.3 42.9563 189.3 44.21C189.3 45.4637 190.316 46.48 191.57 46.48Z" fill="white"/>
<path d="M233.26 33.52C234.171 33.52 234.91 32.7813 234.91 31.87C234.91 30.9587 234.171 30.22 233.26 30.22C232.349 30.22 231.61 30.9587 231.61 31.87C231.61 32.7813 232.349 33.52 233.26 33.52Z" fill="white"/>
<path d="M238.97 40.89C229.18 40.34 217.89 40.34 210.78 48.17C212.49 46.31 214.3 44.46 216.55 43.18C223.29 39.32 231.44 39.04 239.03 38.89L238.97 40.89Z" fill="#B89564"/>
<path d="M236.31 101.37C232.43 98.78 227.66 97.01 224.63 93.34C228.16 96.54 233 97.57 237.23 99.6L236.31 101.38V101.37Z" fill="#B89564"/>
<path d="M168.34 109.87C166.63 106.82 165.93 102.74 162.6 101.04C165.33 101.72 166.91 104.49 168.48 106.61C168.99 107.35 169.5 108.12 170.01 108.76L168.34 109.87Z" fill="#B89564"/>
</svg>
