<svg width="296" height="296" viewBox="0 0 296 296" fill="none" xmlns="http://www.w3.org/2000/svg">
<path d="M41.4297 0C45.7557 1.95767 56.7042 5.87304 65.8887 5.87305C75.0732 5.87305 83.3596 1.95767 86.3545 0H95.3389L99.332 7.83105L116.304 0H128.283C130.28 2.61022 136.769 7.831 146.752 7.83105C156.735 7.83105 162.891 2.61024 164.722 0H175.204L191.676 7.83105L198.165 0H206.151C209.645 1.95767 219.03 5.87305 228.614 5.87305C238.198 5.87293 246.251 1.95766 249.079 0H258.563L264.553 5.87305L279.028 0H296V18.4023L284.021 32.1055L296 38.3701V46.5928C292.672 51.6828 286.017 64.4468 286.017 74.7832C286.017 85.1195 292.672 92.4017 296 94.751V100.624L286.017 104.148L296 118.243V129.598C291.008 132.208 280.926 139.856 280.526 149.566C280.127 159.276 290.676 165.88 296 167.968V178.54L286.017 190.286L296 196.55V203.206C293.005 205.033 286.815 211.977 286.017 225.132C285.218 238.287 292.34 247.58 296 250.582V259.195L284.021 265.852L296 280.339V296H276.533L263.555 290.91L260.061 296H250.077C246.084 294.303 235.801 290.91 226.617 290.91C217.433 290.91 211.143 294.303 209.146 296H196.668L191.676 288.952L176.701 296H163.724C161.727 292.998 155.338 286.995 145.754 286.995C136.17 286.995 129.781 292.998 127.784 296H117.801L100.33 288.952L94.8398 296H85.8545C83.192 294.303 75.1727 290.91 64.3916 290.91C53.6098 290.91 44.9237 294.303 41.9287 296H34.4414L28.9512 290.91L15.4736 296H0V279.947L11.4805 265.852L0 258.805V250.582C2.66216 248.885 7.9863 242.047 7.98633 228.265C7.98633 214.483 2.66217 205.816 0 203.206V197.333L7.98633 191.068L0 176.582V167.968C3.9933 166.532 11.9795 160.607 11.9795 148.392C11.9795 136.176 3.99325 131.294 0 130.381V117.852L7.98633 106.889L0 102.582V95.5342C2.16303 92.0103 6.78831 82.0656 7.98633 70.4766C9.1843 58.8871 3.16133 48.6807 0 45.0264V39.5449L11.9795 32.8887L0 18.0107V0.391602H16.9717L28.9512 5.87305L32.9443 0H41.4297ZM45 46V251H250V46H45Z" fill="#D69355"/>
<path d="M263 263H33V33H263V263ZM45 46V251H250V46H45Z" fill="white"/>
<path d="M259 259H37V37H259V259ZM45 46V251H250V46H45Z" fill="#D69355"/>
</svg>
