<svg width="310" height="310" viewBox="0 0 310 310" fill="none" xmlns="http://www.w3.org/2000/svg">
<g clip-path="url(#clip0_78_10)">
<path d="M5.62652 201.807L35.4385 172.218L91.467 178.562L134.4 135.951L13.6239 90.6131L49.3851 55.1197L198.783 72.0495L251.268 19.9576C257.812 13.4625 265.437 9.90691 274.175 9.32396C282.913 8.741 290.093 11.3482 295.749 17.0468C301.405 22.7453 303.925 29.9778 303.309 38.6782C302.694 47.3787 299.081 54.9763 292.504 61.5042L240.019 113.596L255.825 263.118L220.064 298.611L175.636 177.497L132.702 220.109L138.626 276.184L108.814 305.772L75.0678 236.01L5.62652 201.807Z" fill="#EF3734"/>
</g>
<defs>
<clipPath id="clip0_78_10">
<rect width="310" height="310" fill="white"/>
</clipPath>
</defs>
</svg>
