<svg width="296" height="296" viewBox="0 0 296 296" fill="none" xmlns="http://www.w3.org/2000/svg">
<rect x="5" y="5" width="286" height="286" fill="#F4A127" stroke="#FFDBAD" stroke-width="10"/>
<path d="M123.748 60.556C123.748 61.2147 123.672 61.8733 123.52 62.532C123.393 63.1653 123.178 63.7733 122.874 64.356C122.57 64.9133 122.164 65.4073 121.658 65.838C121.176 66.2687 120.594 66.598 119.91 66.826V67.054C120.518 67.206 121.088 67.434 121.62 67.738C122.177 68.042 122.658 68.46 123.064 68.992C123.469 69.4987 123.786 70.132 124.014 70.892C124.267 71.6267 124.394 72.5007 124.394 73.514C124.394 74.882 124.153 76.0727 123.672 77.086C123.216 78.074 122.582 78.8847 121.772 79.518C120.986 80.1513 120.062 80.62 118.998 80.924C117.934 81.228 116.806 81.38 115.616 81.38C115.261 81.38 114.805 81.38 114.248 81.38C113.69 81.38 113.082 81.3547 112.424 81.304C111.79 81.2787 111.132 81.228 110.448 81.152C109.764 81.076 109.13 80.962 108.548 80.81V54.59C109.384 54.438 110.41 54.3113 111.626 54.21C112.867 54.0833 114.096 54.02 115.312 54.02C116.426 54.02 117.49 54.1087 118.504 54.286C119.542 54.4633 120.442 54.7927 121.202 55.274C121.987 55.7553 122.608 56.4267 123.064 57.288C123.52 58.124 123.748 59.2133 123.748 60.556ZM115.73 77.238C116.794 77.238 117.668 76.896 118.352 76.212C119.036 75.528 119.378 74.5273 119.378 73.21C119.378 72.374 119.264 71.7153 119.036 71.234C118.808 70.7273 118.504 70.3473 118.124 70.094C117.744 69.8153 117.3 69.638 116.794 69.562C116.312 69.486 115.806 69.448 115.274 69.448H113.336V77.01C113.538 77.086 113.88 77.1493 114.362 77.2C114.868 77.2253 115.324 77.238 115.73 77.238ZM114.438 65.686C114.716 65.686 115.033 65.6733 115.388 65.648C115.768 65.5973 116.072 65.5467 116.3 65.496C117.034 65.2173 117.655 64.7613 118.162 64.128C118.694 63.4947 118.96 62.6713 118.96 61.658C118.96 60.9993 118.871 60.442 118.694 59.986C118.516 59.53 118.276 59.1753 117.972 58.922C117.668 58.6433 117.3 58.4533 116.87 58.352C116.464 58.2253 116.021 58.162 115.54 58.162C114.501 58.162 113.766 58.2127 113.336 58.314V65.686H114.438ZM141.351 74.996H135.081L133.523 81H128.773L136.487 54.21H140.249L148.001 81H142.985L141.351 74.996ZM136.107 71.044H140.515L138.995 64.85L138.387 60.67H138.235L137.589 64.888L136.107 71.044ZM162.364 74.16C162.364 73.3493 162.123 72.6653 161.642 72.108C161.16 71.5253 160.552 70.9807 159.818 70.474C159.108 69.9673 158.323 69.448 157.462 68.916C156.626 68.384 155.84 67.7633 155.106 67.054C154.396 66.3447 153.801 65.5087 153.32 64.546C152.838 63.5833 152.598 62.4053 152.598 61.012C152.598 59.72 152.788 58.6307 153.168 57.744C153.573 56.832 154.118 56.0973 154.802 55.54C155.486 54.9573 156.296 54.5393 157.234 54.286C158.171 54.0073 159.172 53.868 160.236 53.868C161.528 53.868 162.731 53.9947 163.846 54.248C164.96 54.5013 165.885 54.8433 166.62 55.274L165.138 59.492C164.707 59.188 164.061 58.9093 163.2 58.656C162.364 58.4027 161.452 58.276 160.464 58.276C159.476 58.276 158.716 58.4787 158.184 58.884C157.652 59.2893 157.386 59.8847 157.386 60.67C157.386 61.3793 157.626 62.0127 158.108 62.57C158.589 63.102 159.184 63.6213 159.894 64.128C160.628 64.6347 161.414 65.1667 162.25 65.724C163.111 66.256 163.896 66.8893 164.606 67.624C165.34 68.3333 165.948 69.182 166.43 70.17C166.911 71.1327 167.152 72.2853 167.152 73.628C167.152 74.9707 166.949 76.136 166.544 77.124C166.164 78.112 165.606 78.9353 164.872 79.594C164.162 80.2273 163.301 80.7087 162.288 81.038C161.274 81.3673 160.147 81.532 158.906 81.532C157.335 81.532 155.954 81.38 154.764 81.076C153.598 80.772 152.699 80.43 152.066 80.05L153.624 75.756C154.13 76.06 154.827 76.364 155.714 76.668C156.6 76.972 157.55 77.124 158.564 77.124C161.097 77.124 162.364 76.136 162.364 74.16ZM182.483 74.16C182.483 73.3493 182.242 72.6653 181.761 72.108C181.28 71.5253 180.672 70.9807 179.937 70.474C179.228 69.9673 178.442 69.448 177.581 68.916C176.745 68.384 175.96 67.7633 175.225 67.054C174.516 66.3447 173.92 65.5087 173.439 64.546C172.958 63.5833 172.717 62.4053 172.717 61.012C172.717 59.72 172.907 58.6307 173.287 57.744C173.692 56.832 174.237 56.0973 174.921 55.54C175.605 54.9573 176.416 54.5393 177.353 54.286C178.29 54.0073 179.291 53.868 180.355 53.868C181.647 53.868 182.85 53.9947 183.965 54.248C185.08 54.5013 186.004 54.8433 186.739 55.274L185.257 59.492C184.826 59.188 184.18 58.9093 183.319 58.656C182.483 58.4027 181.571 58.276 180.583 58.276C179.595 58.276 178.835 58.4787 178.303 58.884C177.771 59.2893 177.505 59.8847 177.505 60.67C177.505 61.3793 177.746 62.0127 178.227 62.57C178.708 63.102 179.304 63.6213 180.013 64.128C180.748 64.6347 181.533 65.1667 182.369 65.724C183.23 66.256 184.016 66.8893 184.725 67.624C185.46 68.3333 186.068 69.182 186.549 70.17C187.03 71.1327 187.271 72.2853 187.271 73.628C187.271 74.9707 187.068 76.136 186.663 77.124C186.283 78.112 185.726 78.9353 184.991 79.594C184.282 80.2273 183.42 80.7087 182.407 81.038C181.394 81.3673 180.266 81.532 179.025 81.532C177.454 81.532 176.074 81.38 174.883 81.076C173.718 80.772 172.818 80.43 172.185 80.05L173.743 75.756C174.25 76.06 174.946 76.364 175.833 76.668C176.72 76.972 177.67 77.124 178.683 77.124C181.216 77.124 182.483 76.136 182.483 74.16ZM106.669 147.04C105.858 146.016 105.175 144.885 104.621 143.648C104.087 142.432 103.65 141.184 103.309 139.904C102.967 138.603 102.722 137.301 102.573 136C102.423 134.677 102.349 133.419 102.349 132.224C102.349 131.051 102.423 129.813 102.573 128.512C102.722 127.211 102.967 125.909 103.309 124.608C103.65 123.285 104.098 121.995 104.653 120.736C105.229 119.477 105.922 118.304 106.733 117.216L108.173 118.08C107.49 119.168 106.925 120.309 106.477 121.504C106.029 122.699 105.666 123.915 105.389 125.152C105.133 126.368 104.941 127.584 104.812 128.8C104.706 129.995 104.653 131.136 104.653 132.224C104.653 133.248 104.717 134.379 104.845 135.616C104.973 136.832 105.175 138.059 105.453 139.296C105.751 140.533 106.125 141.739 106.573 142.912C107.021 144.085 107.554 145.141 108.173 146.08L106.669 147.04ZM111.289 137.856H114.905V122.272L115.193 120.384L114.105 121.92L111.417 124.096L110.201 122.656L116.025 117.216H117.209V137.856H120.697V140H111.289V137.856ZM124.16 124.384C124.16 122.165 124.629 120.416 125.568 119.136C126.528 117.856 127.946 117.216 129.824 117.216C131.616 117.216 133.002 117.877 133.984 119.2C134.986 120.523 135.488 122.549 135.488 125.28C135.488 127.691 135.264 129.792 134.816 131.584C134.368 133.355 133.749 134.859 132.96 136.096C132.17 137.312 131.242 138.272 130.176 138.976C129.109 139.68 127.957 140.149 126.72 140.384L126.112 138.496C128.16 137.963 129.749 136.896 130.88 135.296C132.01 133.675 132.725 131.648 133.024 129.216C132.576 129.835 132.074 130.272 131.52 130.528C130.986 130.784 130.272 130.912 129.376 130.912C128.693 130.912 128.032 130.784 127.391 130.528C126.773 130.251 126.218 129.845 125.728 129.312C125.258 128.757 124.874 128.075 124.576 127.264C124.298 126.432 124.16 125.472 124.16 124.384ZM126.496 124.128C126.496 125.643 126.805 126.805 127.424 127.616C128.042 128.427 128.864 128.832 129.888 128.832C130.698 128.832 131.381 128.661 131.936 128.32C132.512 127.957 132.928 127.499 133.184 126.944C133.226 126.667 133.248 126.4 133.248 126.144C133.248 125.888 133.248 125.643 133.248 125.408C133.248 124.597 133.173 123.829 133.024 123.104C132.896 122.357 132.682 121.707 132.384 121.152C132.106 120.576 131.744 120.128 131.296 119.808C130.848 119.467 130.314 119.296 129.696 119.296C128.693 119.296 127.904 119.733 127.328 120.608C126.773 121.483 126.496 122.656 126.496 124.128ZM150.886 133.12H147.91V140H145.606V133.12H137.734V132.032L146.214 117.248H147.91V131.04H150.886V133.12ZM145.606 123.872L145.99 121.12H145.894L144.934 123.584L141.414 129.696L140.198 131.264L141.958 131.04H145.606V123.872ZM162.924 117.6V119.84H156.844V126.368L157.932 126.272C159.639 126.293 160.983 126.88 161.964 128.032C162.945 129.184 163.447 130.837 163.468 132.992C163.447 134.187 163.265 135.243 162.924 136.16C162.604 137.077 162.156 137.856 161.58 138.496C161.004 139.115 160.332 139.584 159.564 139.904C158.796 140.224 157.975 140.384 157.1 140.384C155.628 140.384 154.444 140.181 153.548 139.776L154.124 137.728C154.508 137.92 154.935 138.059 155.404 138.144C155.873 138.208 156.417 138.24 157.036 138.24C158.252 138.24 159.233 137.803 159.98 136.928C160.748 136.032 161.143 134.784 161.164 133.184C161.143 131.541 160.748 130.325 159.98 129.536C159.233 128.747 158.188 128.352 156.844 128.352L154.732 128.512V117.6H162.924ZM167.41 129.76H173.714V131.968H167.41V129.76ZM188.255 146.08C188.873 145.141 189.407 144.085 189.855 142.912C190.303 141.739 190.665 140.533 190.943 139.296C191.241 138.059 191.455 136.832 191.583 135.616C191.711 134.379 191.775 133.248 191.775 132.224C191.775 131.136 191.711 129.995 191.583 128.8C191.476 127.584 191.284 126.368 191.007 125.152C190.751 123.915 190.388 122.699 189.919 121.504C189.471 120.309 188.916 119.168 188.255 118.08L189.695 117.216C190.505 118.304 191.188 119.477 191.743 120.736C192.319 121.995 192.777 123.285 193.119 124.608C193.46 125.909 193.705 127.211 193.855 128.512C194.004 129.813 194.079 131.051 194.079 132.224C194.079 133.419 194.004 134.677 193.855 136C193.705 137.301 193.46 138.603 193.119 139.904C192.777 141.184 192.329 142.432 191.775 143.648C191.22 144.885 190.548 146.016 189.759 147.04L188.255 146.08ZM89.8789 181H79.0949V158.6H81.4949V178.792H89.8789V181ZM89.8916 169.8C89.8916 166.003 90.4996 163.123 91.7156 161.16C92.9316 159.197 94.7876 158.216 97.2836 158.216C98.6276 158.216 99.769 158.493 100.708 159.048C101.646 159.581 102.404 160.349 102.98 161.352C103.577 162.355 104.014 163.571 104.292 165C104.569 166.429 104.708 168.029 104.708 169.8C104.708 173.597 104.089 176.477 102.852 178.44C101.636 180.403 99.7796 181.384 97.2836 181.384C95.961 181.384 94.8303 181.117 93.8916 180.584C92.953 180.029 92.185 179.251 91.5876 178.248C90.9903 177.245 90.553 176.029 90.2756 174.6C90.0196 173.171 89.8916 171.571 89.8916 169.8ZM92.4196 169.8C92.4196 171.059 92.505 172.253 92.6756 173.384C92.8676 174.515 93.1556 175.507 93.5396 176.36C93.9236 177.213 94.425 177.896 95.0436 178.408C95.6623 178.92 96.409 179.176 97.2836 179.176C98.8836 179.176 100.1 178.408 100.932 176.872C101.764 175.336 102.18 172.979 102.18 169.8C102.18 168.563 102.084 167.379 101.892 166.248C101.721 165.117 101.444 164.125 101.06 163.272C100.676 162.397 100.174 161.704 99.5556 161.192C98.937 160.68 98.1796 160.424 97.2836 160.424C95.705 160.424 94.4996 161.192 93.6676 162.728C92.8356 164.264 92.4196 166.621 92.4196 169.8ZM111.55 166.792L110.174 163.272H110.078L110.43 166.792V181H108.126V158.248H109.566L117.854 172.776L119.166 176.136H119.294L118.942 172.776V158.6H121.246V181.352H119.774L111.55 166.792ZM125.345 158.6C125.686 158.536 126.06 158.493 126.465 158.472C126.892 158.429 127.318 158.408 127.745 158.408C128.172 158.387 128.588 158.376 128.993 158.376C129.42 158.355 129.814 158.344 130.177 158.344C131.734 158.344 133.057 158.611 134.145 159.144C135.233 159.677 136.118 160.445 136.801 161.448C137.484 162.429 137.974 163.613 138.273 165C138.572 166.387 138.721 167.933 138.721 169.64C138.721 171.176 138.572 172.648 138.273 174.056C137.996 175.464 137.516 176.701 136.833 177.768C136.15 178.835 135.244 179.688 134.113 180.328C133.004 180.968 131.606 181.288 129.921 181.288C129.644 181.288 129.292 181.277 128.865 181.256C128.438 181.256 127.99 181.235 127.521 181.192C127.073 181.171 126.646 181.149 126.241 181.128C125.857 181.107 125.558 181.075 125.345 181.032V158.6ZM130.305 160.552C130.092 160.552 129.857 160.552 129.601 160.552C129.366 160.552 129.132 160.563 128.897 160.584C128.662 160.605 128.438 160.627 128.225 160.648C128.033 160.669 127.873 160.691 127.745 160.712V178.952C127.83 178.973 127.98 178.995 128.193 179.016C128.428 179.016 128.662 179.027 128.897 179.048C129.153 179.048 129.388 179.059 129.601 179.08C129.836 179.08 130.006 179.08 130.113 179.08C131.286 179.08 132.268 178.824 133.057 178.312C133.846 177.8 134.465 177.117 134.913 176.264C135.382 175.389 135.713 174.387 135.905 173.256C136.097 172.104 136.193 170.888 136.193 169.608C136.193 168.477 136.108 167.368 135.937 166.28C135.766 165.192 135.457 164.232 135.009 163.4C134.582 162.547 133.985 161.864 133.217 161.352C132.47 160.819 131.5 160.552 130.305 160.552ZM141.485 169.8C141.485 166.003 142.093 163.123 143.309 161.16C144.525 159.197 146.381 158.216 148.877 158.216C150.221 158.216 151.363 158.493 152.301 159.048C153.24 159.581 153.997 160.349 154.573 161.352C155.171 162.355 155.608 163.571 155.885 165C156.163 166.429 156.301 168.029 156.301 169.8C156.301 173.597 155.683 176.477 154.445 178.44C153.229 180.403 151.373 181.384 148.877 181.384C147.555 181.384 146.424 181.117 145.485 180.584C144.547 180.029 143.779 179.251 143.181 178.248C142.584 177.245 142.147 176.029 141.869 174.6C141.613 173.171 141.485 171.571 141.485 169.8ZM144.013 169.8C144.013 171.059 144.099 172.253 144.269 173.384C144.461 174.515 144.749 175.507 145.133 176.36C145.517 177.213 146.019 177.896 146.637 178.408C147.256 178.92 148.003 179.176 148.877 179.176C150.477 179.176 151.693 178.408 152.525 176.872C153.357 175.336 153.773 172.979 153.773 169.8C153.773 168.563 153.677 167.379 153.485 166.248C153.315 165.117 153.037 164.125 152.653 163.272C152.269 162.397 151.768 161.704 151.149 161.192C150.531 160.68 149.773 160.424 148.877 160.424C147.299 160.424 146.093 161.192 145.261 162.728C144.429 164.264 144.013 166.621 144.013 169.8ZM163.144 166.792L161.768 163.272H161.672L162.024 166.792V181H159.72V158.248H161.16L169.448 172.776L170.76 176.136H170.888L170.536 172.776V158.6H172.84V181.352H171.368L163.144 166.792ZM176.043 179.624C176.043 179.091 176.192 178.664 176.491 178.344C176.811 178.024 177.216 177.864 177.707 177.864C178.261 177.864 178.709 178.088 179.051 178.536C179.413 178.984 179.595 179.688 179.595 180.648C179.595 181.352 179.499 181.981 179.307 182.536C179.136 183.112 178.901 183.613 178.603 184.04C178.325 184.467 178.016 184.819 177.675 185.096C177.333 185.373 177.003 185.576 176.683 185.704L175.883 184.616C176.16 184.467 176.416 184.264 176.651 184.008C176.907 183.773 177.109 183.507 177.259 183.208C177.429 182.909 177.557 182.589 177.643 182.248C177.728 181.928 177.771 181.608 177.771 181.288C177.344 181.416 176.949 181.331 176.587 181.032C176.224 180.733 176.043 180.264 176.043 179.624ZM197.804 158.6H200.108V173.608C200.108 176.317 199.575 178.28 198.508 179.496C197.463 180.691 195.97 181.288 194.028 181.288C191.767 181.288 190.114 180.701 189.068 179.528C188.044 178.355 187.532 176.552 187.532 174.12V158.6H189.932V172.872C189.932 174.024 190.007 174.995 190.156 175.784C190.306 176.573 190.551 177.213 190.892 177.704C191.234 178.195 191.66 178.547 192.172 178.76C192.684 178.973 193.314 179.08 194.06 179.08C195.468 179.08 196.439 178.589 196.972 177.608C197.527 176.627 197.804 175.048 197.804 172.872V158.6ZM207.772 170.632H206.62V181H204.22V158.6H206.62V169.032L207.74 168.584L213.564 158.6H216.316L210.46 168.264L209.34 169.288L210.652 170.568L217.148 181H214.108L207.772 170.632ZM74.726 199.6H77.126V216.976C77.126 218.725 76.838 220.059 76.262 220.976C75.7073 221.872 74.726 222.32 73.318 222.32C72.9767 222.32 72.5607 222.277 72.07 222.192C71.6007 222.107 71.2167 221.979 70.918 221.808L71.43 219.728C71.6433 219.856 71.878 219.952 72.134 220.016C72.4113 220.08 72.6887 220.112 72.966 220.112C73.35 220.112 73.6593 220.027 73.894 219.856C74.1287 219.685 74.31 219.451 74.438 219.152C74.566 218.832 74.6407 218.459 74.662 218.032C74.7047 217.584 74.726 217.083 74.726 216.528V199.6ZM80.8448 210.8C80.8448 207.003 81.4528 204.123 82.6688 202.16C83.8848 200.197 85.7408 199.216 88.2368 199.216C89.5808 199.216 90.7221 199.493 91.6608 200.048C92.5994 200.581 93.3568 201.349 93.9328 202.352C94.5301 203.355 94.9674 204.571 95.2448 206C95.5221 207.429 95.6608 209.029 95.6608 210.8C95.6608 214.597 95.0421 217.477 93.8048 219.44C92.5888 221.403 90.7328 222.384 88.2368 222.384C86.9141 222.384 85.7834 222.117 84.8448 221.584C83.9061 221.029 83.1381 220.251 82.5408 219.248C81.9434 218.245 81.5061 217.029 81.2288 215.6C80.9728 214.171 80.8448 212.571 80.8448 210.8ZM83.3728 210.8C83.3728 212.059 83.4581 213.253 83.6288 214.384C83.8208 215.515 84.1088 216.507 84.4928 217.36C84.8768 218.213 85.3781 218.896 85.9968 219.408C86.6154 219.92 87.3621 220.176 88.2368 220.176C89.8368 220.176 91.0528 219.408 91.8848 217.872C92.7168 216.336 93.1328 213.979 93.1328 210.8C93.1328 209.563 93.0368 208.379 92.8448 207.248C92.6741 206.117 92.3968 205.125 92.0128 204.272C91.6288 203.397 91.1274 202.704 90.5088 202.192C89.8901 201.68 89.1328 201.424 88.2368 201.424C86.6581 201.424 85.4528 202.192 84.6208 203.728C83.7888 205.264 83.3728 207.621 83.3728 210.8ZM99.5593 199.6H101.959V222H99.5593V199.6ZM109.972 207.792L108.596 204.272H108.5L108.852 207.792V222H106.548V199.248H107.988L116.276 213.776L117.588 217.136H117.716L117.364 213.776V199.6H119.668V222.352H118.196L109.972 207.792ZM123.767 199.6H133.719V201.808H126.167V209.392H133.111V211.6H126.167V219.792H133.879V222H123.767V199.6ZM137.486 199.6C137.827 199.536 138.2 199.493 138.606 199.472C139.032 199.429 139.459 199.408 139.886 199.408C140.312 199.387 140.728 199.376 141.134 199.376C141.56 199.355 141.955 199.344 142.318 199.344C143.875 199.344 145.198 199.611 146.286 200.144C147.374 200.677 148.259 201.445 148.942 202.448C149.624 203.429 150.115 204.613 150.414 206C150.712 207.387 150.862 208.933 150.862 210.64C150.862 212.176 150.712 213.648 150.414 215.056C150.136 216.464 149.656 217.701 148.974 218.768C148.291 219.835 147.384 220.688 146.254 221.328C145.144 221.968 143.747 222.288 142.062 222.288C141.784 222.288 141.432 222.277 141.006 222.256C140.579 222.256 140.131 222.235 139.661 222.192C139.214 222.171 138.787 222.149 138.382 222.128C137.998 222.107 137.699 222.075 137.486 222.032V199.6ZM142.446 201.552C142.232 201.552 141.998 201.552 141.742 201.552C141.507 201.552 141.272 201.563 141.038 201.584C140.803 201.605 140.579 201.627 140.366 201.648C140.174 201.669 140.014 201.691 139.886 201.712V219.952C139.971 219.973 140.12 219.995 140.334 220.016C140.568 220.016 140.803 220.027 141.038 220.048C141.294 220.048 141.528 220.059 141.742 220.08C141.976 220.08 142.147 220.08 142.254 220.08C143.427 220.08 144.408 219.824 145.198 219.312C145.987 218.8 146.606 218.117 147.054 217.264C147.523 216.389 147.854 215.387 148.046 214.256C148.238 213.104 148.334 211.888 148.334 210.608C148.334 209.477 148.248 208.368 148.078 207.28C147.907 206.192 147.598 205.232 147.15 204.4C146.723 203.547 146.126 202.864 145.358 202.352C144.611 201.819 143.64 201.552 142.446 201.552ZM154.682 207.664C154.682 207.067 154.821 206.619 155.098 206.32C155.397 206.021 155.791 205.872 156.282 205.872C156.773 205.872 157.157 206.021 157.434 206.32C157.733 206.619 157.882 207.067 157.882 207.664C157.882 208.283 157.733 208.741 157.434 209.04C157.157 209.339 156.773 209.488 156.282 209.488C155.791 209.488 155.397 209.339 155.098 209.04C154.821 208.741 154.682 208.283 154.682 207.664ZM154.682 220.56C154.682 219.963 154.821 219.515 155.098 219.216C155.397 218.917 155.791 218.768 156.282 218.768C156.773 218.768 157.157 218.917 157.434 219.216C157.733 219.515 157.882 219.963 157.882 220.56C157.882 221.179 157.733 221.637 157.434 221.936C157.157 222.235 156.773 222.384 156.282 222.384C155.791 222.384 155.397 222.235 155.098 221.936C154.821 221.637 154.682 221.179 154.682 220.56ZM168.633 219.856H172.249V204.272L172.537 202.384L171.449 203.92L168.761 206.096L167.545 204.656L173.369 199.216H174.553V219.856H178.041V222H168.633V219.856ZM181.503 206.384C181.503 204.165 181.973 202.416 182.911 201.136C183.871 199.856 185.29 199.216 187.167 199.216C188.959 199.216 190.346 199.877 191.327 201.2C192.33 202.523 192.831 204.549 192.831 207.28C192.831 209.691 192.607 211.792 192.159 213.584C191.711 215.355 191.093 216.859 190.303 218.096C189.514 219.312 188.586 220.272 187.519 220.976C186.453 221.68 185.301 222.149 184.063 222.384L183.455 220.496C185.503 219.963 187.093 218.896 188.223 217.296C189.354 215.675 190.069 213.648 190.367 211.216C189.919 211.835 189.418 212.272 188.863 212.528C188.33 212.784 187.615 212.912 186.719 212.912C186.037 212.912 185.375 212.784 184.735 212.528C184.117 212.251 183.562 211.845 183.071 211.312C182.602 210.757 182.218 210.075 181.919 209.264C181.642 208.432 181.503 207.472 181.503 206.384ZM183.839 206.128C183.839 207.643 184.149 208.805 184.767 209.616C185.386 210.427 186.207 210.832 187.231 210.832C188.042 210.832 188.725 210.661 189.279 210.32C189.855 209.957 190.271 209.499 190.527 208.944C190.57 208.667 190.591 208.4 190.591 208.144C190.591 207.888 190.591 207.643 190.591 207.408C190.591 206.597 190.517 205.829 190.367 205.104C190.239 204.357 190.026 203.707 189.727 203.152C189.45 202.576 189.087 202.128 188.639 201.808C188.191 201.467 187.658 201.296 187.039 201.296C186.037 201.296 185.247 201.733 184.671 202.608C184.117 203.483 183.839 204.656 183.839 206.128ZM207.398 215.248C207.376 216.315 207.238 217.296 206.982 218.192C206.747 219.067 206.384 219.813 205.894 220.432C205.424 221.051 204.838 221.531 204.134 221.872C203.451 222.213 202.672 222.384 201.798 222.384C200.006 222.384 198.598 221.733 197.574 220.432C196.571 219.131 196.07 217.147 196.07 214.48C196.07 212.219 196.294 210.203 196.742 208.432C197.211 206.661 197.84 205.136 198.63 203.856C199.419 202.576 200.347 201.552 201.414 200.784C202.48 199.995 203.622 199.472 204.838 199.216L205.478 201.072C204.518 201.328 203.643 201.755 202.854 202.352C202.064 202.949 201.371 203.675 200.774 204.528C200.176 205.381 199.675 206.341 199.27 207.408C198.886 208.475 198.619 209.616 198.47 210.832C198.747 210.256 199.206 209.755 199.846 209.328C200.507 208.901 201.318 208.688 202.278 208.688C203.814 208.688 205.04 209.232 205.958 210.32C206.896 211.408 207.376 213.051 207.398 215.248ZM205.062 215.472C205.062 212.336 203.931 210.768 201.67 210.768C200.859 210.768 200.166 211.024 199.59 211.536C199.014 212.048 198.608 212.624 198.374 213.264C198.331 213.541 198.31 213.819 198.31 214.096C198.31 214.352 198.32 214.597 198.342 214.832C198.32 215.536 198.374 216.219 198.502 216.88C198.651 217.52 198.864 218.096 199.141 218.608C199.44 219.12 199.803 219.536 200.23 219.856C200.678 220.155 201.2 220.304 201.798 220.304C202.758 220.304 203.536 219.877 204.134 219.024C204.752 218.171 205.062 216.987 205.062 215.472ZM211.884 222L218.348 203.088L219.5 201.52L217.964 201.808H210.636V199.6H221.548V200.464L214.188 222H211.884ZM75.4471 252.4C74.9404 251.76 74.5138 251.053 74.1671 250.28C73.8338 249.52 73.5604 248.74 73.3471 247.94C73.1338 247.127 72.9804 246.313 72.8871 245.5C72.7938 244.673 72.7471 243.887 72.7471 243.14C72.7471 242.407 72.7938 241.633 72.8871 240.82C72.9804 240.007 73.1338 239.193 73.3471 238.38C73.5604 237.553 73.8404 236.747 74.1871 235.96C74.5471 235.173 74.9804 234.44 75.4871 233.76L76.3871 234.3C75.9604 234.98 75.6071 235.693 75.3271 236.44C75.0471 237.187 74.8204 237.947 74.6471 238.72C74.4871 239.48 74.3671 240.24 74.2871 241C74.2204 241.747 74.1871 242.46 74.1871 243.14C74.1871 243.78 74.2271 244.487 74.3071 245.26C74.3871 246.02 74.5138 246.787 74.6871 247.56C74.8738 248.333 75.1071 249.087 75.3871 249.82C75.6671 250.553 76.0004 251.213 76.3871 251.8L75.4471 252.4ZM77.7351 234H83.9551V235.38H79.2351V240.32H83.6351V241.7H79.2351V248H77.7351V234ZM85.5768 241C85.5768 238.627 85.9568 236.827 86.7168 235.6C87.4768 234.373 88.6368 233.76 90.1968 233.76C91.0368 233.76 91.7501 233.933 92.3368 234.28C92.9235 234.613 93.3968 235.093 93.7568 235.72C94.1301 236.347 94.4035 237.107 94.5768 238C94.7501 238.893 94.8368 239.893 94.8368 241C94.8368 243.373 94.4501 245.173 93.6768 246.4C92.9168 247.627 91.7568 248.24 90.1968 248.24C89.3701 248.24 88.6635 248.073 88.0768 247.74C87.4901 247.393 87.0101 246.907 86.6368 246.28C86.2635 245.653 85.9901 244.893 85.8168 244C85.6568 243.107 85.5768 242.107 85.5768 241ZM87.1568 241C87.1568 241.787 87.2101 242.533 87.3168 243.24C87.4368 243.947 87.6168 244.567 87.8568 245.1C88.0968 245.633 88.4101 246.06 88.7968 246.38C89.1835 246.7 89.6501 246.86 90.1968 246.86C91.1968 246.86 91.9568 246.38 92.4768 245.42C92.9968 244.46 93.2568 242.987 93.2568 241C93.2568 240.227 93.1968 239.487 93.0768 238.78C92.9701 238.073 92.7968 237.453 92.5568 236.92C92.3168 236.373 92.0035 235.94 91.6168 235.62C91.2301 235.3 90.7568 235.14 90.1968 235.14C89.2101 235.14 88.4568 235.62 87.9368 236.58C87.4168 237.54 87.1568 239.013 87.1568 241ZM103.393 234H104.833V243.38C104.833 245.073 104.5 246.3 103.833 247.06C103.18 247.807 102.247 248.18 101.033 248.18C99.62 248.18 98.5867 247.813 97.9334 247.08C97.2934 246.347 96.9734 245.22 96.9734 243.7V234H98.4734V242.92C98.4734 243.64 98.52 244.247 98.6134 244.74C98.7067 245.233 98.86 245.633 99.0734 245.94C99.2867 246.247 99.5534 246.467 99.8734 246.6C100.193 246.733 100.587 246.8 101.053 246.8C101.933 246.8 102.54 246.493 102.873 245.88C103.22 245.267 103.393 244.28 103.393 242.92V234ZM109.543 239.12L108.683 236.92H108.623L108.843 239.12V248H107.403V233.78H108.303L113.483 242.86L114.303 244.96H114.383L114.163 242.86V234H115.603V248.22H114.683L109.543 239.12ZM118.165 234C118.378 233.96 118.611 233.933 118.865 233.92C119.131 233.893 119.398 233.88 119.665 233.88C119.931 233.867 120.191 233.86 120.445 233.86C120.711 233.847 120.958 233.84 121.185 233.84C122.158 233.84 122.985 234.007 123.665 234.34C124.345 234.673 124.898 235.153 125.325 235.78C125.751 236.393 126.058 237.133 126.245 238C126.431 238.867 126.525 239.833 126.525 240.9C126.525 241.86 126.431 242.78 126.245 243.66C126.071 244.54 125.771 245.313 125.345 245.98C124.918 246.647 124.351 247.18 123.645 247.58C122.951 247.98 122.078 248.18 121.025 248.18C120.851 248.18 120.631 248.173 120.365 248.16C120.098 248.16 119.818 248.147 119.525 248.12C119.245 248.107 118.978 248.093 118.725 248.08C118.485 248.067 118.298 248.047 118.165 248.02V234ZM121.265 235.22C121.131 235.22 120.985 235.22 120.825 235.22C120.678 235.22 120.531 235.227 120.385 235.24C120.238 235.253 120.098 235.267 119.965 235.28C119.845 235.293 119.745 235.307 119.665 235.32V246.72C119.718 246.733 119.811 246.747 119.945 246.76C120.091 246.76 120.238 246.767 120.385 246.78C120.545 246.78 120.691 246.787 120.825 246.8C120.971 246.8 121.078 246.8 121.145 246.8C121.878 246.8 122.491 246.64 122.985 246.32C123.478 246 123.865 245.573 124.145 245.04C124.438 244.493 124.645 243.867 124.765 243.16C124.885 242.44 124.945 241.68 124.945 240.88C124.945 240.173 124.891 239.48 124.785 238.8C124.678 238.12 124.485 237.52 124.205 237C123.938 236.467 123.565 236.04 123.085 235.72C122.618 235.387 122.011 235.22 121.265 235.22ZM128.973 234H130.473V248H128.973V234ZM135.481 239.12L134.621 236.92H134.561L134.781 239.12V248H133.341V233.78H134.241L139.421 242.86L140.241 244.96H140.321L140.101 242.86V234H141.541V248.22H140.621L135.481 239.12ZM147.962 241.02H151.822V247.18C151.449 247.527 150.969 247.793 150.382 247.98C149.796 248.153 149.202 248.24 148.602 248.24C147.856 248.24 147.176 248.1 146.562 247.82C145.962 247.54 145.449 247.107 145.022 246.52C144.596 245.92 144.262 245.167 144.022 244.26C143.796 243.353 143.682 242.267 143.682 241C143.682 239.693 143.822 238.587 144.102 237.68C144.382 236.76 144.756 236.013 145.222 235.44C145.702 234.853 146.242 234.427 146.842 234.16C147.456 233.893 148.082 233.76 148.722 233.76C149.362 233.76 149.896 233.807 150.322 233.9C150.762 233.98 151.136 234.093 151.442 234.24L151.082 235.6C150.816 235.453 150.496 235.34 150.122 235.26C149.762 235.18 149.342 235.14 148.862 235.14C148.396 235.14 147.949 235.24 147.522 235.44C147.096 235.64 146.709 235.973 146.362 236.44C146.029 236.893 145.762 237.493 145.562 238.24C145.362 238.987 145.262 239.907 145.262 241C145.262 243 145.576 244.48 146.202 245.44C146.842 246.387 147.716 246.86 148.822 246.86C149.516 246.86 150.089 246.693 150.542 246.36V242.28L147.962 241.9V241.02ZM166.864 238.8L167.044 236.68H166.964L166.324 238.66L163.504 244.74H163.004L160.044 238.66L159.424 236.68H159.344L159.624 238.8V248H158.184V234H159.444L162.824 240.88L163.324 242.52H163.364L163.844 240.86L167.044 234H168.364V248H166.864V238.8ZM170.919 234H177.139V235.38H172.419V240.12H176.759V241.5H172.419V246.62H177.239V248H170.919V234ZM188.173 238.8L188.353 236.68H188.273L187.633 238.66L184.813 244.74H184.313L181.353 238.66L180.733 236.68H180.653L180.933 238.8V248H179.493V234H180.753L184.133 240.88L184.633 242.52H184.673L185.153 240.86L188.353 234H189.673V248H188.173V238.8ZM199.167 237.18C199.167 237.527 199.127 237.873 199.047 238.22C198.967 238.567 198.841 238.893 198.667 239.2C198.494 239.507 198.274 239.78 198.007 240.02C197.754 240.26 197.441 240.44 197.067 240.56V240.64C197.387 240.707 197.694 240.82 197.987 240.98C198.281 241.127 198.541 241.34 198.767 241.62C198.994 241.887 199.174 242.22 199.307 242.62C199.441 243.007 199.507 243.473 199.507 244.02C199.507 244.74 199.394 245.367 199.167 245.9C198.941 246.42 198.627 246.847 198.227 247.18C197.841 247.513 197.387 247.76 196.867 247.92C196.361 248.08 195.821 248.16 195.247 248.16C195.061 248.16 194.841 248.16 194.587 248.16C194.347 248.16 194.087 248.147 193.807 248.12C193.527 248.107 193.247 248.08 192.967 248.04C192.701 248.013 192.454 247.967 192.227 247.9V234.12C192.627 234.04 193.094 233.973 193.627 233.92C194.174 233.867 194.761 233.84 195.387 233.84C195.841 233.84 196.294 233.887 196.747 233.98C197.201 234.06 197.607 234.22 197.967 234.46C198.327 234.7 198.614 235.04 198.827 235.48C199.054 235.907 199.167 236.473 199.167 237.18ZM195.367 246.78C195.727 246.78 196.061 246.727 196.367 246.62C196.674 246.5 196.941 246.327 197.167 246.1C197.407 245.873 197.594 245.6 197.727 245.28C197.861 244.947 197.927 244.56 197.927 244.12C197.927 243.573 197.841 243.133 197.667 242.8C197.507 242.453 197.294 242.187 197.027 242C196.761 241.813 196.454 241.687 196.107 241.62C195.774 241.553 195.427 241.52 195.067 241.52H193.727V246.64C193.807 246.667 193.907 246.687 194.027 246.7C194.161 246.713 194.301 246.727 194.447 246.74C194.607 246.753 194.767 246.767 194.927 246.78C195.087 246.78 195.234 246.78 195.367 246.78ZM194.547 240.22C194.734 240.22 194.947 240.213 195.187 240.2C195.427 240.187 195.627 240.167 195.787 240.14C196.281 239.94 196.701 239.62 197.047 239.18C197.407 238.727 197.587 238.173 197.587 237.52C197.587 237.08 197.527 236.713 197.407 236.42C197.287 236.113 197.121 235.873 196.907 235.7C196.707 235.527 196.467 235.407 196.187 235.34C195.907 235.26 195.614 235.22 195.307 235.22C194.961 235.22 194.647 235.233 194.367 235.26C194.087 235.273 193.874 235.293 193.727 235.32V240.22H194.547ZM201.641 234H207.861V235.38H203.141V240.12H207.481V241.5H203.141V246.62H207.961V248H201.641V234ZM210.216 234.14C210.656 234.033 211.136 233.96 211.656 233.92C212.189 233.867 212.676 233.84 213.116 233.84C213.636 233.84 214.129 233.907 214.596 234.04C215.062 234.16 215.469 234.373 215.816 234.68C216.162 234.973 216.436 235.367 216.636 235.86C216.849 236.34 216.956 236.947 216.956 237.68C216.956 238.787 216.722 239.673 216.256 240.34C215.802 241.007 215.196 241.453 214.436 241.68L215.196 242.42L217.956 248H216.216L213.216 241.9L211.716 241.6V248H210.216V234.14ZM211.716 240.6H212.916C213.676 240.6 214.276 240.367 214.716 239.9C215.156 239.433 215.376 238.72 215.376 237.76C215.376 237.027 215.189 236.42 214.816 235.94C214.456 235.46 213.916 235.22 213.196 235.22C212.929 235.22 212.649 235.233 212.356 235.26C212.076 235.273 211.862 235.3 211.716 235.34V240.6ZM219.505 251.8C219.892 251.213 220.225 250.553 220.505 249.82C220.785 249.087 221.012 248.333 221.185 247.56C221.372 246.787 221.505 246.02 221.585 245.26C221.665 244.487 221.705 243.78 221.705 243.14C221.705 242.46 221.665 241.747 221.585 241C221.518 240.24 221.398 239.48 221.225 238.72C221.065 237.947 220.838 237.187 220.545 236.44C220.265 235.693 219.918 234.98 219.505 234.3L220.405 233.76C220.912 234.44 221.338 235.173 221.685 235.96C222.045 236.747 222.332 237.553 222.545 238.38C222.758 239.193 222.912 240.007 223.005 240.82C223.098 241.633 223.145 242.407 223.145 243.14C223.145 243.887 223.098 244.673 223.005 245.5C222.912 246.313 222.758 247.127 222.545 247.94C222.332 248.74 222.052 249.52 221.705 250.28C221.358 251.053 220.938 251.76 220.445 252.4L219.505 251.8Z" fill="#FFDBAD"/>
</svg>
